<svg width="111" height="111" viewBox="0 0 111 111" fill="none" xmlns="http://www.w3.org/2000/svg">
<path d="M111 55.5C111 86.1518 86.1518 111 55.5 111C24.8482 111 0 86.1518 0 55.5C0 24.8482 24.8482 0 55.5 0C86.1518 0 111 24.8482 111 55.5Z" fill="#868686"/>
<path d="M58.7102 13.9714L58.7291 13.6964C59.3076 13.6679 59.3645 13.6016 59.4119 12.9378L59.4877 11.7525L57.4301 11.6102L57.3542 12.7955C57.3068 13.4878 57.3542 13.5447 57.9042 13.6395L57.8852 13.9145L55.7422 13.7722L55.7612 13.4972C56.4249 13.4783 56.4723 13.4214 56.5103 12.7387L56.6809 10.1879C56.7189 9.59997 56.6904 9.51463 56.0077 9.4198L56.0361 9.1543L58.1887 9.29653L58.1697 9.56204C57.6292 9.58101 57.5628 9.65687 57.5249 10.2448L57.4585 11.212L59.5162 11.3447L59.5826 10.368C59.6205 9.7991 59.5921 9.70428 58.9852 9.61894L59.0041 9.35343L61.1377 9.49566L61.1187 9.76117C60.5213 9.77065 60.4644 9.83703 60.4265 10.4344L60.2558 12.9852C60.2084 13.6584 60.2558 13.7343 60.8817 13.8386L60.8627 14.1136L58.7102 13.9714Z" fill="white"/>
<path d="M64.5879 9.97924C65.8775 10.2353 66.6361 11.468 66.3801 12.7481C66.0482 14.4265 64.6638 14.9765 63.6302 14.7679C62.2078 14.4834 61.5725 13.1653 61.8001 12.0274C62.1414 10.3111 63.6302 9.78959 64.5784 9.97924H64.5879ZM64.3793 10.3016C63.7535 10.1784 63.0612 10.7094 62.8337 11.8852C62.5682 13.1938 62.9474 14.2748 63.8103 14.4549C64.4552 14.5877 65.081 14.2179 65.3655 12.786C65.6025 11.5818 65.3086 10.4913 64.3983 10.3111L64.3793 10.3016Z" fill="white"/>
<path d="M69.9652 13.7345C70.6669 14.0569 71.1125 14.5689 70.8944 15.2422C70.5531 16.2852 69.2919 16.1715 68.2299 15.8301L66.248 15.1853L66.3334 14.9198C67.0066 15.081 67.092 15.0336 67.3006 14.3982L68.0782 11.9992C68.2773 11.3923 68.2583 11.288 67.6514 11.0415L67.7273 10.7949L70.0979 11.563C70.9798 11.8475 71.5013 12.3311 71.2737 13.0233C71.0651 13.6776 70.4203 13.725 69.9652 13.706V13.7345ZM68.0782 14.6543C67.879 15.2517 68.0497 15.4129 68.5049 15.5646C69.1212 15.7637 69.766 15.631 69.9841 14.9767C70.2022 14.3224 69.7565 13.8862 69.0169 13.6491L68.4575 13.469L68.0782 14.6543ZM69.0833 13.3078C69.7091 13.5069 70.2117 13.431 70.3919 12.8716C70.572 12.3216 70.2212 11.9613 69.6333 11.7621C69.1117 11.5914 69.0548 11.6294 68.9695 11.8759L68.5712 13.1371L69.0833 13.3078Z" fill="white"/>
<path d="M77.5504 15.0145C76.9056 14.7775 76.8297 14.8249 76.6116 15.2895L75.4358 17.755C75.1798 18.2955 75.1893 18.3713 75.7772 18.7127L75.6634 18.9592L73.7195 18.03L73.8333 17.7834C74.3643 17.9636 74.4591 17.9256 74.7057 17.4136L75.3505 16.0481C75.4643 15.8016 75.635 15.4413 76.0143 14.749H75.9953L72.7428 17.1196C72.6385 17.1955 72.5626 17.2808 72.5152 17.3757L72.4868 17.442L70.998 16.7403L71.1118 16.4938C71.7377 16.7214 71.8135 16.655 72.0885 16.0766L73.179 13.7723C73.4445 13.2129 73.435 13.1275 72.8661 12.7862L72.9799 12.5586L74.9522 13.4974L74.8384 13.7249C74.2221 13.5068 74.1652 13.5448 73.9092 14.1042L73.3876 15.1947C73.2359 15.5171 73.0083 15.9912 72.6195 16.7119L72.6385 16.7214L75.9574 14.3128C76.0617 14.2465 76.1091 14.1896 76.1375 14.1422L76.166 14.0758L77.6452 14.7775L77.5504 15.0145Z" fill="white"/>
<path d="M78.5821 20.827L78.7338 20.5994C79.2458 20.8554 79.3312 20.827 79.701 20.2675L80.3553 19.2718L78.6295 18.1434L77.9752 19.1391C77.5959 19.7175 77.6148 19.7934 78.0416 20.1442L77.8898 20.3718L76.0977 19.2055L76.2494 18.9779C76.8373 19.2813 76.9037 19.2529 77.2735 18.6839L78.6674 16.5409C78.9898 16.0478 79.0088 15.9625 78.4588 15.5452L78.601 15.3271L80.4027 16.503L80.2699 16.7211C79.7863 16.465 79.701 16.5125 79.3786 16.9961L78.8476 17.8021L80.5734 18.9305L81.1044 18.115C81.4173 17.6314 81.4363 17.546 80.9527 17.1667L81.0949 16.9486L82.8776 18.115L82.7354 18.3331C82.2138 18.0581 82.1285 18.0771 81.7966 18.5796L80.4027 20.7226C80.0329 21.2916 80.0423 21.3769 80.5259 21.7657L80.3742 21.9933L78.5821 20.827Z" fill="white"/>
<path d="M83.9059 24.9907C83.6024 24.7347 83.3843 24.4597 83.4886 23.8434C83.5929 23.3123 83.7067 22.8287 83.7921 22.5063C83.8964 22.0796 83.7826 21.852 83.4317 21.5581L82.5688 22.5632C82.218 22.971 82.199 23.0848 82.6352 23.5494L82.455 23.758L80.7861 22.3262L80.9663 22.1176C81.4878 22.4874 81.5921 22.4494 81.943 22.0322L83.7067 19.9745C84.0671 19.5573 84.0765 19.4814 83.6498 19.0263L83.8205 18.8271L85.423 20.1926L85.2524 20.3917C84.7782 20.0693 84.6929 20.0788 84.3326 20.5055L83.6403 21.3115C83.8774 21.5012 84.0955 21.615 84.4558 21.6055C84.7877 21.5676 85.3187 21.3969 85.7075 21.2926C86.0584 21.1978 86.6273 21.0745 86.9592 21.359C87.1963 21.5581 87.2152 21.7951 87.0919 21.9469C86.9687 22.0891 86.8075 22.1176 86.5989 21.9374L86.4661 21.8236C86.1721 21.5771 85.8118 21.6529 85.3377 21.7857C84.9963 21.89 84.636 21.9279 84.3895 21.9089L84.361 21.9374C84.4653 22.0986 84.5981 22.4115 84.5601 22.8003C84.5317 23.0942 84.4748 23.3692 84.3705 23.9666C84.2662 24.6494 84.3041 24.9149 84.6075 25.2183L84.4274 25.4269L83.9059 24.9907Z" fill="white"/>
<path d="M86.8243 28.214C86.72 28.1002 86.6347 27.8726 86.6347 27.7114C86.6442 27.5123 86.7106 27.37 86.8149 27.1994C86.3123 27.0856 85.677 26.9813 85.4684 26.7442C84.9563 26.1942 85.0606 25.3882 85.5442 24.9331C85.914 24.5822 86.3502 24.5632 86.8907 24.8572C87.4786 25.1796 88.2183 25.5494 88.5122 25.5874L88.645 25.4641C89.2139 24.9331 89.2803 24.3926 88.92 23.9943C88.7777 23.8426 88.6165 23.7857 88.4553 23.7857C88.2562 23.7762 88.0286 23.8805 87.7347 24.0228C87.5735 24.0986 87.4502 24.0702 87.3459 23.9659C87.2131 23.8236 87.1847 23.4917 87.3648 23.3305C87.4786 23.2262 87.6493 23.2357 87.8959 23.2831C88.2562 23.359 89.0053 23.5866 89.5174 23.9374C89.7355 24.1745 89.8777 24.4684 89.8967 24.7719C89.9156 25.2649 89.6786 25.6253 89.2613 26.0141L87.82 27.3511C87.4691 27.6735 87.4881 27.92 87.6114 28.0528C87.6967 28.1476 87.8484 28.214 87.9622 28.2424L87.8295 28.5079L86.8243 28.214ZM88.2467 25.8244C88.0097 25.7391 87.4976 25.521 87.27 25.4261C86.8528 25.2555 86.5494 25.2175 86.2649 25.483C85.8571 25.8623 85.9614 26.3459 86.189 26.583C86.3787 26.7821 86.758 26.9339 87.0519 26.9433L88.2467 25.8244Z" fill="white"/>
<path d="M92.9887 37.3269L93.2352 37.2036C93.5481 37.6872 93.6335 37.7062 94.2404 37.4027L95.3024 36.8717L94.3826 35.0226L93.3206 35.5537C92.7042 35.8571 92.6757 35.933 92.8654 36.4545L92.6189 36.5778L91.6611 34.6528L91.9077 34.5296C92.2585 35.089 92.3344 35.0985 92.9413 34.7951L95.236 33.6572C95.767 33.3917 95.8239 33.3348 95.5584 32.69L95.7955 32.5762L96.7532 34.5106L96.5161 34.6244C96.2317 34.1597 96.1274 34.1503 95.6058 34.4158L94.7429 34.8425L95.6627 36.6915L96.5351 36.2554C97.0472 35.9993 97.1135 35.9329 96.8859 35.3545L97.123 35.2407L98.0712 37.1562L97.8342 37.27C97.5213 36.7579 97.4454 36.739 96.8954 37.0139L94.6007 38.1518C93.9938 38.4553 93.9559 38.5311 94.1835 39.119L93.9369 39.2423L92.9887 37.3269Z" fill="white"/>
<path d="M99.3787 40.3611C99.8054 41.6033 99.1227 42.8739 97.8899 43.3006C96.2684 43.8601 95.1021 42.9403 94.7607 41.9446C94.2866 40.5697 95.1021 39.3654 96.2115 38.9861C97.871 38.4172 99.0658 39.4413 99.3787 40.3516V40.3611ZM99.0089 40.3516C98.8003 39.7447 97.9942 39.4223 96.8563 39.8111C95.5952 40.2473 94.8461 41.1102 95.1305 41.9446C95.3486 42.5705 95.9745 42.9213 97.3589 42.4472C98.5253 42.0489 99.3123 41.2429 99.0089 40.3516Z" fill="white"/>
<path d="M98.8521 46.9325C98.9185 47.7006 98.7099 48.3454 98.0177 48.4876C96.9462 48.7152 96.4057 47.5773 96.1686 46.4774L95.7324 44.4481L95.9979 44.3912C96.1971 45.055 96.2824 45.1024 96.9367 44.9602L99.4021 44.4292C100.028 44.2964 100.104 44.2205 100.009 43.5852L100.256 43.5283L100.787 45.9653C100.986 46.8661 100.824 47.5678 100.113 47.7196C99.44 47.8618 99.0797 47.3403 98.8711 46.9325H98.8521ZM97.1074 45.7567C96.491 45.8894 96.4341 46.117 96.5384 46.5817C96.6712 47.217 97.1169 47.7006 97.7901 47.5584C98.4634 47.4161 98.6151 46.8187 98.4539 46.0601L98.3306 45.4912L97.1074 45.7567ZM98.7858 45.9558C98.928 46.6006 99.2504 46.9989 99.8193 46.8756C100.388 46.7523 100.521 46.2687 100.398 45.6619C100.284 45.1214 100.218 45.0929 99.9616 45.1498L98.672 45.4248L98.7858 45.9558Z" fill="white"/>
<path d="M101.574 54.1012C101.451 53.428 101.375 53.3806 100.863 53.428L98.1413 53.665C97.5534 53.7125 97.487 53.7599 97.487 54.4426L97.212 54.4616L97.0223 52.3185L97.2973 52.2901C97.4111 52.8496 97.487 52.9065 98.0559 52.8496L99.5542 52.7168C99.8291 52.6978 100.218 52.6599 101.005 52.6315V52.6125L97.3068 51.0005C97.1835 50.9436 97.0792 50.9246 96.9749 50.9341L96.8991 50.9436L96.7568 49.3126L97.0318 49.2936C97.1551 49.9479 97.2499 49.9764 97.8852 49.9195L100.427 49.7014C101.043 49.6445 101.109 49.5971 101.119 48.9428L101.375 48.9238L101.564 51.1048L101.308 51.1238C101.185 50.4884 101.119 50.46 100.512 50.5074L99.3076 50.6117C98.9473 50.6401 98.4257 50.6876 97.6103 50.716V50.735L101.365 52.3849C101.479 52.4418 101.555 52.4513 101.602 52.4513L101.678 52.4418L101.82 54.0728L101.574 54.1012Z" fill="white"/>
<path d="M97.0743 57.9514L97.3493 57.9609C97.3872 58.5393 97.4536 58.5962 98.1269 58.6246L99.3122 58.6815L99.407 56.6239L98.2312 56.567C97.539 56.5385 97.4821 56.5859 97.3967 57.1359L97.1217 57.1264L97.226 54.9834L97.501 54.9929C97.5295 55.6566 97.5959 55.7041 98.2691 55.7325L100.829 55.8558C101.427 55.8842 101.503 55.8558 101.588 55.173L101.853 55.1825L101.749 57.335L101.484 57.3256C101.455 56.7851 101.37 56.7282 100.791 56.6997L99.8242 56.6523L99.7294 58.71L100.706 58.7574C101.275 58.7859 101.37 58.7574 101.446 58.141L101.711 58.1505L101.607 60.2841L101.341 60.2746C101.313 59.6772 101.256 59.6203 100.649 59.5919L98.0889 59.4686C97.4062 59.4401 97.3398 59.4875 97.2545 60.1039L96.9795 60.0944L97.0743 57.9514Z" fill="white"/>
<path d="M96.187 64.6267C96.2534 64.2379 96.3767 63.906 96.9646 63.6879C97.4672 63.5078 97.9508 63.3655 98.2732 63.2707C98.6999 63.138 98.8326 62.9294 98.9085 62.4742L97.5999 62.2466C97.0689 62.1518 96.9646 62.1897 96.7939 62.8061L96.5189 62.7587L96.8982 60.5967L97.1732 60.6441C97.1258 61.2794 97.2111 61.3553 97.7421 61.4501L100.407 61.9242C100.947 62.019 101.023 61.9906 101.194 61.3932L101.459 61.4406L101.089 63.5078L100.824 63.4604C100.862 62.8819 100.805 62.8251 100.264 62.7207L99.2214 62.5311C99.1835 62.8345 99.193 63.0716 99.3826 63.375C99.5817 63.65 99.999 64.0104 100.293 64.2948C100.549 64.5414 100.947 64.9681 100.871 65.4138C100.814 65.7172 100.634 65.8594 100.435 65.8215C100.246 65.7836 100.141 65.6603 100.189 65.3853L100.217 65.2146C100.283 64.8353 100.027 64.5698 99.6766 64.2285C99.4205 63.9914 99.2024 63.6974 99.0886 63.4793L99.0507 63.4699C98.9654 63.6405 98.7568 63.9155 98.4059 64.0767C98.1309 64.2 97.8749 64.2948 97.306 64.5034C96.6706 64.7595 96.4525 64.9207 96.3482 65.3474L96.0732 65.3L96.187 64.6267Z" fill="white"/>
<path d="M94.8877 68.7607C94.9351 68.6089 95.0868 68.4193 95.2291 68.3434C95.3997 68.2486 95.5609 68.2296 95.7601 68.2391C95.6084 67.746 95.3808 67.1486 95.4661 66.8452C95.6842 66.1245 96.4333 65.8021 97.0781 66.0013C97.5617 66.1435 97.7988 66.5038 97.8272 67.1202C97.8462 67.7935 97.9031 68.6184 98.0169 68.8934L98.1876 68.9408C98.9272 69.1589 99.4393 68.9503 99.591 68.4288C99.6479 68.2391 99.6194 68.059 99.5341 67.9262C99.4393 67.7555 99.2401 67.6038 98.9651 67.4236C98.8134 67.3193 98.7755 67.1961 98.8229 67.0538C98.8798 66.8737 99.1453 66.6745 99.3824 66.7409C99.5341 66.7883 99.6099 66.94 99.6953 67.1771C99.8091 67.5279 99.9892 68.2865 99.9513 68.9029C99.8565 69.2063 99.6763 69.4908 99.4298 69.652C99.022 69.9175 98.5764 69.8985 98.0453 69.7373L96.1678 69.1684C95.7127 69.0356 95.504 69.1684 95.4472 69.3391C95.4092 69.4624 95.4282 69.6236 95.4566 69.7373L95.1627 69.7563L94.8877 68.7607ZM97.6566 68.7796C97.6092 68.5331 97.5428 67.9831 97.5048 67.7366C97.4385 67.2814 97.3247 67.0064 96.9454 66.8926C96.4144 66.7314 96.054 67.0633 95.9592 67.3857C95.8833 67.6512 95.9497 68.059 96.0825 68.3055L97.6566 68.7796Z" fill="white"/>
<path d="M90.114 78.6699L90.3416 78.8217C90.0761 79.3337 90.114 79.419 90.6735 79.7889L91.6691 80.4432L92.7975 78.7174L91.8019 78.0631C91.2235 77.6838 91.1476 77.7027 90.7968 78.1294L90.5692 77.9777L91.745 76.1855L91.9726 76.3373C91.6596 76.9252 91.6976 76.9916 92.2665 77.3614L94.4096 78.7648C94.9026 79.0872 94.988 79.1061 95.4052 78.5562L95.6233 78.6984L94.438 80.5L94.2199 80.3578C94.4759 79.8742 94.4285 79.7889 93.9449 79.4665L93.1389 78.9354L92.0105 80.6613L92.826 81.2018C93.3096 81.5147 93.3949 81.5336 93.7742 81.05L93.9923 81.1923L92.8165 82.975L92.5984 82.8422C92.8829 82.3112 92.8544 82.2353 92.3519 81.9034L90.2088 80.5C89.6399 80.1302 89.5546 80.1397 89.1563 80.6233L88.9287 80.4716L90.114 78.6699Z" fill="white"/>
<path d="M90.7091 85.735C89.8462 86.7307 88.4048 86.7876 87.4187 85.9342C86.1196 84.8247 86.3282 83.3455 87.0109 82.5489C87.9592 81.449 89.41 81.5438 90.3013 82.3024C91.6194 83.4403 91.3444 84.9859 90.7091 85.735ZM90.5289 85.3937C90.9461 84.9101 90.8134 84.0472 89.9031 83.2601C88.8885 82.3877 87.7695 82.1791 87.1911 82.8524C86.7644 83.3549 86.7739 84.0756 87.8833 85.0239C88.8221 85.8393 89.9126 86.1143 90.5289 85.3937Z" fill="white"/>
<path d="M84.7845 88.5802C84.1587 89.0258 83.4949 89.1681 83.0113 88.6465C82.2717 87.8405 82.9829 86.7975 83.8078 86.0389L85.344 84.626L85.5336 84.8251C85.0595 85.3277 85.069 85.432 85.5147 85.9251L87.2215 87.7836C87.6577 88.2483 87.7525 88.2862 88.2646 87.8784L88.4352 88.0681L86.5957 89.756C85.9129 90.3818 85.2397 90.5999 84.7371 90.0594C84.2725 89.5474 84.538 88.9689 84.7845 88.5896V88.5802ZM84.9173 86.4845C84.4906 86.0199 84.263 86.0863 83.9121 86.4087C83.438 86.8449 83.2389 87.4802 83.7035 87.9828C84.1682 88.4948 84.7655 88.3241 85.3345 87.7931L85.7612 87.3949L84.9173 86.4845ZM85.6 88.0207C85.1164 88.4664 84.9362 88.95 85.3345 89.3767C85.7328 89.8034 86.2164 89.6801 86.6715 89.2629C87.0793 88.8931 87.0698 88.8172 86.8896 88.6276L85.9983 87.6604L85.6 88.0207Z" fill="white"/>
<path d="M79.9689 94.5634C80.4904 94.1177 80.4904 94.0229 80.1965 93.6151L78.6224 91.3868C78.281 90.9032 78.2052 90.8747 77.6173 91.2161L77.4561 90.9885L79.2198 89.7463L79.381 89.9739C78.9543 90.3532 78.9448 90.448 79.2767 90.9127L80.1491 92.1454C80.3103 92.3729 80.5378 92.6953 80.9551 93.3591L80.974 93.3496L80.4904 89.348C80.4715 89.2153 80.443 89.111 80.3766 89.0256L80.3292 88.9688L81.6663 88.0205L81.8275 88.2481C81.3249 88.6843 81.3438 88.7791 81.7137 89.3006L83.1834 91.3773C83.5438 91.8799 83.6196 91.9178 84.1886 91.5859L84.3403 91.7945L82.5576 93.0557L82.4059 92.8471C82.899 92.4204 82.8895 92.354 82.5292 91.8514L81.8275 90.8652C81.6188 90.5713 81.3154 90.1446 80.8792 89.4524L80.8602 89.4618L81.3344 93.5393C81.3439 93.6626 81.3723 93.7384 81.4007 93.7763L81.4482 93.8332L80.1111 94.7815L79.9689 94.5634Z" fill="white"/>
<path d="M74.3737 92.6374L74.497 92.8839C74.0229 93.2063 74.0039 93.3011 74.3169 93.889L74.8668 94.9416L76.6969 93.9839L76.147 92.9313C75.8246 92.315 75.7582 92.296 75.2366 92.4951L75.1134 92.2486L77.0193 91.2529L77.1426 91.4995C76.5926 91.8598 76.5832 91.9357 76.8961 92.5425L78.0814 94.8088C78.3564 95.3399 78.4227 95.3873 79.0581 95.1123L79.1813 95.3493L77.2659 96.345L77.1426 96.1079C77.5978 95.814 77.6073 95.7097 77.3323 95.1881L76.8866 94.3347L75.0565 95.2924L75.5116 96.1553C75.7771 96.6674 75.8435 96.7243 76.4125 96.4872L76.5357 96.7243L74.6393 97.7105L74.516 97.4734C75.0185 97.151 75.0375 97.0657 74.753 96.5346L73.5677 94.2683C73.2548 93.6615 73.179 93.633 72.591 93.8701L72.4678 93.6235L74.3737 92.6374Z" fill="white"/>
<path d="M68.155 95.2364C68.5248 95.1036 68.8756 95.0373 69.3593 95.4355C69.767 95.7864 70.1368 96.1278 70.3739 96.3553C70.6963 96.6588 70.9523 96.6683 71.379 96.5071L70.9238 95.2648C70.7342 94.7528 70.6583 94.6864 70.0325 94.8476L69.9377 94.5916L72.0048 93.833L72.0997 94.089C71.5212 94.364 71.5118 94.4778 71.6919 94.9899L72.6212 97.5311C72.8109 98.0527 72.8772 98.0906 73.4746 97.9389L73.5694 98.1854L71.5971 98.9061L71.5023 98.6596C72.0143 98.4035 72.0428 98.3277 71.8531 97.8061L71.4833 96.8105C71.1988 96.9243 70.9997 97.057 70.829 97.3794C70.6963 97.6924 70.592 98.2328 70.4971 98.6216C70.4118 98.9725 70.2411 99.5319 69.8239 99.6837C69.5394 99.788 69.3213 99.7026 69.2549 99.513C69.1886 99.3328 69.2455 99.1811 69.5015 99.0768L69.6627 99.0199C70.023 98.8871 70.1273 98.5363 70.2506 98.0622C70.3265 97.7208 70.4687 97.3889 70.6014 97.1708L70.5825 97.1329C70.3928 97.1424 70.0515 97.1044 69.7291 96.8769C69.4825 96.7062 69.2739 96.526 68.7998 96.1467C68.2593 95.72 68.0127 95.6252 67.586 95.739L67.4912 95.4829L68.155 95.2364Z" fill="white"/>
<path d="M63.9161 96.1943C64.0678 96.1563 64.3144 96.1943 64.4471 96.2701C64.6178 96.3744 64.7126 96.4977 64.8075 96.6779C65.1583 96.2986 65.5566 95.796 65.8695 95.7201C66.5996 95.54 67.2539 96.0331 67.4151 96.6779C67.5384 97.1709 67.3393 97.5597 66.8177 97.8916C66.2488 98.2519 65.5566 98.7071 65.3764 98.9536L65.4143 99.1243C65.5945 99.8829 66.0402 100.205 66.5617 100.082C66.7608 100.035 66.8936 99.9208 66.9694 99.7786C67.0738 99.6079 67.1022 99.3614 67.1212 99.0295C67.1306 98.8493 67.216 98.7545 67.3677 98.7166C67.5574 98.6692 67.8608 98.8019 67.9177 99.039C67.9556 99.1907 67.8608 99.3329 67.6996 99.5321C67.4625 99.8071 66.8936 100.348 66.3341 100.623C66.0212 100.698 65.6893 100.679 65.4238 100.547C64.9876 100.319 64.7885 99.9398 64.6557 99.3898L64.1911 97.4744C64.0773 97.0097 63.8592 96.896 63.679 96.9434C63.5558 96.9718 63.423 97.0666 63.3377 97.1615L63.167 96.9149L63.9161 96.1943ZM65.3005 98.6028C65.4902 98.4416 65.9359 98.1002 66.1255 97.9485C66.4858 97.664 66.666 97.427 66.5712 97.0382C66.4384 96.4977 65.9643 96.3555 65.6514 96.4313C65.3859 96.4977 65.0635 96.7537 64.9118 97.0003L65.3005 98.6028Z" fill="white"/>
<path d="M52.9753 97.0757L52.9658 97.3507C52.3873 97.3886 52.3305 97.455 52.302 98.1283L52.2451 99.3136L54.3028 99.4179L54.3597 98.2326C54.3976 97.5403 54.3407 97.4834 53.8002 97.3981L53.8097 97.1231L55.9527 97.2274L55.9433 97.5024C55.2795 97.5309 55.2321 97.5972 55.2036 98.2705L55.0709 100.831C55.0424 101.428 55.0709 101.504 55.7536 101.589L55.7441 101.855L53.5916 101.751L53.6011 101.485C54.1416 101.457 54.1985 101.381 54.2364 100.793L54.2838 99.8256L52.2261 99.7213L52.1787 100.698C52.1503 101.267 52.1787 101.352 52.7856 101.438L52.7761 101.703L50.6426 101.599L50.6521 101.333C51.2495 101.314 51.3063 101.248 51.3348 100.641L51.4675 98.0808C51.5055 97.3981 51.4486 97.3317 50.8322 97.2369L50.8417 96.9619L52.9753 97.0757Z" fill="white"/>
<path d="M47.1996 101.162C45.9005 100.925 45.1325 99.7116 45.36 98.422C45.6635 96.7436 47.0384 96.1652 48.072 96.3548C49.5039 96.6109 50.1582 97.9194 49.9495 99.0668C49.6366 100.793 48.1574 101.333 47.2091 101.162H47.1996ZM47.3988 100.85C48.0246 100.963 48.7073 100.413 48.916 99.2375C49.153 97.9194 48.7642 96.8479 47.8919 96.6962C47.247 96.5824 46.6307 96.9522 46.3652 98.3936C46.1471 99.6073 46.46 100.688 47.3798 100.85H47.3988Z" fill="white"/>
<path d="M41.6989 97.4931C40.9972 97.1802 40.5325 96.6776 40.7506 95.9949C41.073 94.9518 42.3342 95.0372 43.4152 95.369L45.4065 95.9854L45.3212 96.2509C44.6479 96.0992 44.5626 96.1466 44.3634 96.7914L43.6238 99.2094C43.4342 99.8163 43.4626 99.9206 44.0695 100.158L43.9936 100.404L41.604 99.6741C40.7222 99.3991 40.1912 98.925 40.3998 98.2233C40.5989 97.5595 41.2437 97.5026 41.6989 97.5216V97.4931ZM42.5902 97.9103C41.9644 97.7207 41.4523 97.806 41.2816 98.3655C41.111 98.925 41.4713 99.2758 42.0592 99.456C42.5902 99.6172 42.6471 99.5792 42.723 99.3232L43.1118 98.0621L42.5902 97.9103ZM43.5764 96.5449C43.7566 95.9475 43.5859 95.7863 43.1307 95.644C42.5144 95.4544 41.8696 95.5966 41.6609 96.2604C41.4618 96.9242 41.9075 97.3509 42.6471 97.5784L43.2066 97.7491L43.5764 96.5449Z" fill="white"/>
<path d="M34.1417 96.3638C34.7865 96.5819 34.8624 96.5439 35.071 96.0793L36.1994 93.5949C36.4459 93.0544 36.4364 92.9785 35.8391 92.6372L35.9528 92.3906L37.9157 93.282L37.8019 93.538C37.2614 93.3673 37.1761 93.4052 36.939 93.9268L36.3132 95.3017C36.1994 95.5483 36.0382 95.9086 35.6779 96.6103L35.6968 96.6198L38.9114 94.1828C39.0157 94.1069 39.0915 94.0216 39.1389 93.9268L39.1674 93.8604L40.6561 94.5337L40.5423 94.7802C39.9165 94.5621 39.8406 94.638 39.5751 95.2164L38.5226 97.5396C38.2666 98.099 38.276 98.1844 38.845 98.5163L38.7407 98.7533L36.7494 97.8525L36.8537 97.6154C37.47 97.8241 37.5269 97.7766 37.783 97.2172L38.2855 96.1172C38.4372 95.7853 38.6459 95.3112 39.0251 94.5905L39.0062 94.5811L35.7347 97.0465C35.6304 97.1129 35.583 97.1792 35.5641 97.2267L35.5356 97.293L34.0469 96.6198L34.1417 96.3638Z" fill="white"/>
<path d="M32.99 90.561L32.8383 90.7981C32.3168 90.5421 32.2314 90.58 31.8806 91.1489L31.2453 92.1541L32.99 93.254L33.6254 92.2489C33.9952 91.661 33.9762 91.5946 33.54 91.2438L33.6822 91.0067L35.4934 92.1541L35.3512 92.3911C34.7632 92.0972 34.6874 92.1256 34.3271 92.7041L32.9616 94.866C32.6487 95.3686 32.6297 95.454 33.1892 95.8617L33.0469 96.0893L31.2263 94.9419L31.3685 94.7143C31.8521 94.9609 31.947 94.9135 32.2599 94.4204L32.7719 93.6049L31.0272 92.5049L30.5056 93.3299C30.2022 93.8135 30.1832 93.9083 30.6763 94.2781L30.5341 94.5057L28.7324 93.3678L28.8747 93.1402C29.4057 93.4152 29.4815 93.3868 29.8039 92.8747L31.1694 90.7127C31.5297 90.1343 31.5203 90.0585 31.0272 89.6697L31.1694 89.4326L32.99 90.561Z" fill="white"/>
<path d="M27.6091 86.4843C27.9125 86.7309 28.1401 87.0059 28.0453 87.6317C27.9505 88.1627 27.8461 88.6463 27.7703 88.9687C27.6755 89.4049 27.7987 89.623 28.1496 89.917L28.9935 88.8929C29.3349 88.4756 29.3539 88.3713 28.9082 87.9162L29.0694 87.6981L30.7667 89.1015L30.5961 89.3101C30.065 88.9498 29.9607 88.9972 29.6194 89.4144L27.8936 91.5005C27.5427 91.9272 27.5332 92.0031 27.9694 92.4393L27.7987 92.6479L26.1772 91.3109L26.3479 91.1023C26.8315 91.4152 26.9074 91.4057 27.2677 90.979L27.941 90.1635C27.6944 89.9739 27.4858 89.8696 27.1255 89.8885C26.7936 89.9264 26.2626 90.1161 25.8833 90.2299C25.5419 90.3342 24.973 90.4669 24.6221 90.1825C24.3851 89.9833 24.3566 89.7558 24.4799 89.604C24.6032 89.4523 24.7644 89.4239 24.973 89.604L25.1057 89.7084C25.3997 89.9549 25.76 89.8696 26.2341 89.7273C26.566 89.623 26.9264 89.5661 27.1824 89.5851L27.2108 89.5472C27.1065 89.3954 26.9738 89.073 27.0022 88.6843C27.0307 88.3903 27.0781 88.1153 27.1729 87.5179C27.2677 86.8352 27.2298 86.5697 26.9074 86.2662L27.0876 86.0576L27.6091 86.4843Z" fill="white"/>
<path d="M24.6343 83.3173C24.7481 83.4311 24.8334 83.6586 24.8334 83.8198C24.8334 84.019 24.767 84.1612 24.6627 84.3319C25.1653 84.4362 25.8006 84.531 26.0187 84.7681C26.5403 85.3086 26.4549 86.1241 25.9713 86.5887C25.6015 86.9396 25.1748 86.968 24.6248 86.693C24.0274 86.3801 23.2878 86.0198 22.9843 85.9818L22.8516 86.1051C22.2921 86.6456 22.2258 87.1861 22.6051 87.5844C22.7473 87.7266 22.9085 87.793 23.0792 87.7835C23.2783 87.7835 23.5059 87.6887 23.7998 87.5369C23.961 87.4611 24.0843 87.4801 24.1886 87.5938C24.3214 87.7361 24.3593 88.0585 24.1886 88.2292C24.0748 88.343 23.9041 88.3335 23.6576 88.2861C23.2973 88.2197 22.5482 88.0016 22.0266 87.6602C21.8085 87.4326 21.6568 87.1387 21.6284 86.8352C21.5999 86.3422 21.8275 85.9723 22.2352 85.5836L23.6481 84.2181C23.9895 83.8862 23.9705 83.6397 23.8472 83.5069C23.7619 83.4121 23.6102 83.3552 23.4869 83.3173L23.6102 83.0518L24.6343 83.3173ZM23.2593 85.7258C23.4964 85.8017 24.0084 86.0198 24.2455 86.1051C24.6722 86.2663 24.9662 86.3042 25.2506 86.0292C25.6489 85.6499 25.5351 85.1663 25.3075 84.9293C25.1179 84.7302 24.7291 84.5879 24.4446 84.5784L23.2593 85.7258Z" fill="white"/>
<path d="M18.3142 74.2894L18.0676 74.4221C17.7452 73.9385 17.6599 73.929 17.0625 74.2419L16.0099 74.7919L16.9582 76.622L18.0107 76.072C18.6271 75.7591 18.646 75.6833 18.4469 75.1617L18.6935 75.0385L19.6796 76.9444L19.4331 77.0677C19.0727 76.5082 18.9969 76.5082 18.39 76.8212L16.1142 77.997C15.5832 78.272 15.5358 78.3289 15.8013 78.9737L15.5642 79.0969L14.5686 77.1815L14.8057 77.0582C15.0996 77.5134 15.2039 77.5229 15.716 77.2573L16.5789 76.8117L15.6306 74.9816L14.7582 75.4272C14.2462 75.6927 14.1893 75.7591 14.4264 76.3281L14.1893 76.4513L13.2031 74.5549L13.4402 74.4316C13.7626 74.9342 13.8384 74.9531 14.3789 74.6781L16.6547 73.5023C17.2616 73.1894 17.2901 73.1135 17.0625 72.5256L17.309 72.4023L18.3142 74.2894Z" fill="white"/>
<path d="M11.8764 71.3686C11.4307 70.1264 12.0945 68.8462 13.3177 68.4006C14.9297 67.8127 16.115 68.7135 16.4754 69.7091C16.9685 71.0746 16.1625 72.2884 15.072 72.6866C13.422 73.284 12.2083 72.2789 11.8764 71.3686ZM12.2462 71.3781C12.4643 71.9754 13.2798 72.2884 14.4082 71.8806C15.6694 71.4255 16.3995 70.5436 16.0961 69.7186C15.8685 69.1023 15.2332 68.7514 13.8582 69.254C12.7014 69.6712 11.9238 70.4867 12.2462 71.3686V71.3781Z" fill="white"/>
<path d="M12.2922 64.7978C12.2163 64.0297 12.406 63.3849 13.1077 63.2237C14.1697 62.9772 14.7292 64.1056 14.9852 65.2055L15.4593 67.2348L15.1938 67.3011C14.9852 66.6374 14.8999 66.5994 14.2456 66.7512L11.7802 67.3296C11.1638 67.4718 11.0785 67.5477 11.1828 68.1925L10.9362 68.2494L10.3673 65.8219C10.1587 64.921 10.3009 64.2194 11.0121 64.0582C11.6853 63.897 12.0551 64.428 12.2732 64.8262L12.2922 64.7978ZM12.3775 65.784C12.2258 65.1391 11.8939 64.7504 11.325 64.8831C10.756 65.0159 10.6328 65.509 10.775 66.1064C10.8983 66.6469 10.9647 66.6753 11.2207 66.6089L12.5008 66.3055L12.3775 65.784ZM14.0559 65.9452C14.6628 65.8029 14.7197 65.5753 14.6154 65.1107C14.4637 64.4754 14.0085 63.9918 13.3353 64.153C12.662 64.3142 12.5198 64.9116 12.6999 65.6702L12.8327 66.2391L14.0559 65.9452Z" fill="white"/>
<path d="M9.44938 57.6667C9.58214 58.3399 9.658 58.3778 10.17 58.3304L12.882 58.0554C13.4699 57.9985 13.5363 57.9416 13.5268 57.2589L13.8018 57.2305L14.0199 59.3735L13.7449 59.4019C13.6217 58.852 13.5458 58.7951 12.9768 58.852L11.4786 59.0037C11.2036 59.0321 10.8149 59.0701 10.0278 59.108V59.127L13.7544 60.6726C13.8777 60.72 13.982 60.7484 14.0958 60.7295L14.1716 60.72L14.3423 62.3415L14.0673 62.3699C13.9346 61.7251 13.8397 61.6872 13.2044 61.7536L10.6726 62.0096C10.0563 62.076 9.98988 62.1234 9.99937 62.7872L9.72438 62.8346L9.4968 60.6631L9.75282 60.6347C9.88558 61.27 9.95195 61.2984 10.5588 61.2321L11.7631 61.1088C12.1234 61.0709 12.6355 61.014 13.4605 60.976V60.9571L9.67696 59.3735C9.56317 59.3166 9.48731 59.3071 9.4399 59.3166H9.36404L9.19336 57.6856L9.44938 57.6667Z" fill="white"/>
<path d="M13.8814 53.75L13.6064 53.7405C13.559 53.1621 13.4926 53.1052 12.8194 53.0862L11.6341 53.0483L11.5677 55.106L12.753 55.1439C13.4452 55.1629 13.5021 55.1154 13.578 54.5655L13.853 54.575L13.7866 56.718L13.5116 56.7085C13.4737 56.0447 13.4073 56.0068 12.7246 55.9784L10.1643 55.9025C9.56692 55.8835 9.49106 55.912 9.41521 56.6042L9.15918 56.5947L9.22556 54.4422L9.49106 54.4517C9.52899 54.9922 9.61434 55.0491 10.1928 55.068L11.16 55.0965L11.2263 53.0388L10.2497 53.0104C9.68071 52.9914 9.58589 53.0198 9.51951 53.6362L9.254 53.6267L9.32038 51.4932L9.58589 51.5026C9.62382 52.1 9.68071 52.1569 10.2876 52.1759L12.8478 52.2518C13.5306 52.2707 13.597 52.2233 13.6728 51.5975L13.9478 51.607L13.8814 53.75Z" fill="white"/>
<path d="M14.6643 47.0372C14.5979 47.426 14.4841 47.7579 13.8962 47.9855C13.3936 48.1751 12.9195 48.3269 12.5971 48.4217C12.1799 48.5544 12.0471 48.7725 11.9713 49.2277L13.2798 49.4363C13.8109 49.5216 13.9152 49.4837 14.0858 48.8674L14.3608 48.9148L14.01 51.0862L13.735 51.0388C13.7729 50.4035 13.6876 50.3276 13.1566 50.2423L10.4825 49.8156C9.93254 49.7303 9.86616 49.7587 9.70496 50.3561L9.43945 50.3182L9.77134 48.2415L10.0368 48.2794C10.0084 48.8579 10.0653 48.9148 10.6058 49.0096L11.6583 49.1803C11.6963 48.8768 11.6773 48.6398 11.4782 48.3363C11.279 48.0708 10.8429 47.7105 10.5584 47.4355C10.2929 47.189 9.89461 46.7717 9.96099 46.3261C10.0084 46.0226 10.198 45.8804 10.3972 45.9088C10.5868 45.9373 10.6911 46.07 10.6532 46.3355L10.6248 46.5062C10.5679 46.8855 10.8239 47.151 11.1747 47.4924C11.4402 47.7295 11.6583 48.0139 11.7721 48.232L11.8101 48.2415C11.8954 48.0708 12.0945 47.7958 12.4454 47.6252C12.7109 47.4924 12.9764 47.3976 13.5359 47.1795C14.1712 46.914 14.3798 46.7433 14.4841 46.3166L14.7591 46.364L14.6643 47.0372Z" fill="white"/>
<path d="M15.8987 42.9125C15.8513 43.0642 15.6996 43.2539 15.5668 43.3392C15.3961 43.434 15.2349 43.453 15.0358 43.453C15.197 43.9366 15.4341 44.534 15.3487 44.8469C15.1401 45.5771 14.4005 45.9089 13.7557 45.7193C13.2626 45.5771 13.0255 45.2262 12.9876 44.6099C12.9592 43.9366 12.8928 43.1116 12.7695 42.8366L12.5988 42.7892C11.8497 42.5806 11.3471 42.7987 11.2049 43.3202C11.148 43.5194 11.1765 43.6901 11.2713 43.8228C11.3661 43.9935 11.5652 44.1357 11.8497 44.3159C12.0014 44.4107 12.0394 44.534 12.0014 44.6762C11.954 44.8564 11.679 45.065 11.4514 44.9986C11.2997 44.9512 11.2239 44.7995 11.129 44.5624C11.0058 44.2211 10.8066 43.453 10.8446 42.8366C10.9299 42.5332 11.1101 42.2487 11.3566 42.078C11.7644 41.8031 12.2006 41.822 12.7411 41.9737L14.6375 42.5048C15.1022 42.6375 15.3013 42.4953 15.3487 42.3151C15.3867 42.1918 15.3582 42.0306 15.3298 41.9168L15.6237 41.8884L15.8987 42.9125ZM13.1204 42.9315C13.1678 43.178 13.2531 43.728 13.291 43.9745C13.3669 44.4297 13.4807 44.7047 13.86 44.809C14.391 44.9607 14.7513 44.6193 14.8462 44.2969C14.922 44.0314 14.8462 43.6237 14.7039 43.3771L13.1204 42.9315Z" fill="white"/>
<path d="M20.4875 32.9178L20.2505 32.766C20.5065 32.2445 20.4686 32.1592 19.8996 31.8083L18.8945 31.173L17.7945 32.9083L18.7997 33.5436C19.3876 33.9134 19.4539 33.8945 19.8048 33.4677L20.0418 33.6195L18.8945 35.4306L18.6574 35.2789C18.9514 34.691 18.9229 34.6151 18.354 34.2548L16.192 32.8893C15.6894 32.5764 15.6136 32.5574 15.1963 33.1169L14.9688 32.9747L16.1161 31.154L16.3437 31.2963C16.0972 31.7799 16.1446 31.8747 16.6377 32.1876L17.4531 32.6997L18.5531 30.9549L17.7281 30.4334C17.2445 30.1299 17.1592 30.111 16.7799 30.6041L16.5523 30.4618L17.6902 28.6602L17.9178 28.8024C17.6428 29.3334 17.6712 29.4093 18.1833 29.7317L20.3453 31.0971C20.9237 31.4575 20.9996 31.448 21.3884 30.9549L21.6254 31.1066L20.4875 32.9178Z" fill="white"/>
<path d="M19.7865 25.8534C20.6304 24.8388 22.0717 24.7629 23.0769 25.5973C24.3949 26.6878 24.2148 28.1671 23.5415 28.9826C22.6122 30.1015 21.1519 30.0256 20.2606 29.2765C18.9141 28.1576 19.1701 26.6025 19.7865 25.8534ZM19.9761 26.1853C19.5684 26.6783 19.7106 27.5412 20.6304 28.3093C21.664 29.1627 22.7829 29.3524 23.3519 28.6791C23.7691 28.1766 23.7501 27.4464 22.6217 26.5171C21.6735 25.7111 20.5735 25.4551 19.9761 26.1853Z" fill="white"/>
<path d="M25.6622 22.9037C26.2785 22.4486 26.9423 22.2874 27.4259 22.8089C28.1845 23.6054 27.4828 24.658 26.6673 25.4355L25.1596 26.8674L24.97 26.6683C25.4346 26.1562 25.4251 26.0519 24.97 25.5683L23.2252 23.7382C22.789 23.2735 22.6847 23.2451 22.1821 23.6623L22.002 23.4727L23.8131 21.7564C24.4863 21.121 25.1596 20.884 25.6622 21.415C26.1363 21.9176 25.8803 22.5055 25.6432 22.8848L25.6622 22.9037ZM24.8562 23.4727C25.3303 23.0175 25.501 22.5339 25.1027 22.1072C24.7044 21.6805 24.2114 21.8227 23.7657 22.2494C23.3674 22.6287 23.3674 22.6951 23.5571 22.8942L24.4674 23.852L24.8562 23.4727ZM25.5673 25.0088C26.0035 25.464 26.2311 25.3976 26.5725 25.0657C27.0466 24.6201 27.2268 23.9847 26.7526 23.4822C26.2785 22.9796 25.6906 23.1598 25.1217 23.7003L24.695 24.0985L25.5673 25.0088Z" fill="white"/>
<path d="M30.3738 16.8449C29.8617 17.3001 29.8617 17.3854 30.1652 17.8026L31.7772 20.0026C32.128 20.4862 32.2039 20.5051 32.7823 20.1543L32.9435 20.3819L31.2082 21.6525L31.047 21.4344C31.4643 21.0456 31.4738 20.9508 31.1324 20.4862L30.241 19.2724C30.0798 19.0448 29.8428 18.7319 29.4161 18.0776L29.3971 18.0871L29.9471 22.0887C29.966 22.2215 30.004 22.3258 30.0609 22.4111L30.1083 22.468L28.7902 23.4352L28.629 23.2171C29.1221 22.7809 29.1031 22.6766 28.7238 22.1646L27.2161 20.1069C26.8558 19.6138 26.7705 19.5759 26.2015 19.9077L26.0498 19.6991L27.8135 18.4095L27.9653 18.6181C27.4817 19.0543 27.4911 19.1207 27.8609 19.6233L28.5721 20.6C28.7807 20.8939 29.0937 21.3111 29.5393 21.9939L29.5583 21.9844L29.0178 17.9164C29.0083 17.7932 28.9799 17.7173 28.9514 17.6794L28.904 17.6225L30.2221 16.6553L30.3738 16.8449Z" fill="white"/>
<path d="M35.9764 18.6939L35.8436 18.4474C36.3177 18.1155 36.3272 18.0301 36.0048 17.4422L35.4359 16.3992L33.6247 17.3853L34.1937 18.4284C34.5256 19.0353 34.5919 19.0542 35.1135 18.8456L35.2462 19.0922L33.3592 20.1163L33.2265 19.8697C33.7765 19.4999 33.7765 19.4241 33.4541 18.8267L32.2308 16.5793C31.9463 16.0578 31.88 16.0104 31.2541 16.2949L31.1309 16.0578L33.0273 15.0242L33.1506 15.2613C32.7049 15.5647 32.6955 15.669 32.9705 16.1811L33.4351 17.0345L35.2462 16.0483L34.7816 15.1854C34.5066 14.6828 34.4402 14.6259 33.8713 14.8725L33.748 14.6354L35.6255 13.6113L35.7488 13.8484C35.2557 14.1803 35.2367 14.2561 35.5212 14.7966L36.7445 17.044C37.0669 17.6414 37.1427 17.6698 37.7306 17.4327L37.8634 17.6793L35.9764 18.6939Z" fill="white"/>
<path d="M42.1813 15.973C41.821 16.1152 41.4701 16.1816 40.9771 15.7928C40.5598 15.4514 40.19 15.1196 39.9435 14.892C39.6116 14.598 39.365 14.5885 38.9383 14.7592L39.4219 16.0014C39.6211 16.504 39.6969 16.5799 40.3228 16.4092L40.4176 16.6652L38.3599 17.4522L38.2556 17.1962C38.8245 16.9023 38.8435 16.798 38.6444 16.2954L37.6677 13.7636C37.4686 13.2515 37.4022 13.2041 36.8048 13.3653L36.71 13.1188L38.6728 12.3602L38.7676 12.6067C38.2556 12.8722 38.2272 12.9481 38.4263 13.4696L38.8056 14.4558C39.0901 14.3325 39.2892 14.1998 39.4504 13.8774C39.5831 13.5644 39.678 13.0145 39.7633 12.6257C39.8486 12.2748 40.0004 11.7154 40.4176 11.5542C40.7021 11.4404 40.9202 11.5257 40.996 11.7154C41.0624 11.8955 41.015 12.0473 40.759 12.1516L40.5978 12.2085C40.2374 12.3507 40.1426 12.7015 40.0288 13.1851C39.9624 13.536 39.8297 13.8679 39.6874 14.0765L39.7064 14.1144C39.8961 14.0955 40.2374 14.1334 40.5598 14.3515C40.8064 14.5222 41.0245 14.6929 41.4986 15.0722C42.0486 15.4894 42.3046 15.5842 42.7218 15.4514L42.8261 15.7075L42.1813 15.973Z" fill="white"/>
<path d="M46.3828 14.9572C46.2311 14.9952 45.9846 14.9572 45.8518 14.8909C45.6811 14.796 45.5863 14.6633 45.482 14.4926C45.1406 14.8814 44.7424 15.3839 44.4389 15.4693C43.7088 15.6589 43.045 15.1848 42.8838 14.5305C42.7606 14.0374 42.9407 13.6487 43.4528 13.3073C44.0122 12.947 44.695 12.4728 44.8751 12.2263L44.8277 12.0556C44.6286 11.3065 44.1924 10.9841 43.6614 11.1169C43.4623 11.1643 43.3295 11.2781 43.2631 11.4298C43.1683 11.6005 43.1399 11.847 43.1304 12.1789C43.1209 12.3591 43.0355 12.4539 42.8933 12.4918C42.7037 12.5392 42.4002 12.4065 42.3433 12.1789C42.3054 12.0272 42.4002 11.8754 42.5519 11.6858C42.789 11.4013 43.3485 10.8513 43.8984 10.5669C44.2114 10.491 44.5432 10.5005 44.8088 10.6238C45.2449 10.8419 45.4536 11.2212 45.5958 11.7711L46.0889 13.6771C46.2122 14.1417 46.4303 14.2461 46.6104 14.1986C46.7337 14.1702 46.8664 14.0659 46.9518 13.9805L47.1225 14.2176L46.3828 14.9572ZM44.9605 12.5677C44.7708 12.7383 44.3346 13.0797 44.145 13.2409C43.7941 13.5254 43.614 13.7719 43.7088 14.1512C43.851 14.6822 44.3251 14.8245 44.6381 14.7391C44.9036 14.6728 45.2165 14.3978 45.3682 14.1512L44.9605 12.5677Z" fill="white"/>
<path d="M38.36 60.8C37.46 62.69 37.07 62.81 35.45 62.81H29.87L34.1 58.34C36.86 55.4 38.06 53.63 38.06 50.99C38.06 47.87 35.66 45.95 33.02 45.95C31.31 45.95 29.9 46.73 28.97 47.72L27.26 50.15L27.92 50.75C28.7 49.58 29.99 47.96 32.03 47.96C34.22 47.96 35.54 49.43 35.54 51.95C35.54 54.53 33.65 56.96 31.79 59.21C30.32 60.95 28.61 62.66 26.96 64.31V65H38.15C38.51 63.65 38.81 62.33 39.2 61.07L38.36 60.8ZM47.6141 45.95C43.0841 45.95 41.4641 51.26 41.4641 55.64C41.4641 60.38 43.0841 65.36 47.6141 65.36C52.1141 65.36 53.7041 60.02 53.7041 55.64C53.7041 51.02 52.1141 45.95 47.6441 45.95H47.6141ZM47.5841 46.94C50.2841 46.94 51.0341 51.38 51.0341 55.64C51.0341 59.81 50.3141 64.34 47.6141 64.34C44.9741 64.34 44.1341 59.78 44.1341 55.61C44.1341 51.41 44.8541 46.94 47.5541 46.94H47.5841ZM67.1881 60.8C66.2881 62.69 65.8981 62.81 64.2781 62.81H58.6981L62.9281 58.34C65.6881 55.4 66.8881 53.63 66.8881 50.99C66.8881 47.87 64.4881 45.95 61.8481 45.95C60.1381 45.95 58.7281 46.73 57.7981 47.72L56.0881 50.15L56.7481 50.75C57.5281 49.58 58.8181 47.96 60.8581 47.96C63.0481 47.96 64.3681 49.43 64.3681 51.95C64.3681 54.53 62.4781 56.96 60.6181 59.21C59.1481 60.95 57.4381 62.66 55.7881 64.31V65H66.9781C67.3381 63.65 67.6381 62.33 68.0281 61.07L67.1881 60.8ZM76.4422 45.95C71.9122 45.95 70.2922 51.26 70.2922 55.64C70.2922 60.38 71.9122 65.36 76.4422 65.36C80.9422 65.36 82.5322 60.02 82.5322 55.64C82.5322 51.02 80.9422 45.95 76.4722 45.95H76.4422ZM76.4122 46.94C79.1122 46.94 79.8622 51.38 79.8622 55.64C79.8622 59.81 79.1422 64.34 76.4422 64.34C73.8022 64.34 72.9622 59.78 72.9622 55.61C72.9622 51.41 73.6822 46.94 76.3822 46.94H76.4122Z" fill="white"/>
</svg>
