<svg width="328" height="300" viewBox="0 0 328 300" fill="none" xmlns="http://www.w3.org/2000/svg">
<g clip-path="url(#clip0)">
<path d="M1.92494 131.113L16.3848 131.113L16.3848 6.83413L1.92494 6.83413L1.92494 131.113Z" fill="#F2F2F2"/>
<path d="M87.8751 131.511H23.0029V0.978943H87.8751V131.511ZM23.7914 130.721H87.0866V1.76842H23.7914V130.721Z" fill="#262626"/>
<path d="M32.7958 77.7H30.7143C29.4371 77.7 28.4121 76.6579 28.4121 75.3948V62.6526C28.4121 61.3737 29.4528 60.3474 30.7143 60.3474H32.7958C34.0731 60.3474 35.098 61.3895 35.098 62.6526V66.5369H34.3096V62.6526C34.3096 61.8158 33.6315 61.1369 32.7958 61.1369H30.7143C29.8786 61.1369 29.2005 61.8158 29.2005 62.6526V75.3948C29.2005 76.2316 29.8786 76.9105 30.7143 76.9105H32.7958C33.6315 76.9105 34.3096 76.2316 34.3096 75.3948V68.3526H35.098V75.3948C35.098 76.6579 34.0573 77.7 32.7958 77.7Z" fill="#262626"/>
<path d="M43.2346 69.079H31.8811C30.9823 69.079 30.2412 68.3368 30.2412 67.4368C30.2412 66.5368 30.9823 65.7947 31.8811 65.7947H43.2346C44.1334 65.7947 44.8745 66.5368 44.8745 67.4368C44.8745 68.3368 44.1491 69.079 43.2346 69.079ZM31.8811 66.5684C31.4081 66.5684 31.0296 66.9474 31.0296 67.4211C31.0296 67.8947 31.4081 68.2737 31.8811 68.2737H43.2346C43.7076 68.2737 44.0861 67.8947 44.0861 67.4211C44.0861 66.9474 43.7076 66.5684 43.2346 66.5684H31.8811Z" fill="#262626"/>
<path d="M20.1177 131.842H0.0126953V0H20.1177V131.842ZM0.801127 131.053H19.3293V0.789474H0.801127V131.053Z" fill="#262626"/>
<path d="M87.2461 164.789L87.2461 150.31L4.68157 150.31L4.68157 164.789L87.2461 164.789Z" fill="#F2F2F2"/>
<path d="M87.8597 166.705H0.0126953V146.574H87.8597V166.705ZM0.801127 165.916H87.0713V147.363H0.801127V165.916Z" fill="#262626"/>
<path d="M197.479 164.794L197.479 150.315L114.915 150.315L114.915 164.794L197.479 164.794Z" fill="#F2F2F2"/>
<path d="M198.098 166.705H110.251V146.574H198.098V166.705ZM111.039 165.916H197.31V147.363H111.039V165.916Z" fill="#262626"/>
<path d="M327.334 164.794L327.334 150.315L222.977 150.315L222.977 164.794L327.334 164.794Z" fill="#F2F2F2"/>
<path d="M328 166.705H217.162V146.574H328V166.705ZM217.951 165.916H327.211V147.363H217.951V165.916Z" fill="#262626"/>
<path d="M219.067 131.113L233.526 131.113L233.526 6.83413L219.067 6.83413L219.067 131.113Z" fill="#F2F2F2"/>
<path d="M305.01 131.511H240.138V0.978943H305.01V131.511ZM240.926 130.721H304.221V1.76842H240.926V130.721Z" fill="#262626"/>
<path d="M249.93 77.7H247.848C246.571 77.7 245.546 76.6579 245.546 75.3948V62.6526C245.546 61.3737 246.587 60.3474 247.848 60.3474H249.93C251.207 60.3474 252.232 61.3895 252.232 62.6526V66.5369H251.443V62.6526C251.443 61.8158 250.765 61.1369 249.93 61.1369H247.848C247.012 61.1369 246.334 61.8158 246.334 62.6526V75.3948C246.334 76.2316 247.012 76.9105 247.848 76.9105H249.93C250.765 76.9105 251.443 76.2316 251.443 75.3948V68.3526H252.232V75.3948C252.248 76.6579 251.207 77.7 249.93 77.7Z" fill="#262626"/>
<path d="M260.384 69.079H249.031C248.132 69.079 247.391 68.3368 247.391 67.4368C247.391 66.5368 248.132 65.7947 249.031 65.7947H260.384C261.283 65.7947 262.024 66.5368 262.024 67.4368C262.024 68.3368 261.283 69.079 260.384 69.079ZM249.015 66.5684C248.542 66.5684 248.163 66.9474 248.163 67.4211C248.163 67.8947 248.542 68.2737 249.015 68.2737H260.368C260.841 68.2737 261.22 67.8947 261.22 67.4211C261.22 66.9474 260.841 66.5684 260.368 66.5684H249.015Z" fill="#262626"/>
<path d="M237.267 131.842H217.162V0H237.267V131.842ZM217.951 131.053H236.479V0.789474H217.951V131.053Z" fill="#262626"/>
<path d="M309.802 131.113L324.262 131.113L324.262 6.83413L309.802 6.83413L309.802 131.113Z" fill="#F2F2F2"/>
<path d="M328.001 131.842H307.896V0H328.001V131.842ZM308.684 131.053H327.212V0.789474H308.684V131.053Z" fill="#262626"/>
<path d="M179.901 131.113L194.361 131.113L194.361 6.83413L179.901 6.83413L179.901 131.113Z" fill="#F2F2F2"/>
<path d="M175.123 131.511H110.251V0.978943H175.123V131.511ZM111.024 130.721H174.319V1.76842H111.024V130.721Z" fill="#262626"/>
<path d="M120.043 77.7H117.961C116.684 77.7 115.659 76.6579 115.659 75.3948V62.6526C115.659 61.3737 116.7 60.3474 117.961 60.3474H120.043C121.32 60.3474 122.345 61.3895 122.345 62.6526V66.5369H121.557V62.6526C121.557 61.8158 120.879 61.1369 120.043 61.1369H117.961C117.126 61.1369 116.448 61.8158 116.448 62.6526V75.3948C116.448 76.2316 117.126 76.9105 117.961 76.9105H120.043C120.879 76.9105 121.557 76.2316 121.557 75.3948V68.3526H122.345V75.3948C122.345 76.6579 121.304 77.7 120.043 77.7Z" fill="#262626"/>
<path d="M130.483 69.079H119.129C118.23 69.079 117.489 68.3368 117.489 67.4368C117.489 66.5368 118.23 65.7947 119.129 65.7947H130.483C131.381 65.7947 132.123 66.5368 132.123 67.4368C132.123 68.3368 131.381 69.079 130.483 69.079ZM119.113 66.5684C118.64 66.5684 118.262 66.9474 118.262 67.4211C118.262 67.8947 118.64 68.2737 119.113 68.2737H130.467C130.94 68.2737 131.318 67.8947 131.318 67.4211C131.318 66.9474 130.94 66.5684 130.467 66.5684H119.113Z" fill="#262626"/>
<path d="M198.098 131.842H177.993V0H198.098V131.842ZM178.782 131.053H197.31V0.789474H178.782V131.053Z" fill="#262626"/>
<path d="M1.92494 299.271L16.3848 299.271L16.3848 174.992L1.92494 174.992L1.92494 299.271Z" fill="#F2F2F2"/>
<path d="M87.8751 299.668H23.0029V169.137H87.8751V299.668ZM23.7914 298.879H87.0866V169.926H23.7914V298.879Z" fill="#262626"/>
<path d="M32.7958 245.858H30.7143C29.4371 245.858 28.4121 244.816 28.4121 243.553V230.81C28.4121 229.532 29.4528 228.505 30.7143 228.505H32.7958C34.0731 228.505 35.098 229.547 35.098 230.81V234.695H34.3096V230.81C34.3096 229.974 33.6315 229.295 32.7958 229.295H30.7143C29.8786 229.295 29.2005 229.974 29.2005 230.81V243.553C29.2005 244.389 29.8786 245.068 30.7143 245.068H32.7958C33.6315 245.068 34.3096 244.389 34.3096 243.553V236.511H35.098V243.553C35.098 244.816 34.0573 245.858 32.7958 245.858Z" fill="#262626"/>
<path d="M43.2346 237.237H31.8811C30.9823 237.237 30.2412 236.495 30.2412 235.595C30.2412 234.695 30.9823 233.953 31.8811 233.953H43.2346C44.1334 233.953 44.8745 234.695 44.8745 235.595C44.8745 236.495 44.1491 237.237 43.2346 237.237ZM31.8811 234.726C31.4081 234.726 31.0296 235.105 31.0296 235.579C31.0296 236.053 31.4081 236.432 31.8811 236.432H43.2346C43.7076 236.432 44.0861 236.053 44.0861 235.579C44.0861 235.105 43.7076 234.726 43.2346 234.726H31.8811Z" fill="#262626"/>
<path d="M20.1177 300H0.0126953V168.158H20.1177V300ZM0.801127 299.211H19.3293V168.947H0.801127V299.211Z" fill="#262626"/>
<path d="M219.067 299.271L233.526 299.271L233.526 174.992L219.067 174.992L219.067 299.271Z" fill="#F2F2F2"/>
<path d="M305.01 299.668H240.138V169.137H305.01V299.668ZM240.926 298.879H304.221V169.926H240.926V298.879Z" fill="#262626"/>
<path d="M249.93 245.858H247.848C246.571 245.858 245.546 244.816 245.546 243.553V230.81C245.546 229.532 246.587 228.505 247.848 228.505H249.93C251.207 228.505 252.232 229.547 252.232 230.81V234.695H251.443V230.81C251.443 229.974 250.765 229.295 249.93 229.295H247.848C247.012 229.295 246.334 229.974 246.334 230.81V243.553C246.334 244.389 247.012 245.068 247.848 245.068H249.93C250.765 245.068 251.443 244.389 251.443 243.553V236.511H252.232V243.553C252.248 244.816 251.207 245.858 249.93 245.858Z" fill="#262626"/>
<path d="M260.384 237.237H249.031C248.132 237.237 247.391 236.495 247.391 235.595C247.391 234.695 248.132 233.953 249.031 233.953H260.384C261.283 233.953 262.024 234.695 262.024 235.595C262.024 236.495 261.283 237.237 260.384 237.237ZM249.015 234.726C248.542 234.726 248.163 235.105 248.163 235.579C248.163 236.053 248.542 236.432 249.015 236.432H260.368C260.841 236.432 261.22 236.053 261.22 235.579C261.22 235.105 260.841 234.726 260.368 234.726H249.015Z" fill="#262626"/>
<path d="M237.267 300H217.162V168.158H237.267V300ZM217.951 299.211H236.479V168.947H217.951V299.211Z" fill="#262626"/>
<path d="M309.802 299.271L324.262 299.271L324.262 174.992L309.802 174.992L309.802 299.271Z" fill="#F2F2F2"/>
<path d="M328.001 300H307.896V168.158H328.001V300ZM308.684 299.211H327.212V168.947H308.684V299.211Z" fill="#262626"/>
<path d="M179.901 299.271L194.361 299.271L194.361 174.992L179.901 174.992L179.901 299.271Z" fill="#F2F2F2"/>
<path d="M175.123 299.668H110.251V169.137H175.123V299.668ZM111.024 298.879H174.319V169.926H111.024V298.879Z" fill="#262626"/>
<path d="M120.043 245.858H117.961C116.684 245.858 115.659 244.816 115.659 243.553V230.81C115.659 229.532 116.7 228.505 117.961 228.505H120.043C121.32 228.505 122.345 229.547 122.345 230.81V234.695H121.557V230.81C121.557 229.974 120.879 229.295 120.043 229.295H117.961C117.126 229.295 116.448 229.974 116.448 230.81V243.553C116.448 244.389 117.126 245.068 117.961 245.068H120.043C120.879 245.068 121.557 244.389 121.557 243.553V236.511H122.345V243.553C122.345 244.816 121.304 245.858 120.043 245.858Z" fill="#262626"/>
<path d="M130.483 237.237H119.129C118.23 237.237 117.489 236.495 117.489 235.595C117.489 234.695 118.23 233.953 119.129 233.953H130.483C131.381 233.953 132.123 234.695 132.123 235.595C132.123 236.495 131.381 237.237 130.483 237.237ZM119.113 234.726C118.64 234.726 118.262 235.105 118.262 235.579C118.262 236.053 118.64 236.432 119.113 236.432H130.467C130.94 236.432 131.318 236.053 131.318 235.579C131.318 235.105 130.94 234.726 130.467 234.726H119.113Z" fill="#262626"/>
<path d="M198.098 300H177.993V168.158H198.098V300ZM178.782 299.211H197.31V168.947H178.782V299.211Z" fill="#262626"/>
<path d="M55.0139 206.116C53.7051 206.116 52.6328 205.042 52.6328 203.732C52.6328 202.421 53.7051 201.347 55.0139 201.347C56.3227 201.347 57.395 202.421 57.395 203.732C57.395 205.042 56.3385 206.116 55.0139 206.116ZM55.0139 202.137C54.1308 202.137 53.4212 202.847 53.4212 203.732C53.4212 204.616 54.1308 205.326 55.0139 205.326C55.8969 205.326 56.6065 204.616 56.6065 203.732C56.6065 202.847 55.8969 202.137 55.0139 202.137Z" fill="#262626"/>
<path d="M142.262 206.116C140.953 206.116 139.881 205.042 139.881 203.732C139.881 202.421 140.953 201.347 142.262 201.347C143.571 201.347 144.643 202.421 144.643 203.732C144.643 205.042 143.586 206.116 142.262 206.116ZM142.262 202.137C141.379 202.137 140.669 202.847 140.669 203.732C140.669 204.616 141.379 205.326 142.262 205.326C143.145 205.326 143.855 204.616 143.855 203.732C143.855 202.847 143.145 202.137 142.262 202.137Z" fill="#262626"/>
<path d="M272.163 206.116C270.855 206.116 269.782 205.042 269.782 203.732C269.782 202.421 270.855 201.347 272.163 201.347C273.472 201.347 274.544 202.421 274.544 203.732C274.544 205.042 273.488 206.116 272.163 206.116ZM272.163 202.137C271.28 202.137 270.571 202.847 270.571 203.732C270.571 204.616 271.28 205.326 272.163 205.326C273.046 205.326 273.756 204.616 273.756 203.732C273.756 202.847 273.046 202.137 272.163 202.137Z" fill="#262626"/>
<path d="M142.262 38.0526C140.953 38.0526 139.881 36.9789 139.881 35.6684C139.881 34.3579 140.953 33.2842 142.262 33.2842C143.571 33.2842 144.643 34.3579 144.643 35.6684C144.643 36.9789 143.586 38.0526 142.262 38.0526ZM142.262 34.0737C141.379 34.0737 140.669 34.7842 140.669 35.6684C140.669 36.5526 141.379 37.2631 142.262 37.2631C143.145 37.2631 143.855 36.5526 143.855 35.6684C143.855 34.7842 143.145 34.0737 142.262 34.0737Z" fill="#262626"/>
<path d="M272.132 38.0526C270.823 38.0526 269.751 36.9789 269.751 35.6684C269.751 34.3579 270.823 33.2842 272.132 33.2842C273.441 33.2842 274.513 34.3579 274.513 35.6684C274.513 36.9789 273.441 38.0526 272.132 38.0526ZM272.132 34.0737C271.249 34.0737 270.539 34.7842 270.539 35.6684C270.539 36.5526 271.249 37.2631 272.132 37.2631C273.015 37.2631 273.725 36.5526 273.725 35.6684C273.725 34.7842 272.999 34.0737 272.132 34.0737Z" fill="#262626"/>
<path d="M54.966 38.0842C53.6572 38.0842 52.585 37.0105 52.585 35.7C52.585 34.3895 53.6572 33.3158 54.966 33.3158C56.2748 33.3158 57.3471 34.3895 57.3471 35.7C57.3471 37.0105 56.2748 38.0842 54.966 38.0842ZM54.966 34.1053C54.083 34.1053 53.3734 34.8158 53.3734 35.7C53.3734 36.5842 54.083 37.2947 54.966 37.2947C55.8491 37.2947 56.5586 36.5842 56.5586 35.7C56.5586 34.8158 55.8333 34.1053 54.966 34.1053Z" fill="#262626"/>
</g>
<defs>
<clipPath id="clip0">
<rect width="328" height="300" fill="white"/>
</clipPath>
</defs>
</svg>
