<svg width="56" height="38" viewBox="0 0 56 38" fill="none" xmlns="http://www.w3.org/2000/svg">
<path d="M45.0688 8.89599L13.8443 25.1242L3.19824 18.6329L33.732 3.86865L45.0688 8.89599Z" fill="#EEEEEE"/>
<path d="M51.3885 17.418C51.513 16.4421 49.5764 13.4461 49.5764 13.4461L43.7324 9.61035L37.1069 13.3213L32.588 15.9427L17.627 23.5802L35.0683 26.701L51.3885 17.418Z" fill="#EEEEEE"/>
<path d="M13.7643 25.294L0.196289 17.0211L0.434116 16.9076L34.8525 0.236816L34.9091 0.259513L49.3039 6.64865L13.7643 25.294ZM0.796542 17.0438L13.7756 24.9649L48.6584 6.67135L34.8638 0.554571L0.796542 17.0438Z" fill="#262626"/>
<path d="M34.1965 27.8479L34.0605 27.5983C41.2296 23.8306 51.9889 17.9522 52.2494 17.2032C52.3514 16.4542 51.0149 14.2072 50.4713 13.3674L44.65 9.543L44.8085 9.30469L50.6865 13.1858C50.7658 13.3107 52.6572 16.2385 52.5212 17.2486C52.3967 18.2472 37.2317 26.2592 34.1965 27.8479Z" fill="#262626"/>
<path d="M7.79607 26.327L2.71094 20.3011L4.48903 19.3818L4.61361 19.6315L3.15263 20.3918L8.01126 26.1455L7.79607 26.327Z" fill="#262626"/>
<path d="M17.7175 36.1088C17.525 36.1088 17.3211 36.0521 17.1626 35.9386L13.9688 33.771L14.1273 33.5327L17.3211 35.7003C17.525 35.8364 17.7968 35.8591 18.012 35.757L19.9034 34.8945L20.0166 35.1555L18.1253 36.018C18.0007 36.0747 17.8534 36.1088 17.7175 36.1088Z" fill="#262626"/>
<path d="M16.7552 37.3462C16.7325 37.3462 16.7212 37.3462 16.6985 37.3462C16.0416 37.3235 13.7765 35.2354 11.9531 33.3062L12.157 33.1133C14.4447 35.5418 16.2908 37.0512 16.6985 37.0625C16.7098 37.0625 16.7325 37.0625 16.7438 37.0625C18.1822 37.0625 21.1381 35.2014 21.1721 35.1787L21.3193 35.417C21.2174 35.4964 18.2841 37.3462 16.7552 37.3462Z" fill="#262626"/>
<path d="M7.17391 27.7004C5.23724 25.2719 2.15669 21.3226 1.57908 20.4261C-0.0404701 17.8954 0.321951 17.0556 0.378578 16.9648L0.627725 17.101L0.50316 17.0329L0.627725 17.101C0.627725 17.1124 0.287961 17.8841 1.81691 20.2786C2.32656 21.0843 5.01073 24.5342 7.40042 27.5302L7.17391 27.7004Z" fill="#262626"/>
<path d="M44.3429 24.398L44.207 24.1484C44.275 24.1143 50.8325 20.5509 51.4667 20.1651C51.8971 19.9041 52.1689 18.2358 52.2481 17.2485L52.5313 17.2712C52.5086 17.5436 52.3048 19.9948 51.6139 20.4147C50.9684 20.7892 44.6147 24.2505 44.3429 24.398Z" fill="#262626"/>
<path d="M36.9025 30.4123C36.8345 30.4123 36.7666 30.4009 36.7099 30.3555C36.574 30.2534 36.5854 30.0718 36.5967 29.947L36.4495 29.754C36.5287 29.6973 36.6646 29.5952 36.7892 29.6633C36.9025 29.72 36.8912 29.8562 36.8798 29.9583C36.8798 30.0037 36.8685 30.1058 36.8798 30.1285C36.8798 30.1285 36.9478 30.1512 37.163 30.0605C38.2162 29.6179 44.8077 25.2714 44.785 24.6019C44.7737 24.5338 44.7397 24.4998 44.6831 24.4771C44.4 24.3522 43.6412 24.6586 43.2334 24.8856L35.9172 28.744L35.7812 28.4944L43.0975 24.6359C43.2108 24.5678 44.298 23.9891 44.7963 24.216C44.9323 24.2728 45.0229 24.3976 45.0568 24.5451C45.2607 25.4984 37.7292 30.1285 37.2649 30.3215C37.163 30.3669 37.0271 30.4123 36.9025 30.4123Z" fill="#262626"/>
<path d="M31.9412 32.6361L31.8506 32.3638C33.5721 31.7623 35.2822 31.0814 35.5993 30.8885C35.9731 30.6615 35.9504 30.5934 35.9165 30.514C35.8598 30.3665 35.8259 30.1962 36.041 29.9466C36.7772 29.1181 36.7206 28.8685 36.6866 28.8117C36.596 28.6642 36.143 28.6983 35.8485 28.7777L33.187 29.992L33.0737 29.731L35.7579 28.5053C35.9278 28.4599 36.6979 28.2784 36.9358 28.6529C37.117 28.9479 36.9018 29.4132 36.2562 30.1282C36.1316 30.2643 36.1543 30.3211 36.1883 30.4119C36.2789 30.6615 36.2336 30.8431 35.7579 31.1268C35.3728 31.3651 33.5607 32.0801 31.9412 32.6361Z" fill="#262626"/>
<path d="M17.6592 36.0976L17.6025 35.8139C17.7384 35.7912 18.1575 35.3259 18.1575 34.9855C18.1575 34.9174 18.1575 34.7131 17.7271 34.645L17.7724 34.3613C18.35 34.4521 18.4406 34.7926 18.4406 34.9855C18.452 35.4621 17.9423 36.0409 17.6592 36.0976Z" fill="#262626"/>
<path d="M8.28253 25.4072C5.24729 22.5474 2.85761 20.4706 2.83496 20.4593L3.01616 20.2437C3.03881 20.2663 5.42851 22.3431 8.46375 25.2029L8.28253 25.4072Z" fill="#262626"/>
<path d="M34.2511 25.634L20.332 21.8096L20.4 21.5259L34.3304 25.3616L34.2511 25.634Z" fill="#262626"/>
<path d="M6.47004 31.9894C5.45074 29.2204 9.5846 22.9334 9.75448 22.6724L9.99231 22.8312C9.94701 22.8993 5.76787 29.2658 6.73054 31.8986L6.47004 31.9894Z" fill="#262626"/>
<path d="M37.8654 20.6073L37.7295 20.3576L49.8365 13.5259L49.9724 13.7755L37.8654 20.6073Z" fill="#262626"/>
<path d="M28.7481 37.1985C28.6688 37.1985 28.6008 37.1758 28.5215 37.1418C28.1818 36.9602 28.1591 36.4155 28.2271 36.1658C29.4729 31.513 37.4574 20.6752 38.5673 19.1659L30.4356 16.4877L30.5262 16.2153L39.0316 19.0184L38.9184 19.1773C38.8844 19.2113 37.9557 20.4596 36.6533 22.3094C34.694 27.0076 30.7867 35.3033 29.9939 36.2679C29.4842 36.8921 29.0765 37.1985 28.7481 37.1985ZM35.8831 23.4216C33.1084 27.4162 29.3143 33.2266 28.5102 36.2452C28.4536 36.4381 28.4989 36.8126 28.6574 36.8921C28.7367 36.9261 29.0425 36.9829 29.7787 36.0863C30.4582 35.2806 33.72 28.4716 35.8831 23.4216Z" fill="#262626"/>
<path d="M37.9886 18.7348L37.7281 18.6327C37.8867 18.2469 37.9999 17.9518 38.0566 17.7816L31.8389 16.9531L31.8728 16.6694L38.453 17.5546L38.385 17.7248C38.385 17.7135 38.2491 18.088 37.9886 18.7348Z" fill="#262626"/>
<path d="M28.6227 37.1871C28.4189 37.1417 7.94227 32.2846 6.56055 32.0122L6.61718 31.7285C8.01022 32.0009 28.4868 36.858 28.6907 36.9034L28.6227 37.1871Z" fill="#262626"/>
<path d="M25.1583 35.7686L24.8978 35.6438C25.2715 34.8607 25.4641 34.0323 25.4641 33.1812C25.4641 29.6859 22.2363 26.8374 18.2723 26.8374C14.0706 26.8374 11.1259 29.1525 11.1259 32.4662H10.8428C10.8428 28.9823 13.9007 26.5537 18.2723 26.5537C22.3948 26.5537 25.7472 29.527 25.7472 33.1812C25.7472 34.0777 25.5433 34.9515 25.1583 35.7686Z" fill="#262626"/>
<path d="M51.8748 31.6831C51.3085 31.6831 50.7082 31.615 50.1193 31.4902C48.8055 31.2065 47.639 30.6277 46.8349 29.8787C46.0081 29.107 45.6457 28.2332 45.8269 27.4275C46.0081 26.6217 46.699 25.9862 47.7749 25.6344C48.8282 25.294 50.1306 25.2599 51.4331 25.555C52.7468 25.8387 53.9134 26.4175 54.7175 27.1665C55.5442 27.9381 55.9066 28.812 55.7254 29.6177C55.5442 30.4234 54.8534 31.059 53.7774 31.4108C53.2112 31.5923 52.5656 31.6831 51.8748 31.6831ZM49.6663 25.6344C49.0094 25.6344 48.3978 25.7252 47.8542 25.9068C46.8802 26.2245 46.2573 26.792 46.0987 27.4956C45.9402 28.1992 46.2686 28.9709 47.0274 29.6745C47.7976 30.3894 48.9188 30.9455 50.1873 31.2178C51.4444 31.5015 52.7015 31.4675 53.6982 31.1384C54.6722 30.8206 55.2951 30.2532 55.4536 29.5496C55.6122 28.846 55.2837 28.0743 54.5249 27.3707C53.7548 26.6558 52.6336 26.0997 51.3651 25.8273C50.7875 25.6912 50.2099 25.6344 49.6663 25.6344Z" fill="#262626"/>
<path d="M46.7213 34.8723C43.9239 34.8723 41.6475 33.5105 41.6475 31.8309C41.6475 30.5939 42.8933 29.1073 45.6227 28.7896L45.6567 29.0733C43.0971 29.3683 41.9306 30.7074 41.9306 31.8309C41.9306 33.3516 44.0825 34.5886 46.7213 34.5886C49.0317 34.5886 51.0137 33.6353 51.4327 32.3302L51.7046 32.421C51.2402 33.8509 49.145 34.8723 46.7213 34.8723Z" fill="#262626"/>
<path d="M51.6941 32.5232C51.1278 32.5232 50.5276 32.4551 49.9386 32.3302C48.6249 32.0465 47.4584 31.4678 46.6542 30.7188C45.8275 29.9471 45.4651 29.0733 45.6463 28.2675L45.8275 27.4277L46.0993 27.4845L45.9181 28.3243C45.7595 29.0279 46.088 29.7995 46.8468 30.5031C47.6169 31.2181 48.7381 31.7742 50.0066 32.0465C51.275 32.3302 52.5208 32.2962 53.5175 31.9671C54.4915 31.6493 55.1144 31.0819 55.2729 30.3783L55.4541 29.5385L55.726 29.5953L55.5447 30.4351C55.3635 31.2408 54.6727 31.8763 53.5968 32.2281C53.0305 32.4324 52.3736 32.5232 51.6941 32.5232Z" fill="#262626"/>
<path d="M46.7213 35.7346C43.9239 35.7346 41.6475 34.3728 41.6475 32.6932V31.9102H41.9306V32.6932C41.9306 34.2139 44.0825 35.4509 46.7213 35.4509C49.3602 35.4509 51.512 34.2139 51.512 32.6932V32.2733H51.7952V32.6932C51.7952 34.3728 49.5187 35.7346 46.7213 35.7346Z" fill="#262626"/>
</svg>
