<svg width="51" height="51" viewBox="0 0 51 51" fill="none" xmlns="http://www.w3.org/2000/svg">
<path d="M38.0673 40.529L39.4263 34.6976L38.7209 29.8744L40.6297 27.1094C40.6297 27.1094 40.9098 5.11413 20.5148 2.27637C20.5148 2.27637 0.69043 3.26387 0.69043 17.0369C0.700804 30.7995 2.18426 36.6102 2.18426 36.6102L28.6687 46.2565L33.9801 43.4083L44.1257 46.6619L48.2856 43.4187L38.0673 40.529ZM21.8738 35.5915C16.5624 38.1382 9.76753 35.0094 6.70725 28.6062C3.64697 22.2031 5.47277 14.9372 10.7945 12.3904C16.1163 9.84373 22.9008 12.9726 25.9611 19.3757C29.0214 25.7789 27.1956 33.0448 21.8738 35.5915Z" fill="#EEEEEE"/>
<path d="M44.8936 50.3105C44.8106 50.3105 44.7587 50.2482 44.7691 50.1754L44.8936 47.8782L36.5322 45.1963L30.7851 48.2836C30.754 48.3043 30.7125 48.3043 30.6814 48.2939L1.74879 37.7537C1.7073 37.7433 1.67617 37.7017 1.6658 37.6601C1.64505 37.5978 0.0371094 31.1218 0.0371094 16.247C0.0371094 10.0413 3.81318 5.27013 10.94 2.43237C16.3137 0.301447 21.7495 0.0103947 21.8014 0C33.389 1.61118 38.773 8.93947 41.2627 14.8021C43.9495 21.1429 43.8977 27.1926 43.8977 27.255C43.8977 27.2758 43.8873 27.307 43.8769 27.3278L41.8229 30.3111L42.5906 35.5292C42.5906 35.5396 42.5906 35.5604 42.5906 35.5708L41.4598 40.9553L50.6095 43.7514C50.6718 43.7722 50.7029 43.8242 50.7029 43.8866L50.4747 46.1734C50.4643 46.2462 50.4124 46.2982 50.3294 46.2878C50.2568 46.2774 50.205 46.215 50.2153 46.1422L50.4332 43.9593L41.2731 41.1528C41.2108 41.132 41.1694 41.0696 41.1797 40.9968L42.3312 35.5188L41.5636 30.2695C41.5636 30.2383 41.5636 30.2071 41.5843 30.1759L43.6487 27.1822C43.6487 26.6521 43.5761 20.8934 41.0241 14.8645C38.5655 9.06421 33.2334 1.81908 21.8014 0.228684C21.7703 0.228684 16.3655 0.519737 11.0334 2.64026C6.1473 4.61526 0.306829 8.55487 0.306829 16.247C0.306829 30.2903 1.73842 36.8182 1.91477 37.5354L30.7125 48.0237L36.4596 44.9364C36.4908 44.9157 36.5219 44.9157 36.5634 44.9261L45.0699 47.6495C45.1218 47.6703 45.1633 47.7222 45.1633 47.7846L45.0388 50.1858C45.018 50.2586 44.9662 50.3105 44.8936 50.3105Z" fill="#262626"/>
<path d="M36.0755 28.4607C36.0548 28.4607 36.034 28.4503 36.0133 28.4399C35.9718 28.4192 35.951 28.3776 35.951 28.336C35.1834 16.7563 26.5627 8.52363 26.4797 8.44047C26.4486 8.40929 26.4279 8.35732 26.4382 8.31574C26.4486 8.27416 26.4797 8.23258 26.5212 8.22218L32.9426 6.14324C32.9841 6.13284 33.0256 6.14324 33.0671 6.16403C40.6711 12.1722 42.4554 25.3735 42.4658 25.5086C42.4762 25.5606 42.4451 25.623 42.3932 25.6438L36.1274 28.4503C36.117 28.4607 36.0963 28.4607 36.0755 28.4607ZM26.8117 8.3989C27.9839 9.5735 35.4116 17.4111 36.1896 28.1385L42.1961 25.4463C42.0197 24.2405 40.1006 12.0994 32.953 6.4135L26.8117 8.3989Z" fill="#262626"/>
<path d="M16.9466 37.0884C12.5274 37.0884 7.95251 34.0739 5.59765 29.1468C4.10382 26.018 3.70961 22.5981 4.48765 19.5005C5.26569 16.4028 7.13298 14.0016 9.73681 12.7543C12.3406 11.5069 15.3802 11.5485 18.2745 12.8894C21.1688 14.2199 23.5859 16.6731 25.0797 19.8019C28.1607 26.2674 26.3038 33.6165 20.9302 36.1944C19.6646 36.7973 18.316 37.0884 16.9466 37.0884ZM13.7515 12.1098C12.3925 12.1098 11.075 12.4008 9.85092 12.9934C7.31971 14.2095 5.50429 16.5484 4.73662 19.5732C3.96896 22.6085 4.36316 25.966 5.82587 29.0428C8.85503 35.3732 15.5773 38.4812 20.8161 35.9657C26.0548 33.4502 27.8599 26.257 24.8411 19.9266C23.3784 16.8498 21.0028 14.4486 18.1707 13.1389C16.708 12.4424 15.2038 12.1098 13.7515 12.1098Z" fill="#262626"/>
<path d="M33.8148 18.929C33.7629 18.929 33.711 18.8979 33.6903 18.8459C33.6591 18.7835 33.7006 18.7004 33.7629 18.6796L39.8523 16.2784C39.9146 16.2576 39.9976 16.2888 40.0183 16.3511C40.0494 16.4135 40.0079 16.4967 39.9457 16.5175L33.8563 18.9186C33.8459 18.929 33.8251 18.929 33.8148 18.929Z" fill="#262626"/>
<path d="M34.4366 20.6338C34.3847 20.6338 34.3328 20.6026 34.3121 20.5506C34.2913 20.4882 34.3224 20.4051 34.3847 20.3843L40.4534 18.0663C40.5156 18.0351 40.5986 18.0767 40.6194 18.139C40.6401 18.2014 40.609 18.2846 40.5467 18.3053L34.478 20.6234C34.4677 20.6338 34.4469 20.6338 34.4366 20.6338Z" fill="#262626"/>
<path d="M35.0594 22.5149C35.0075 22.5149 34.9556 22.4837 34.9349 22.4317C34.9037 22.3694 34.9349 22.2862 35.0075 22.2654L40.9517 19.7811C41.0243 19.7499 41.0969 19.7811 41.1177 19.8538C41.1488 19.9162 41.1177 19.9994 41.0451 20.0202L35.1008 22.5045C35.0905 22.5045 35.0801 22.5149 35.0594 22.5149Z" fill="#262626"/>
<path d="M33.8139 46.6307C33.7413 46.6307 33.6895 46.5683 33.6895 46.5059V43.9592C33.6895 43.9073 33.7206 43.8657 33.7621 43.8449L41.4491 40.0508C41.5113 40.0196 41.5943 40.0508 41.6254 40.1132C41.6566 40.1755 41.6254 40.2587 41.5632 40.2899L33.9488 44.0424V46.5059C33.9384 46.5787 33.8762 46.6307 33.8139 46.6307Z" fill="#262626"/>
<path d="M45.0181 47.9092C45.0078 47.9092 44.987 47.9092 44.9767 47.8988L33.8559 44.3334C33.7833 44.3126 33.7522 44.2399 33.7729 44.1671C33.7937 44.0944 33.8663 44.0632 33.9389 44.084L45.0596 47.6494C45.1323 47.6701 45.1634 47.7429 45.1426 47.8157C45.1323 47.8676 45.0804 47.9092 45.0181 47.9092Z" fill="#262626"/>
<path d="M33.8144 26.3922C33.7625 26.3922 33.7106 26.3506 33.6899 26.2987C31.0238 16.6523 26.895 10.1972 21.4073 7.08918C16.3137 4.20984 11.8841 5.40523 11.8426 5.41563C11.77 5.43642 11.6974 5.39484 11.687 5.32208C11.6662 5.24931 11.7077 5.17655 11.7803 5.16616C11.8218 5.15576 16.3656 3.92918 21.5421 6.8605C27.0921 9.99971 31.2624 16.5172 33.9492 26.2259C33.97 26.2987 33.9285 26.3714 33.8559 26.3818C33.8351 26.3922 33.8247 26.3922 33.8144 26.3922Z" fill="#262626"/>
<path d="M45.0183 47.9091C44.9768 47.9091 44.9353 47.8883 44.9145 47.8571C44.873 47.7948 44.8834 47.722 44.9457 47.6804L50.4957 43.772C50.5579 43.7304 50.6305 43.7408 50.672 43.8032C50.7135 43.8656 50.7031 43.9383 50.6409 43.9799L45.0909 47.8883C45.0702 47.8987 45.0494 47.9091 45.0183 47.9091Z" fill="#262626"/>
<path d="M44.8933 50.3106C44.8518 50.3106 44.8103 50.2898 44.7895 50.2586C44.7481 50.1962 44.7584 50.1235 44.8207 50.0819L50.2669 46.0591C50.3292 46.0175 50.4018 46.0279 50.4433 46.0903C50.4848 46.1527 50.4744 46.2254 50.4122 46.267L44.9659 50.2898C44.9452 50.3002 44.9244 50.3106 44.8933 50.3106Z" fill="#262626"/>
<path d="M33.8142 44.1777C33.8038 44.1777 33.7934 44.1777 33.783 44.1777C33.7104 44.1673 33.6689 44.0945 33.6793 44.0217L34.7997 38.8244L33.6793 32.3796C33.6689 32.3069 33.7104 32.2445 33.783 32.2341C33.8557 32.2133 33.9179 32.2653 33.9283 32.3381L35.0487 38.814C35.0487 38.8348 35.0487 38.8452 35.0487 38.866L33.9283 44.0841C33.9283 44.1361 33.866 44.1777 33.8142 44.1777Z" fill="#262626"/>
<path d="M34.9349 38.9597C34.883 38.9597 34.8416 38.9285 34.8208 38.8765C34.7897 38.8141 34.8208 38.731 34.883 38.7102L42.4248 35.4151C42.4871 35.3839 42.5701 35.4151 42.5908 35.4774C42.6219 35.5398 42.5908 35.623 42.5286 35.6438L34.9868 38.9493C34.966 38.9597 34.9453 38.9597 34.9349 38.9597Z" fill="#262626"/>
<path d="M41.3877 41.1942C41.3773 41.1942 41.3669 41.1942 41.3462 41.1839L40.3295 40.872C40.2569 40.8512 40.2258 40.7785 40.2465 40.7057C40.2673 40.6329 40.3399 40.6017 40.4125 40.6225L41.4292 40.9344C41.5018 40.9552 41.5329 41.0279 41.5122 41.1007C41.4914 41.1527 41.4395 41.1942 41.3877 41.1942Z" fill="#262626"/>
</svg>
