<svg width="56" height="49" viewBox="0 0 56 49" fill="none" xmlns="http://www.w3.org/2000/svg">
<path d="M45.4424 13.2743C45.4424 13.2743 45.9191 11.4503 47.1435 8.85547C47.1435 8.85547 28.4094 16.9222 18.9719 22.4376L4.61523 37.8329L35.669 47.4414C35.669 47.4414 52.0627 13.1114 53.5905 10.2777C53.5905 10.2777 52.5069 10.7554 45.4424 13.2743Z" fill="#EEEEEE"/>
<path d="M34.304 37.833L33.1338 36.1067L33.3613 35.9547L34.3582 37.4313L37.132 35.0536L36.7853 34.3587L34.499 36.4758L33.6756 35.2164L33.8923 35.0644L34.5532 36.0524L36.872 33.9136L37.4679 35.1187L34.304 37.833Z" fill="#262626"/>
<path d="M0.551758 40.102L0.757629 39.8523L26.4371 8.61661L26.4696 8.60575C38.7025 4.00237 52.2682 0.148121 52.3982 0.11555L52.6691 0.0395508L52.5499 0.300119C51.228 3.34009 33.2741 36.4432 33.0899 36.7798L33.0574 36.8449L32.9815 36.8558L0.551758 40.102ZM26.5996 8.83375L1.16937 39.7654L32.8948 36.5735C33.7616 34.9775 50.1878 4.6755 52.1923 0.452118C50.1878 1.01668 37.8357 4.61036 26.5996 8.83375Z" fill="#262626"/>
<path d="M36.1233 48.8633L0.833008 40.0583L0.898016 39.7977L35.9824 48.5376L54.8573 9.82143L47.6628 9.57172V9.30029L55.2908 9.56086L36.1233 48.8633Z" fill="#262626"/>
<path d="M23.8366 12.1672L23.7607 11.9067C23.9883 11.8415 46.1679 5.39246 50.5562 3.74219L50.6537 3.9919C46.2438 5.65303 24.0641 12.1021 23.8366 12.1672Z" fill="#262626"/>
<path d="M6.11099 33.7401C6.07849 33.7401 6.05683 33.7401 6.03516 33.7401L6.07849 33.4686C6.08932 33.4686 6.111 33.4686 6.13267 33.4686C7.59541 33.4686 28.984 29.799 37.2621 28.355L37.3054 28.6264C36.1027 28.8327 7.95297 33.7401 6.11099 33.7401Z" fill="#262626"/>
<path d="M34.9744 44.9226L34.8769 44.9009L8.6123 39.2552L8.66648 38.9947L34.8227 44.6078L36.6213 41.0141L20.3468 38.0501L20.401 37.7896L37.0222 40.8078L34.9744 44.9226Z" fill="#262626"/>
<path d="M49.884 15.4999L44.748 15.0005L44.7806 14.729L49.7323 15.2067L50.9566 13.0028L45.9074 12.6336L45.9291 12.373L51.4009 12.7639L49.884 15.4999Z" fill="#262626"/>
<path d="M42.8619 28.6366L37.791 27.8549L37.8343 27.5835L42.7211 28.3326L44.108 25.8681L39.1996 25.3144L39.2321 25.043L44.5414 25.6401L42.8619 28.6366Z" fill="#262626"/>
<path d="M34.7907 39.255C32.667 39.255 31.3018 38.4516 30.7275 36.8665L30.9876 36.7796C31.5185 38.2453 32.797 38.9945 34.7907 38.9945C37.001 38.9945 38.7888 37.5505 38.7888 35.7808C38.7888 34.1522 37.2719 32.7734 35.2566 32.5888L35.2782 32.3174C37.4344 32.5237 39.0596 34.0111 39.0596 35.7808C39.0705 37.6916 37.1527 39.255 34.7907 39.255Z" fill="#262626"/>
<path d="M18.6143 21.6012L22.4174 17.0196L22.4608 17.0087L40.6748 12.3076L37.3917 17.595L37.3375 17.6058L18.6143 21.6012ZM22.5691 17.2584L19.3185 21.167L37.2184 17.3453L40.0789 12.731L22.5691 17.2584Z" fill="#262626"/>
</svg>
