<svg width="519" height="521" viewBox="0 0 519 521" fill="none" xmlns="http://www.w3.org/2000/svg">
<path d="M480.699 47.6973H418.843V519.914H480.699V47.6973Z" fill="#EEEEEE"/>
<path d="M1.24023 81.8211V0.893555H517.355V8.21671L512.851 15.4802L500.032 29.4852L487.879 48.8744L479.822 47.6961V81.8211H1.24023Z" fill="#EEEEEE"/>
<path d="M518.307 0.745605H1.33008V10.0673H518.307V0.745605Z" stroke="#231F20" stroke-miterlimit="10"/>
<path d="M1.33105 10.0674H516.796L511.505 19.3891H1.33105V10.0674Z" stroke="#231F20" stroke-miterlimit="10"/>
<path d="M1.33105 19.7021H509.933L502.693 29.0239H1.33105V19.7021Z" stroke="#231F20" stroke-miterlimit="10"/>
<path d="M1.33105 29.3374H501L496.011 38.6591H1.33105V29.3374Z" stroke="#231F20" stroke-miterlimit="10"/>
<path d="M1.33105 38.6587H493.744L488.846 47.9804H1.33105V38.6587Z" stroke="#231F20" stroke-miterlimit="10"/>
<path d="M481.651 47.9805H1.33105V82.0309H481.651V47.9805Z" stroke="#231F20" stroke-miterlimit="10"/>
<path d="M481.651 85.3867H1.33105V520.033H481.651V85.3867Z" stroke="#231F20" stroke-miterlimit="10"/>
<path d="M427.61 264.618V520.033H418.54V85.3867H427.61V157.917" stroke="#231F20" stroke-miterlimit="10"/>
<path d="M435.365 168.358C435.365 165.269 432.827 162.765 429.696 162.765C426.565 162.765 424.027 165.269 424.027 168.358V255.788C424.027 258.877 426.565 261.381 429.696 261.381C432.827 261.381 435.365 258.877 435.365 255.788V168.358Z" stroke="#231F20" stroke-miterlimit="10"/>
<path d="M434.972 157.917H429.878C426.121 157.917 423.075 160.922 423.075 164.629V258.786C423.075 262.493 426.121 265.498 429.878 265.498H434.972C438.729 265.498 441.774 262.493 441.774 258.786V164.629C441.774 160.922 438.729 157.917 434.972 157.917Z" stroke="#231F20" stroke-miterlimit="10"/>
<path d="M330.11 85.3867H318.017V520.033H330.11V85.3867Z" stroke="#231F20" stroke-miterlimit="10"/>
<path d="M290.808 206.942H1.33105V221.111H290.808V520.033H305.168V221.111V206.942H290.808Z" stroke="#231F20" stroke-miterlimit="10"/>
<path d="M54.2375 252.06H249.238C250.593 252.06 251.936 252.323 253.188 252.835C254.441 253.347 255.579 254.097 256.538 255.043C257.497 255.989 258.257 257.112 258.776 258.348C259.295 259.584 259.562 260.909 259.562 262.246V520.033H43.9131V262.246C43.9131 260.909 44.1801 259.584 44.699 258.348C45.2178 257.112 45.9783 255.989 46.937 255.043C47.8957 254.097 49.0339 253.347 50.2865 252.835C51.5391 252.323 52.8817 252.06 54.2375 252.06V252.06Z" stroke="#231F20" stroke-miterlimit="10"/>
<path d="M45.4856 246.586H256.297C257.653 246.586 258.996 246.849 260.248 247.361C261.501 247.873 262.639 248.624 263.598 249.57C264.556 250.516 265.317 251.638 265.836 252.874C266.355 254.11 266.622 255.435 266.622 256.773V520.018H35.1611V256.788C35.1592 255.449 35.4247 254.122 35.9427 252.885C36.4607 251.647 37.2209 250.522 38.1798 249.575C39.1387 248.627 40.2775 247.876 41.5311 247.363C42.7847 246.85 44.1285 246.586 45.4856 246.586V246.586Z" stroke="#231F20" stroke-miterlimit="10"/>
<path d="M435.35 208.687C433.562 207.918 431.632 207.521 429.681 207.521C427.731 207.521 425.801 207.918 424.013 208.687" stroke="#231F20" stroke-miterlimit="10"/>
<path d="M435.35 214.773C433.562 214.003 431.632 213.606 429.681 213.606C427.731 213.606 425.801 214.003 424.013 214.773" stroke="#231F20" stroke-miterlimit="10"/>
<path d="M156.772 288.601H149.093V520.033H156.772V288.601Z" stroke="#231F20" stroke-miterlimit="10"/>
<path d="M97.0926 340.713C87.4484 331.317 83.2158 319.832 83.2158 306.871C83.2158 276.594 114.491 252.06 153.068 252.06C191.645 252.06 222.92 276.594 222.92 306.871C223.022 313.471 221.657 320.013 218.923 326.037C216.189 332.061 212.151 337.422 207.094 341.742" stroke="#231F20" stroke-miterlimit="10"/>
<path d="M101.657 334.926C93.0107 328.334 90.4863 317.535 90.4863 306.916C90.4863 279.786 118.497 257.802 153.068 257.802C187.639 257.802 215.649 279.786 215.649 306.916C215.649 317.923 213.079 325.828 205.294 334.016" stroke="#231F20" stroke-miterlimit="10"/>
<path d="M82.3089 269.957C82.1378 267.201 81.3007 264.526 79.8675 262.154C78.4342 259.783 76.4466 257.784 74.0705 256.325C70.8173 254.434 67.1172 253.421 63.3416 253.387C59.566 253.353 55.8477 254.3 52.56 256.131C49.8341 257.704 47.6606 260.061 46.3313 262.887C45.0019 265.713 44.5803 268.872 45.1228 271.941C45.5154 275.069 46.8941 277.995 49.0641 280.308C51.2341 282.62 54.0856 284.201 57.2159 284.827L58.7275 276.028C57.3991 275.757 56.1913 275.079 55.2766 274.09C54.3618 273.102 53.7867 271.854 53.6333 270.524C53.3942 269.259 53.5562 267.951 54.0971 266.779C54.6381 265.608 55.5318 264.629 56.6565 263.977C58.6359 262.876 60.8695 262.298 63.1414 262.298C65.4134 262.298 67.6469 262.876 69.6263 263.977C70.9223 264.744 71.9852 265.841 72.7033 267.153C73.4215 268.465 73.7684 269.944 73.7077 271.434V520.033H82.3542V269.957H82.3089Z" stroke="#231F20" stroke-miterlimit="10"/>
<path d="M252.109 256.102C248.907 254.27 245.263 253.321 241.562 253.355C237.86 253.389 234.235 254.405 231.068 256.295C228.726 257.775 226.775 259.783 225.374 262.153C223.973 264.523 223.163 267.188 223.011 269.927L222.92 520.033H231.37V271.449C231.306 269.968 231.642 268.498 232.343 267.188C233.045 265.878 234.086 264.774 235.361 263.991C237.291 262.892 239.481 262.313 241.709 262.313C243.938 262.313 246.128 262.892 248.058 263.991C249.154 264.701 250.017 265.709 250.543 266.893C251.069 268.077 251.236 269.386 251.023 270.662C250.81 271.937 250.227 273.125 249.344 274.08C248.461 275.035 247.316 275.717 246.048 276.043L247.559 284.842C250.648 284.183 253.449 282.585 255.569 280.274C257.689 277.962 259.022 275.053 259.38 271.956C259.925 268.898 259.522 265.75 258.225 262.921C256.928 260.093 254.797 257.716 252.109 256.102V256.102Z" stroke="#231F20" stroke-miterlimit="10"/>
<path d="M141.141 350.497C137.936 348.673 134.294 347.729 130.594 347.763C126.893 347.797 123.27 348.808 120.099 350.691C116.916 352.531 114.499 355.428 113.282 358.864C112.924 361.169 112.768 363.499 112.813 365.83V520.033H120.508V364.502C120.634 363.257 121.052 362.057 121.728 360.998C122.405 359.939 123.323 359.051 124.408 358.402C126.334 357.299 128.522 356.719 130.749 356.719C132.976 356.719 135.164 357.299 137.09 358.402C138.181 359.112 139.04 360.118 139.564 361.299C140.088 362.48 140.255 363.786 140.044 365.058C139.833 366.33 139.253 367.515 138.375 368.47C137.497 369.424 136.358 370.108 135.095 370.438L136.606 379.253C139.695 378.593 142.496 376.996 144.616 374.684C146.736 372.373 148.069 369.464 148.427 366.366C148.976 363.305 148.573 360.151 147.273 357.319C145.973 354.488 143.835 352.109 141.141 350.497V350.497Z" stroke="#231F20" stroke-miterlimit="10"/>
<path d="M164.254 350.497C167.457 348.673 171.096 347.729 174.794 347.763C178.492 347.797 182.113 348.808 185.281 350.691C188.473 352.525 190.896 355.423 192.113 358.864C192.471 361.169 192.628 363.499 192.582 365.829V520.033H184.888V364.502C184.762 363.256 184.344 362.057 183.667 360.998C182.99 359.939 182.073 359.051 180.988 358.402C179.061 357.299 176.874 356.718 174.646 356.718C172.419 356.718 170.232 357.299 168.305 358.402C167.208 359.108 166.343 360.113 165.815 361.296C165.287 362.478 165.118 363.786 165.33 365.061C165.541 366.336 166.123 367.523 167.006 368.478C167.888 369.433 169.033 370.114 170.3 370.438L168.789 379.253C165.701 378.593 162.9 376.996 160.779 374.684C158.659 372.373 157.326 369.464 156.968 366.366C156.42 363.305 156.822 360.151 158.122 357.319C159.422 354.487 161.56 352.109 164.254 350.497V350.497Z" stroke="#231F20" stroke-miterlimit="10"/>
<path d="M97.0928 340.713C99.5712 343.029 102.611 344.677 105.921 345.5C109.372 346.564 112.913 347.317 116.502 347.753C123.973 348.84 131.599 348.186 138.768 345.844C140.513 345.286 142.149 344.438 143.606 343.338C144.246 342.808 144.833 342.219 145.359 341.578C146.574 340.181 147.425 338.511 147.838 336.716C148.156 334.449 148.307 332.152 148.428 329.87C148.67 325.276 148.654 320.682 148.624 316.103C148.788 312.757 148.421 309.405 147.536 306.17C146.741 303.911 145.482 301.837 143.839 300.079C142.195 298.321 140.201 296.917 137.982 295.954C133.495 294.056 128.47 293.792 123.803 295.208C120.577 296.093 117.679 297.88 115.459 300.353C114.085 302.053 113.078 304.012 112.501 306.111C111.924 308.209 111.788 310.402 112.103 312.554C112.504 315.694 113.81 318.656 115.867 321.085C117.943 323.507 120.797 325.154 123.954 325.753L125.466 316.983C124.258 316.683 123.157 316.059 122.285 315.18C121.413 314.302 120.804 313.203 120.524 312.005C120.244 310.807 120.305 309.556 120.7 308.389C121.094 307.223 121.807 306.187 122.76 305.395C124.295 304.235 126.138 303.54 128.066 303.396C130.299 303.09 132.574 303.357 134.672 304.172C136.781 304.995 138.48 306.602 139.403 308.646C139.991 310.389 140.242 312.226 140.144 314.06V329.064C140.286 330.845 140.039 332.636 139.418 334.314C138.45 336.178 136.843 337.642 134.883 338.446C131.737 339.753 128.331 340.34 124.922 340.161C120.591 340.174 116.267 339.82 111.997 339.102C108.268 338.515 104.728 337.081 101.658 334.911" stroke="#231F20" stroke-miterlimit="10"/>
<path d="M25.4718 82.0309C25.4718 81.8668 25.4718 81.7177 25.4718 81.5685V59.0025C25.4678 57.2988 24.7801 55.666 23.5591 54.4614C22.3382 53.2567 20.6833 52.5782 18.9567 52.5742H17.2636C15.5355 52.5781 13.8792 53.2562 12.6558 54.4604C11.4324 55.6647 10.7414 57.2974 10.7334 59.0025V81.5685C10.7334 81.7177 10.7334 81.8668 10.7334 82.0309H25.4718Z" stroke="#231F20" stroke-miterlimit="10"/>
<path d="M54.9485 82.0309C54.9485 81.8668 54.9485 81.7177 54.9485 81.5685V59.0025C54.9445 57.2988 54.2568 55.666 53.0359 54.4614C51.8149 53.2567 50.1601 52.5782 48.4334 52.5742H46.8613C45.1332 52.5781 43.4768 53.2562 42.2535 54.4604C41.0301 55.6647 40.339 57.2974 40.3311 59.0025V81.5685C40.3311 81.7177 40.3311 81.8668 40.3311 82.0309H54.9485Z" stroke="#231F20" stroke-miterlimit="10"/>
<path d="M84.4249 82.0309C84.4249 81.8668 84.4249 81.7177 84.4249 81.5685V59.0025C84.4209 57.2988 83.7332 55.666 82.5122 54.4614C81.2913 53.2567 79.6364 52.5782 77.9098 52.5742H76.2167C74.4887 52.5781 72.8323 53.2562 71.6089 54.4604C70.3855 55.6647 69.6945 57.2974 69.6865 59.0025V81.5685C69.6865 81.7177 69.6865 81.8668 69.6865 82.0309H84.4249Z" stroke="#231F20" stroke-miterlimit="10"/>
<path d="M113.902 82.0309C113.902 81.8668 113.902 81.7177 113.902 81.5685V59.0025C113.898 57.2988 113.21 55.666 111.989 54.4614C110.768 53.2567 109.113 52.5782 107.387 52.5742H105.814C104.086 52.5781 102.43 53.2562 101.207 54.4604C99.9832 55.6647 99.2922 57.2974 99.2842 59.0025V81.5685C99.2842 81.7177 99.2842 81.8668 99.2842 82.0309H113.902Z" stroke="#231F20" stroke-miterlimit="10"/>
<path d="M143.288 82.0309C143.288 81.8668 143.288 81.7177 143.288 81.5685V59.0025C143.284 57.2988 142.597 55.666 141.376 54.4614C140.155 53.2567 138.5 52.5782 136.773 52.5742H135.08C133.352 52.5781 131.696 53.2562 130.472 54.4604C129.249 55.6647 128.558 57.2974 128.55 59.0025V81.5685C128.55 81.7177 128.55 81.8668 128.55 82.0309H143.288Z" stroke="#231F20" stroke-miterlimit="10"/>
<path d="M172.629 82.0309C172.629 81.8668 172.629 81.7177 172.629 81.5685V59.0025C172.625 57.2988 171.937 55.666 170.716 54.4614C169.495 53.2567 167.841 52.5782 166.114 52.5742H164.406C162.679 52.5782 161.024 53.2567 159.803 54.4614C158.582 55.666 157.895 57.2988 157.891 59.0025V81.5685C157.891 81.7177 157.891 81.8668 157.891 82.0309H172.629Z" stroke="#231F20" stroke-miterlimit="10"/>
<path d="M201.531 82.0309C201.531 81.8668 201.531 81.7177 201.531 81.5685V59.0025C201.527 57.2962 200.837 55.6612 199.613 54.4561C198.389 53.251 196.73 52.5742 195.001 52.5742H193.308C191.58 52.5781 189.923 53.2562 188.7 54.4604C187.476 55.6647 186.785 57.2974 186.777 59.0025V81.5685C186.777 81.7177 186.777 81.8668 186.777 82.0309H201.531Z" stroke="#231F20" stroke-miterlimit="10"/>
<path d="M230.872 82.0309C230.872 81.8668 230.872 81.7177 230.872 81.5685V59.0025C230.868 57.2988 230.181 55.666 228.96 54.4614C227.739 53.2567 226.084 52.5782 224.357 52.5742H222.649C220.927 52.586 219.28 53.268 218.066 54.4718C216.852 55.6757 216.168 57.304 216.164 59.0025V81.5685C216.164 81.7177 216.164 81.8668 216.164 82.0309H230.872Z" stroke="#231F20" stroke-miterlimit="10"/>
<path d="M260.908 82.0309C260.908 81.8668 260.908 81.7177 260.908 81.5685V59.0025C260.904 57.2988 260.216 55.666 258.995 54.4614C257.774 53.2567 256.119 52.5782 254.393 52.5742H252.745C251.017 52.5781 249.361 53.2562 248.137 54.4604C246.914 55.6647 246.223 57.2974 246.215 59.0025V81.5685C246.215 81.7177 246.215 81.8668 246.215 82.0309H260.908Z" stroke="#231F20" stroke-miterlimit="10"/>
<path d="M289.991 82.0309C289.991 81.8668 289.991 81.7177 289.991 81.5685V59.0025C289.983 57.2974 289.292 55.6647 288.069 54.4604C286.846 53.2562 285.189 52.5781 283.461 52.5742H281.768C280.041 52.5782 278.387 53.2567 277.166 54.4614C275.945 55.666 275.257 57.2988 275.253 59.0025V81.5685C275.253 81.7177 275.253 81.8668 275.253 82.0309H289.991Z" stroke="#231F20" stroke-miterlimit="10"/>
<path d="M317.972 82.0309C317.972 81.8668 317.972 81.7177 317.972 81.5685V59.0025C317.968 57.2988 317.28 55.666 316.059 54.4614C314.838 53.2567 313.184 52.5782 311.457 52.5742H309.885C308.157 52.5781 306.5 53.2562 305.277 54.4604C304.054 55.6647 303.362 57.2974 303.354 59.0025V81.5685C303.354 81.7177 303.354 81.8668 303.354 82.0309H317.972Z" stroke="#231F20" stroke-miterlimit="10"/>
<path d="M348.204 82.0309C348.204 81.8668 348.204 81.7177 348.204 81.5685V59.0025C348.2 57.2988 347.513 55.666 346.292 54.4614C345.071 53.2567 343.416 52.5782 341.689 52.5742H340.117C338.389 52.5781 336.733 53.2562 335.509 54.4604C334.286 55.6647 333.595 57.2974 333.587 59.0025V81.5685C333.587 81.7177 333.587 81.8668 333.587 82.0309H348.204Z" stroke="#231F20" stroke-miterlimit="10"/>
<path d="M377.757 82.0309C377.757 81.8668 377.757 81.7177 377.757 81.5685V59.0025C377.749 57.2974 377.058 55.6647 375.835 54.4604C374.611 53.2562 372.955 52.5781 371.227 52.5742H369.534C367.807 52.5782 366.152 53.2567 364.931 54.4614C363.71 55.666 363.023 57.2988 363.019 59.0025V81.5685C363.019 81.7177 363.019 81.8668 363.019 82.0309H377.757Z" stroke="#231F20" stroke-miterlimit="10"/>
<path d="M406.523 82.0309C406.523 81.8668 406.523 81.7177 406.523 81.5685V59.0025C406.519 57.2988 405.831 55.666 404.61 54.4614C403.389 53.2567 401.734 52.5782 400.007 52.5742H398.299C396.573 52.5782 394.918 53.2567 393.697 54.4614C392.476 55.666 391.788 57.2988 391.784 59.0025V81.5685C391.784 81.7177 391.784 81.8668 391.784 82.0309H406.523Z" stroke="#231F20" stroke-miterlimit="10"/>
<path d="M436.423 82.0309C436.423 81.8668 436.423 81.7177 436.423 81.5685V59.0025C436.419 57.2988 435.731 55.666 434.51 54.4614C433.289 53.2567 431.635 52.5782 429.908 52.5742H428.215C426.497 52.5938 424.856 53.2787 423.646 54.4813C422.436 55.6839 421.753 57.3077 421.745 59.0025V81.5685C421.745 81.7177 421.745 81.8668 421.745 82.0309H436.423Z" stroke="#231F20" stroke-miterlimit="10"/>
<path d="M205.295 334.091C199.248 337.835 191.463 339.162 184.45 339.371C181.213 339.44 177.975 339.286 174.76 338.908C172.19 338.61 169.394 337.984 167.655 335.925C167.521 335.776 167.4 335.617 167.293 335.448C166.243 333.704 165.757 331.685 165.902 329.661C165.993 323.949 166.083 318.237 166.038 312.524C165.974 311.044 166.31 309.573 167.011 308.263C167.713 306.953 168.754 305.85 170.029 305.067C171.959 303.967 174.149 303.388 176.377 303.388C178.606 303.388 180.796 303.967 182.726 305.067C183.821 305.776 184.685 306.784 185.211 307.968C185.737 309.152 185.904 310.461 185.691 311.737C185.478 313.013 184.895 314.2 184.012 315.155C183.129 316.11 181.984 316.792 180.716 317.118L182.227 325.918C185.316 325.258 188.117 323.66 190.237 321.349C192.357 319.038 193.69 316.129 194.048 313.031C194.583 309.981 194.176 306.842 192.879 304.022C191.582 301.203 189.456 298.834 186.777 297.222C183.575 295.39 179.931 294.441 176.23 294.475C172.528 294.51 168.903 295.525 165.736 297.416C163.394 298.895 161.443 300.903 160.042 303.273C158.641 305.643 157.831 308.308 157.679 311.048H157.588C157.588 311.048 157.588 323.874 157.679 325.425C157.8 330.944 157.059 337.119 160.823 341.742C162.996 344.171 165.854 345.905 169.031 346.724C175.848 348.782 183.089 348.215 190.058 347.395C192.378 347.121 194.679 346.713 196.951 346.172C199.201 345.67 201.393 344.945 203.496 344.009C204.757 343.407 205.965 342.704 207.109 341.906" stroke="#231F20" stroke-linecap="round" stroke-linejoin="round"/>
</svg>
