<svg width="337" height="390" viewBox="0 0 337 390" fill="none" xmlns="http://www.w3.org/2000/svg">
<path d="M275.381 23.9744L273.599 24.4151C256.525 28.6021 232.399 34.1209 215.459 36.3534C186.361 40.2626 139.135 31.9173 110.669 29.7231C87.9898 27.8931 64.5444 41.8626 65.445 67.0902C65.9912 82.334 70.9255 97.8365 74.0682 112.688C77.6612 129.541 79.3858 144.306 79.3858 144.306C72.4963 142.627 65.5116 141.366 58.4699 140.531C45.171 138.844 32.5237 139.86 19.2441 140.464C9.9119 140.924 0.675533 145.657 0.972553 156.292C1.00727 158.209 1.57095 160.079 2.60137 161.696C3.04211 162.376 4.90088 164.944 5.95482 164.331C6.56803 163.976 6.58719 162.414 6.75965 161.84C7.03291 160.776 7.4555 159.757 8.0148 158.812C10.0173 155.573 14.5205 154.979 18.0081 155.487C21.649 156.033 25.6731 158.151 27.187 161.638C28.2484 164.435 28.8721 167.38 29.0361 170.367C29.3236 173.145 29.4769 175.934 29.5727 178.722C29.7931 185.371 29.6781 192.04 29.4481 198.699C29.2182 205.358 28.8445 212.199 28.3942 218.944C28.0493 223.99 27.6596 229.036 27.2253 234.082C26.8804 238.164 26.6312 240.626 26.6312 240.626L25.9126 257.633L29.9847 264.465L143.245 267.215L268.645 266.621L380.507 267.818" stroke="#868686" stroke-linecap="round" stroke-linejoin="round"/>
<path d="M95.3386 129.004C94.3805 105.894 77.1342 82.1708 83.1225 58.62C84.1696 53.9033 86.5393 49.5826 89.954 46.1644C96.1051 40.4156 105.342 39.3712 113.735 40.1761C156.525 44.2385 197.868 54.3755 241.233 48.9908C280.928 44.0948 318.219 31.6391 358.652 31.4092" stroke="#868686" stroke-linecap="round" stroke-linejoin="round"/>
<path d="M98.6921 126.082C97.734 102.972 81.829 85.9458 87.6545 62.395C88.6729 57.6945 90.9977 53.377 94.3614 49.9393C100.398 44.1906 109.442 43.1462 117.673 43.9414C159.591 48.0039 200.072 58.1505 242.584 52.7562C281.465 47.8314 318.008 35.3662 357.626 35.1746" stroke="#868686" stroke-linecap="round" stroke-linejoin="round"/>
<path d="M325.289 10.4261C323.737 7.96371 315.929 11.7771 317.624 16.5294C319.32 21.2817 316.743 23.6195 316.139 23.6387C315.536 23.6579 313.648 19.9882 313.648 19.9882C313.648 19.9882 309.384 13.1568 319.081 8.81645C328.777 4.47612 331.604 10.8668 331.604 10.8668C331.604 10.8668 333.951 17.7462 328.844 19.3271C323.737 20.908 322.195 17.1138 322.195 17.1138C324.552 18.4744 328.327 18.369 329.476 15.418C330.377 13.0993 328.451 11.5184 326.449 10.771C320.154 8.42361 318.42 15.188 319.339 18.0336C320.259 20.8793 318.448 24.6447 317.165 25.8807C315.881 27.1167 314.606 24.3956 314.606 24.3956C314.606 24.3956 313.984 27.8832 311.579 27.5958C309.174 27.3083 308.704 24.4435 308.704 24.4435C306.184 28.4677 303.981 26.9634 303.981 26.9634C302.524 30.4797 298.548 29.7516 298.548 29.7516C296.68 31.4858 291.295 31.6678 291.295 31.6678L291.238 29.7516C291.238 29.7516 285.048 31.2462 284.694 31.2558C284.339 31.2654 284.607 28.2665 284.607 28.2665L282.337 28.3239C276.703 28.3239 274.221 21.0038 274.221 21.0038C274.221 21.0038 282.729 20.8889 287.204 18.1295C293.803 13.9756 300.881 10.6361 308.283 8.18408C312.028 6.96263 315.876 6.08079 319.78 5.54923C323.613 5.03184 327.244 4.41863 330.511 6.86186C331.512 7.54883 332.356 8.43923 332.989 9.47486C333.621 10.5105 334.028 11.668 334.183 12.8717C334.338 14.0754 334.236 15.2983 333.886 16.4602C333.536 17.6221 332.944 18.697 332.15 19.6146C329.39 22.9872 320.403 24.4723 319.339 18.7906" stroke="#868686" stroke-linecap="round" stroke-linejoin="round"/>
<path d="M274.202 20.9657C274.202 20.9657 278.197 26.4845 281.148 25.0857C282.887 24.2761 284.501 23.221 285.939 21.9526L286.121 28.6595C286.121 28.6595 294.668 11.4132 314.108 8.23218C314.108 8.23218 293.374 16.7212 291.218 29.7134" stroke="#868686" stroke-linecap="round" stroke-linejoin="round"/>
<path d="M291.218 29.723L311.004 13.0037C311.004 13.0037 310.132 20.3333 314.558 24.4054" stroke="#868686" stroke-linecap="round" stroke-linejoin="round"/>
<path d="M298.529 29.7518L298.366 23.9167" stroke="#868686" stroke-linecap="round" stroke-linejoin="round"/>
<path d="M303.962 26.9634L303.751 19.26" stroke="#868686" stroke-linecap="round" stroke-linejoin="round"/>
<path d="M308.685 24.4434L308.944 14.7759" stroke="#868686" stroke-linecap="round" stroke-linejoin="round"/>
<path d="M328.768 5.81758C328.768 5.81758 342.105 -6.19736 355.135 5.89423" stroke="#868686" stroke-linecap="round" stroke-linejoin="round"/>
<path d="M331.125 20.5247C331.285 21.4797 331.801 22.3387 332.569 22.9288C333.337 23.5189 334.299 23.7965 335.264 23.7056C335.849 23.646 336.411 23.4389 336.895 23.1039C337.379 22.7688 337.77 22.3166 338.033 21.7894C338.627 20.8792 339.451 20.0839 340.543 21.0229C340.768 21.2535 340.976 21.5001 341.166 21.7606C341.391 22.0799 341.707 22.325 342.072 22.4649C342.437 22.6048 342.835 22.6331 343.216 22.5463C343.599 22.3537 343.951 22.105 344.26 21.8086C344.64 21.5104 345.09 21.3156 345.567 21.2434C346.044 21.1712 346.531 21.224 346.982 21.3966C347.997 21.8277 348.256 22.9583 349.185 23.4949C349.701 23.7648 350.28 23.8905 350.862 23.8589C352.644 23.8589 355.039 22.6996 354.455 20.5438" stroke="#868686" stroke-linecap="round" stroke-linejoin="round"/>
<path d="M332.188 6.29663C335.781 9.32432 337.036 14.9677 334.248 18.9152C333.929 19.3284 333.704 19.8056 333.587 20.3141C333.512 20.7375 333.582 21.1737 333.786 21.5526C333.989 21.9314 334.314 22.2309 334.708 22.4028C334.708 22.4028 336.672 23.8687 338.789 20.8602" stroke="#868686" stroke-linecap="round" stroke-linejoin="round"/>
<path d="M334.967 4.4187C335.091 4.4187 341.597 9.98543 336.816 18.9823" stroke="#868686" stroke-linecap="round" stroke-linejoin="round"/>
<path d="M336.03 21.6173C336.75 21.6173 337.333 21.0339 337.333 20.3143C337.333 19.5946 336.75 19.0112 336.03 19.0112C335.31 19.0112 334.727 19.5946 334.727 20.3143C334.727 21.0339 335.31 21.6173 336.03 21.6173Z" stroke="#868686" stroke-linecap="round" stroke-linejoin="round"/>
<path d="M324.293 17.8806C325.997 17.8806 327.378 16.4993 327.378 14.7954C327.378 13.0915 325.997 11.7102 324.293 11.7102C322.589 11.7102 321.208 13.0915 321.208 14.7954C321.208 16.4993 322.589 17.8806 324.293 17.8806Z" stroke="#868686" stroke-linecap="round" stroke-linejoin="round"/>
<path d="M247.48 209.008L255.538 50.8591" stroke="#868686" stroke-linecap="round" stroke-linejoin="round"/>
<path d="M244.605 209.008L252.663 50.8591" stroke="#868686" stroke-linecap="round" stroke-linejoin="round"/>
<path d="M255.538 209.008L263.586 49.24" stroke="#868686" stroke-linecap="round" stroke-linejoin="round"/>
<path d="M258.604 209.008L266.662 49.24" stroke="#868686" stroke-linecap="round" stroke-linejoin="round"/>
<path d="M277.785 210.474L283.678 45.5417" stroke="#868686" stroke-linecap="round" stroke-linejoin="round"/>
<path d="M274.911 210.512L280.804 46.1355" stroke="#868686" stroke-linecap="round" stroke-linejoin="round"/>
<path d="M285.824 209.717L291.707 43.865" stroke="#868686" stroke-linecap="round" stroke-linejoin="round"/>
<path d="M288.909 210.33L294.773 43.2039" stroke="#868686" stroke-linecap="round" stroke-linejoin="round"/>
<path d="M307.957 212.678L313.533 40.2815" stroke="#868686" stroke-linecap="round" stroke-linejoin="round"/>
<path d="M305.083 212.726L310.668 40.8853" stroke="#868686" stroke-linecap="round" stroke-linejoin="round"/>
<path d="M315.833 213.377L321.562 38.5857" stroke="#868686" stroke-linecap="round" stroke-linejoin="round"/>
<path d="M318.908 213.023L324.619 37.9246" stroke="#868686" stroke-linecap="round" stroke-linejoin="round"/>
<path d="M334.689 213.022L340.006 36.3147" stroke="#868686" stroke-linecap="round" stroke-linejoin="round"/>
<path d="M218.688 209.008L226.746 54.6533" stroke="#868686" stroke-linecap="round" stroke-linejoin="round"/>
<path d="M215.814 209.008L223.872 54.6533" stroke="#868686" stroke-linecap="round" stroke-linejoin="round"/>
<path d="M226.746 209.008L234.794 53.0725" stroke="#868686" stroke-linecap="round" stroke-linejoin="round"/>
<path d="M229.812 209.008L237.87 53.0725" stroke="#868686" stroke-linecap="round" stroke-linejoin="round"/>
<path d="M195.406 115.351L198.663 53.7241" stroke="#868686" stroke-linecap="round" stroke-linejoin="round"/>
<path d="M192.531 115.351L195.789 53.7241" stroke="#868686" stroke-linecap="round" stroke-linejoin="round"/>
<path d="M203.454 115.351L206.721 54.0305" stroke="#868686" stroke-linecap="round" stroke-linejoin="round"/>
<path d="M206.529 116.309L209.787 54.0305" stroke="#868686" stroke-linecap="round" stroke-linejoin="round"/>
<path d="M121.515 209.362C120.633 199.599 121.026 189.52 121.103 179.718C121.167 169.696 121.454 159.671 121.965 149.642C122.3 142.935 122.339 136.286 122.684 129.598" stroke="#868686" stroke-linecap="round" stroke-linejoin="round"/>
<path d="M118.554 209.362C117.673 199.599 118.056 189.52 118.132 179.718C118.209 169.696 118.497 159.671 118.995 149.642C119.33 142.935 119.368 136.286 119.713 129.598" stroke="#868686" stroke-linecap="round" stroke-linejoin="round"/>
<path d="M108.848 211.183C107.967 201.199 108.36 190.88 108.427 180.868C108.503 170.609 108.794 160.354 109.299 150.102C109.624 143.271 109.672 136.439 110.017 129.598" stroke="#868686" stroke-linecap="round" stroke-linejoin="round"/>
<path d="M105.878 211.183C104.997 201.199 105.389 190.88 105.466 180.868C105.543 170.609 105.83 160.354 106.328 150.102C106.664 143.271 106.702 136.439 107.047 129.598" stroke="#868686" stroke-linecap="round" stroke-linejoin="round"/>
<path d="M152.903 208.232C151.801 198.488 151.945 186.482 151.83 176.69C151.689 166.662 151.756 156.634 152.031 146.605C152.213 139.898 152.108 134.149 152.309 127.5" stroke="#868686" stroke-linecap="round" stroke-linejoin="round"/>
<path d="M149.339 127.567C149.147 134.274 149.243 139.975 149.061 146.662C148.78 156.691 148.713 166.722 148.86 176.757C149.003 186.549 148.86 198.555 149.933 208.299" stroke="#868686" stroke-linecap="round" stroke-linejoin="round"/>
<path d="M140.275 208.414C139.173 198.449 139.317 188.13 139.192 178.108C139.039 167.856 139.1 157.598 139.374 147.333C139.556 140.502 139.451 135.577 139.642 128.745" stroke="#868686" stroke-linecap="round" stroke-linejoin="round"/>
<path d="M137.305 208.481C136.212 198.516 136.347 188.197 136.222 178.175C136.069 167.917 136.129 157.659 136.404 147.4C136.586 140.559 136.481 135.644 136.672 128.803" stroke="#868686" stroke-linecap="round" stroke-linejoin="round"/>
<path d="M184.243 208.232C183.142 198.488 183.285 186.482 183.17 176.69C183.017 166.662 183.084 156.633 183.371 146.605C183.554 139.898 183.448 131.275 183.649 124.625" stroke="#868686" stroke-linecap="round" stroke-linejoin="round"/>
<path d="M181.273 208.299C180.181 198.555 180.315 186.549 180.2 176.757C180.053 166.722 180.12 156.691 180.401 146.662C180.583 139.955 180.488 131.332 180.679 124.692" stroke="#868686" stroke-linecap="round" stroke-linejoin="round"/>
<path d="M171.615 208.414C170.513 198.449 170.657 188.13 170.533 178.108C170.379 167.856 170.44 157.598 170.715 147.333C170.897 140.501 170.791 132.702 170.983 125.871" stroke="#868686" stroke-linecap="round" stroke-linejoin="round"/>
<path d="M168.645 208.481C167.543 198.516 167.687 188.197 167.562 178.175C167.409 167.917 167.47 157.659 167.744 147.4C167.926 140.559 167.821 132.77 168.013 125.928" stroke="#868686" stroke-linecap="round" stroke-linejoin="round"/>
<path d="M95.0607 129.129C95.0607 129.129 121.563 130.738 141.367 128.592C161.172 126.446 194.965 122.613 198.663 123.897C202.362 125.181 198.663 138.902 198.663 138.902C198.663 138.902 193.691 176.594 203.454 201.506C203.454 201.506 206.711 209.803 194.16 209.008C181.609 208.213 113.543 206.018 97.6094 213.961C97.6094 213.961 86.7538 216.836 86.4376 213.961C86.1214 211.087 92.5025 197.989 93.1445 193.199C93.7864 188.408 98.213 156.474 95.6931 140.866C93.1732 125.258 95.0607 129.129 95.0607 129.129Z" stroke="#868686" stroke-linecap="round" stroke-linejoin="round"/>
<path d="M94.5147 132.367L85.8916 125.928C85.8916 125.928 78.9451 133.44 81.3405 140.3C83.7358 147.161 87.8078 159.463 87.0892 165.451C86.3706 171.44 81.5321 190.008 80.8327 195.278C80.1332 200.548 75.2276 202.943 75.7067 209.401C76.1857 215.858 75.7067 218.148 75.7067 218.148C75.7067 218.148 96.2202 217.794 102.803 216.711C109.385 215.628 120.288 215.034 157.895 214.68C195.502 214.325 212.029 212.764 214.664 210.608C217.299 208.452 209.155 192.518 209.155 185.093C209.155 177.667 211.071 150.054 213.831 123.677C213.831 123.677 206.606 108.711 188.795 117.305C188.795 117.305 145.918 128.084 138.493 127.011C131.067 125.938 105.207 120.429 95.3387 128.075" stroke="#868686" stroke-linecap="round" stroke-linejoin="round"/>
<path d="M84.4255 127.816L94.7542 134.446" stroke="#868686" stroke-linecap="round" stroke-linejoin="round"/>
<path d="M82.9788 130.441L94.7542 135.769" stroke="#868686" stroke-linecap="round" stroke-linejoin="round"/>
<path d="M81.9248 133.68C82.2506 133.68 94.8021 137.148 94.8021 137.148" stroke="#868686" stroke-linecap="round" stroke-linejoin="round"/>
<path d="M80.8709 137.57L95.377 138.816" stroke="#868686" stroke-linecap="round" stroke-linejoin="round"/>
<path d="M81.7141 141.268L95.6932 140.818" stroke="#868686" stroke-linecap="round" stroke-linejoin="round"/>
<path d="M86.907 214.709L79.8073 218.015" stroke="#868686" stroke-linecap="round" stroke-linejoin="round"/>
<path d="M93.4032 215.236L93.5565 216.855" stroke="#868686" stroke-linecap="round" stroke-linejoin="round"/>
<path d="M98.1747 213.693L97.8298 216.855" stroke="#868686" stroke-linecap="round" stroke-linejoin="round"/>
<path d="M101.72 212.419V216.366" stroke="#868686" stroke-linecap="round" stroke-linejoin="round"/>
<path d="M105.581 211.47L107.526 216.079" stroke="#868686" stroke-linecap="round" stroke-linejoin="round"/>
<path d="M108.819 210.867L112.02 215.725" stroke="#868686" stroke-linecap="round" stroke-linejoin="round"/>
<path d="M86.4185 212.725L75.9365 214.939" stroke="#868686" stroke-linecap="round" stroke-linejoin="round"/>
<path d="M87.6735 209.084C87.2711 209.084 75.7736 209.362 75.7736 209.362" stroke="#868686" stroke-linecap="round" stroke-linejoin="round"/>
<path d="M90.2605 202.157L79.8073 198.833" stroke="#868686" stroke-linecap="round" stroke-linejoin="round"/>
<path d="M91.784 198.057L81.1009 193.774" stroke="#868686" stroke-linecap="round" stroke-linejoin="round"/>
<path d="M115.316 210.263C115.498 210.33 117.979 215.724 117.979 215.724" stroke="#868686" stroke-linecap="round" stroke-linejoin="round"/>
<path d="M120.652 209.727L121.543 215.667" stroke="#868686" stroke-linecap="round" stroke-linejoin="round"/>
<path d="M126.813 208.96L127.474 215.111" stroke="#868686" stroke-linecap="round" stroke-linejoin="round"/>
<path d="M198.663 123.897L207.833 117.124" stroke="#868686" stroke-linecap="round" stroke-linejoin="round"/>
<path d="M200.292 127.5L213.83 123.639" stroke="#868686" stroke-linecap="round" stroke-linejoin="round"/>
<path d="M200.148 131.045L213.217 129.598" stroke="#868686" stroke-linecap="round" stroke-linejoin="round"/>
<path d="M195.406 123.639L198.663 114.613" stroke="#868686" stroke-linecap="round" stroke-linejoin="round"/>
<path d="M200.148 125.536C200.771 124.97 211.646 120.467 211.646 120.467" stroke="#868686" stroke-linecap="round" stroke-linejoin="round"/>
<path d="M203.454 115.351L197.034 123.897" stroke="#868686" stroke-linecap="round" stroke-linejoin="round"/>
<path d="M98.28 126.35L100.762 129.454" stroke="#868686" stroke-linecap="round" stroke-linejoin="round"/>
<path d="M101.969 125.134L103.521 129.455" stroke="#868686" stroke-linecap="round" stroke-linejoin="round"/>
<path d="M107.047 124.31L106.185 129.455" stroke="#868686" stroke-linecap="round" stroke-linejoin="round"/>
<path d="M110.285 124.108L110.764 129.455" stroke="#868686" stroke-linecap="round" stroke-linejoin="round"/>
<path d="M123.163 125.134L122.147 129.455" stroke="#868686" stroke-linecap="round" stroke-linejoin="round"/>
<path d="M127.302 125.229L126.401 129.598" stroke="#868686" stroke-linecap="round" stroke-linejoin="round"/>
<path d="M136.145 126.781L134.421 129.455" stroke="#868686" stroke-linecap="round" stroke-linejoin="round"/>
<path d="M140.275 127.145L138.857 128.745" stroke="#868686" stroke-linecap="round" stroke-linejoin="round"/>
<path d="M151.437 125.565V127.289" stroke="#868686" stroke-linecap="round" stroke-linejoin="round"/>
<path d="M156.055 124.692V127.001" stroke="#868686" stroke-linecap="round" stroke-linejoin="round"/>
<path d="M160.587 124.108V126.427" stroke="#868686" stroke-linecap="round" stroke-linejoin="round"/>
<path d="M165.713 122.681L165.263 125.929" stroke="#868686" stroke-linecap="round" stroke-linejoin="round"/>
<path d="M171.318 121.425L169.804 125.564" stroke="#868686" stroke-linecap="round" stroke-linejoin="round"/>
<path d="M182.797 118.743L181.666 124.463" stroke="#868686" stroke-linecap="round" stroke-linejoin="round"/>
<path d="M187.741 117.535L186.342 124.089" stroke="#868686" stroke-linecap="round" stroke-linejoin="round"/>
<path d="M192.531 115.744L190.529 123.898" stroke="#868686" stroke-linecap="round" stroke-linejoin="round"/>
<path d="M199.66 134.389L212.662 135.366" stroke="#868686" stroke-linecap="round" stroke-linejoin="round"/>
<path d="M198.855 138.164L212.163 140.741" stroke="#868686" stroke-linecap="round" stroke-linejoin="round"/>
<path d="M198.108 144.334L211.646 146.567" stroke="#868686" stroke-linecap="round" stroke-linejoin="round"/>
<path d="M200.292 190.995L209.337 189.549" stroke="#868686" stroke-linecap="round" stroke-linejoin="round"/>
<path d="M203.598 205.319L214.98 210.129" stroke="#868686" stroke-linecap="round" stroke-linejoin="round"/>
<path d="M203.607 201.937C204.431 201.88 214.348 204.39 214.348 204.39" stroke="#868686" stroke-linecap="round" stroke-linejoin="round"/>
<path d="M202.793 199.733L212.585 198.842" stroke="#868686" stroke-linecap="round" stroke-linejoin="round"/>
<path d="M201.691 196.341C201.691 196.485 211.014 193.984 211.014 193.984" stroke="#868686" stroke-linecap="round" stroke-linejoin="round"/>
<path d="M199.248 185.677L208.963 184.154" stroke="#868686" stroke-linecap="round" stroke-linejoin="round"/>
<path d="M198.395 179.66C198.395 179.747 209.404 177.744 209.404 177.744" stroke="#868686" stroke-linecap="round" stroke-linejoin="round"/>
<path d="M197.715 171.948L209.902 169.437" stroke="#868686" stroke-linecap="round" stroke-linejoin="round"/>
<path d="M197.715 176.249C198.04 176.249 209.404 173.135 209.404 173.135" stroke="#868686" stroke-linecap="round" stroke-linejoin="round"/>
<path d="M197.715 151.281C198.021 151.281 211.129 152.67 211.129 152.67" stroke="#868686" stroke-linecap="round" stroke-linejoin="round"/>
<path d="M197.446 156.675L210.726 157.921" stroke="#868686" stroke-linecap="round" stroke-linejoin="round"/>
<path d="M197.427 164.397L210.324 163.324" stroke="#868686" stroke-linecap="round" stroke-linejoin="round"/>
<path d="M201.729 207.724L205.504 212.706" stroke="#868686" stroke-linecap="round" stroke-linejoin="round"/>
<path d="M197.274 209.008L198.395 213.348" stroke="#868686" stroke-linecap="round" stroke-linejoin="round"/>
<path d="M192.991 208.941V213.693" stroke="#868686" stroke-linecap="round" stroke-linejoin="round"/>
<path d="M183.094 208.481L180.698 214.201" stroke="#868686" stroke-linecap="round" stroke-linejoin="round"/>
<path d="M132.025 208.663L133.108 214.939" stroke="#868686" stroke-linecap="round" stroke-linejoin="round"/>
<path d="M138.732 208.663V214.881" stroke="#868686" stroke-linecap="round" stroke-linejoin="round"/>
<path d="M144.06 208.663L144.778 214.786" stroke="#868686" stroke-linecap="round" stroke-linejoin="round"/>
<path d="M150.766 208.299L150.354 214.709" stroke="#868686" stroke-linecap="round" stroke-linejoin="round"/>
<path d="M161.727 208.117L161.363 214.603" stroke="#868686" stroke-linecap="round" stroke-linejoin="round"/>
<path d="M167.476 208.232L166.7 214.421" stroke="#868686" stroke-linecap="round" stroke-linejoin="round"/>
<path d="M82.5092 187.057L93.0487 193.774" stroke="#868686" stroke-linecap="round" stroke-linejoin="round"/>
<path d="M83.4003 146.308L96.038 143.395" stroke="#868686" stroke-linecap="round" stroke-linejoin="round"/>
<path d="M85.3741 151.817L96.3735 147.86" stroke="#868686" stroke-linecap="round" stroke-linejoin="round"/>
<path d="M86.4184 156.071L96.4788 152.718" stroke="#868686" stroke-linecap="round" stroke-linejoin="round"/>
<path d="M86.9262 166.697L96.1818 162.96" stroke="#868686" stroke-linecap="round" stroke-linejoin="round"/>
<path d="M86.4184 170.865L95.8081 168.642" stroke="#868686" stroke-linecap="round" stroke-linejoin="round"/>
<path d="M85.077 175.742L95.3769 173.864" stroke="#868686" stroke-linecap="round" stroke-linejoin="round"/>
<path d="M84.2435 179.459H94.8212" stroke="#868686" stroke-linecap="round" stroke-linejoin="round"/>
<path d="M83.4003 183.119L94.0643 186.099" stroke="#868686" stroke-linecap="round" stroke-linejoin="round"/>
<path d="M179.482 208.414L176.531 214.201" stroke="#868686" stroke-linecap="round" stroke-linejoin="round"/>
<path d="M75.7065 216.558C75.7065 216.558 29.3427 231.419 27.2252 234.13" stroke="#868686" stroke-linecap="round" stroke-linejoin="round"/>
<path d="M3.51147 162.903C3.51147 162.903 4.83369 151.808 14.7312 151.808C24.3125 151.808 28.3078 155.774 31.3451 164.819C34.3824 173.864 31.3451 231.888 31.3451 231.888" stroke="#868686" stroke-linecap="round" stroke-linejoin="round"/>
<path d="M69.0764 142.15C69.0764 142.15 76.3869 141.958 81.877 158.17C85.7957 169.734 84.9046 176.537 84.9046 176.537" stroke="#868686" stroke-linecap="round" stroke-linejoin="round"/>
<path d="M65.1768 141.498C65.1768 141.498 74.5089 143.28 78.6576 159.885C82.9788 177.131 82.0015 189.127 82.0015 189.127" stroke="#868686" stroke-linecap="round" stroke-linejoin="round"/>
<path d="M57.0135 140.387C59.5547 141.067 61.9314 142.256 63.9999 143.882C66.0683 145.507 67.7856 147.535 69.0476 149.843C73.4359 157.748 75.7545 178.348 75.7545 178.348L77.3163 202.809L89.0151 205.425" stroke="#868686" stroke-linecap="round" stroke-linejoin="round"/>
<path d="M52.376 139.956C55.6764 140.679 58.7386 142.23 61.2745 144.462C63.8105 146.695 65.7369 149.536 66.8725 152.718C70.8296 163.737 73.0141 175.713 73.0141 216.51" stroke="#868686" stroke-linecap="round" stroke-linejoin="round"/>
<path d="M55.4038 223.265C55.4038 223.265 44.5961 226.542 43.9062 237.8V264.628" stroke="#868686" stroke-linecap="round" stroke-linejoin="round"/>
<path d="M76.4539 218.11C76.4539 218.11 56.8123 226.024 57.6554 237.752C58.1271 246.873 58.1271 256.013 57.6554 265.135V270.299" stroke="#868686" stroke-linecap="round" stroke-linejoin="round"/>
<path d="M61.1238 265.058V237.752C62.4756 232.766 65.2221 228.269 69.0408 224.79C72.8595 221.311 77.5917 218.993 82.6817 218.11" stroke="#868686" stroke-linecap="round" stroke-linejoin="round"/>
<path d="M71.9027 265.48V237.761C74.5618 229.631 79.8377 222.61 86.907 217.794L88.2963 215.274" stroke="#868686" stroke-linecap="round" stroke-linejoin="round"/>
<path d="M90.2605 217.65C90.2605 217.65 73.704 230.221 75.1412 237.771L75.7065 265.145" stroke="#868686" stroke-linecap="round" stroke-linejoin="round"/>
<path d="M90.2606 265.93V237.761C90.2606 237.761 90.8259 222.958 108.82 215.954" stroke="#868686" stroke-linecap="round" stroke-linejoin="round"/>
<path d="M93.6428 266.007V237.263C93.6428 237.263 96.4597 221.818 111.186 215.945" stroke="#868686" stroke-linecap="round" stroke-linejoin="round"/>
<path d="M104.594 266.275V237.761C104.594 237.761 104.814 225.152 120.949 215.724" stroke="#868686" stroke-linecap="round" stroke-linejoin="round"/>
<path d="M108.283 265.93V237.761C108.283 237.761 111.905 221.55 125.319 215.111" stroke="#868686" stroke-linecap="round" stroke-linejoin="round"/>
<path d="M124.61 266.764L123.881 237.761C123.881 237.761 122.808 227.222 139.69 215.111" stroke="#868686" stroke-linecap="round" stroke-linejoin="round"/>
<path d="M128.317 266.85L127.148 237.273C127.148 237.273 132.753 218.829 145.449 214.881" stroke="#868686" stroke-linecap="round" stroke-linejoin="round"/>
<path d="M138.732 267.109L138.253 237.273C138.253 237.273 144.481 217.152 154.062 214.393" stroke="#868686" stroke-linecap="round" stroke-linejoin="round"/>
<path d="M141.971 267.186L141.492 237.771C141.492 237.771 148.199 217.535 156.458 214.776L155.864 208.222" stroke="#868686" stroke-linecap="round" stroke-linejoin="round"/>
<path d="M1.6048 159.243C1.79642 158.342 3.76059 145.417 15.8522 145.656C20.9898 145.86 25.8603 147.999 29.4863 151.645C33.5967 155.698 34.9764 160.91 34.8327 166.553C34.8327 166.668 34.8327 166.783 34.8327 166.898C34.6986 171.305 34.1716 175.732 33.9608 180.13C33.5584 188.398 33.2231 196.696 32.4086 204.936" stroke="#868686" stroke-linecap="round" stroke-linejoin="round"/>
<path d="M6.23273 144.746C10.5443 142.6 15.814 141.402 20.6047 142.351C26.9954 143.615 34.7945 149.374 37.439 155.362C40.3996 162.069 38.5887 170.855 38.3396 178.051C38.1097 184.499 37.9276 190.937 37.7264 197.386V198.497C37.3528 209.036 37.7264 219.308 34.3538 229.435C34.2055 229.961 33.9794 230.461 33.6831 230.92C33.3934 231.268 33.0727 231.589 32.725 231.878C31.137 233.435 30.1582 235.508 29.9656 237.723C29.6111 242.274 29.9656 264.435 29.9656 264.435H39.3073L40.1505 237.129C40.1505 237.129 43.2357 225.89 48.2179 225.631" stroke="#868686" stroke-linecap="round" stroke-linejoin="round"/>
<path d="M44.7206 139.649C44.7206 139.649 61.4879 140.387 63.7587 161.82C65.3875 177.15 65.7899 196.485 65.8857 206.21C65.9318 210.744 65.1994 215.252 63.7203 219.538C63.6112 219.864 63.4832 220.184 63.3371 220.496" stroke="#868686" stroke-linecap="round" stroke-linejoin="round"/>
<path d="M40.1408 139.649C40.1408 139.649 55.1355 139.649 59.3034 157.394C63.4712 175.138 63.7204 216.079 58.9297 222.029" stroke="#868686" stroke-linecap="round" stroke-linejoin="round"/>
<path d="M6.23268 164.819C6.23268 164.819 13.2558 182.353 13.2558 190.411C13.2558 198.469 4.31642 231.045 5.15 276.92C5.98357 322.795 16.6475 342.552 17.1266 349.106C17.4499 353.17 17.0904 357.261 16.0631 361.207C14.7696 366.064 11.8761 370.261 9.93106 374.86C7.85192 379.804 9.57655 382.784 11.5503 387.642C11.6725 388.045 11.9048 388.407 12.221 388.686C12.658 388.94 13.166 389.044 13.6678 388.983L18.9471 388.935C19.302 388.957 19.6577 388.905 19.9914 388.782C20.297 388.619 20.5673 388.398 20.7867 388.13C23.7856 384.901 27.2349 382.257 28.9212 378.635C30.9812 374.189 29.7547 368.795 30.0613 363.909C30.8763 351.407 30.6359 338.859 29.3428 326.398C28.8062 321.387 28.1834 316.213 26.5546 311.413C20.6429 294.013 26.2288 278.999 62.0054 287.939C97.7819 296.878 120.451 298.804 145.449 297.041C170.446 295.278 212.585 284.106 222.329 287.939C232.073 291.771 235.101 304.706 236.538 340.32C236.835 347.668 237.142 355.046 236.941 362.404C237.022 366.319 236.133 370.194 234.354 373.682C233.266 375.954 232.863 378.494 233.194 380.992C233.597 384.001 235.053 383.867 236.557 386.54C236.901 387.256 237.394 387.89 238.004 388.398C238.732 388.945 246.627 388.772 246.848 388.398C248.524 385.342 251.178 384.25 251.437 380.733C251.677 377.361 250.259 373.682 250.096 370.29C249.933 366.898 249.818 363.688 249.664 360.383C249.166 349.489 248.706 338.585 248.457 327.682C248.285 319.624 247.336 310.541 249.157 302.608C251.389 292.863 263.691 283.598 285.728 289.51C307.765 295.422 339.537 298.449 354.388 298.296" stroke="#868686" stroke-linecap="round" stroke-linejoin="round"/>
<path d="M214.856 209.008C214.856 209.008 232.83 208.328 248.084 209.008C251.839 209.18 255.998 208.883 259.581 209.008C270.005 209.362 276.272 211.489 277.441 210.867C280.631 209.171 286.064 209.152 301.078 212.036C316.091 214.92 408.388 211.882 416.369 209.727" stroke="#868686" stroke-linecap="round" stroke-linejoin="round"/>
<path d="M94.965 124.309L98.4238 122.46" stroke="#868686" stroke-linecap="round" stroke-linejoin="round"/>
<path d="M94.0068 118.743L97.6094 117.124" stroke="#868686" stroke-linecap="round" stroke-linejoin="round"/>
<path d="M93.0487 113.511L96.3734 111.863" stroke="#868686" stroke-linecap="round" stroke-linejoin="round"/>
<path d="M91.7552 108.088L94.965 107.111" stroke="#868686" stroke-linecap="round" stroke-linejoin="round"/>
<path d="M89.724 103.442L93.3553 102.292" stroke="#868686" stroke-linecap="round" stroke-linejoin="round"/>
<path d="M85.9202 125.928L94.7541 128.439" stroke="#868686" stroke-linecap="round" stroke-linejoin="round"/>
<path d="M27.8194 140.071C27.8194 140.071 49.703 145.656 50.3066 162.96C50.9103 180.264 49.5976 213.827 49.5976 213.827C49.5976 213.827 48.3042 225.603 44.0596 227.097" stroke="#868686" stroke-linecap="round" stroke-linejoin="round"/>
<path d="M51.3126 224.606C51.3126 224.606 54.8194 221.023 54.417 210.234C54.0145 199.446 55.2984 164.695 54.3403 159.856C53.4288 155.011 51.1344 150.533 47.7341 146.962C44.3338 143.392 39.9729 140.882 35.1777 139.735" stroke="#868686" stroke-linecap="round" stroke-linejoin="round"/>
<path d="M15.6894 388.916C16.9733 387.421 22.7987 374.889 22.7987 374.889C22.7987 374.889 25.4336 368.421 25.3186 356.32C25.2036 344.219 18.9662 308.653 18.9662 308.653C18.9662 308.653 13.2174 276.92 49.0323 282.065C84.8471 287.21 85.0771 292.729 122.808 293.084C145.662 293.284 168.458 290.752 190.711 285.543C190.711 285.543 231.316 274.046 236.701 299.197C240.754 318.091 241.616 341.738 241.329 352.315C241.243 355.314 241.252 358.313 241.329 361.312C241.405 365.595 240.917 372.608 237.18 374.889C237.18 374.889 233.252 379.239 240.792 388.686" stroke="#868686" stroke-linecap="round" stroke-linejoin="round"/>
<path d="M417.5 286.501C395.247 291.71 372.451 294.242 349.597 294.042C334.952 293.996 320.359 292.29 306.098 288.954C287.405 284.499 253.459 274.103 245.372 300.059C242.881 308.078 244.117 316.653 244.098 324.893C244.098 338.307 243.906 352.008 244.529 365.422C244.701 369.168 243.81 373.164 247.317 374.889C247.317 374.889 252.29 377.15 244.5 388.657" stroke="#868686" stroke-linecap="round" stroke-linejoin="round"/>
<path d="M116.715 288.513C119.186 288.513 121.189 286.51 121.189 284.039C121.189 281.568 119.186 279.564 116.715 279.564C114.243 279.564 112.24 281.568 112.24 284.039C112.24 286.51 114.243 288.513 116.715 288.513Z" stroke="#868686" stroke-linecap="round" stroke-linejoin="round"/>
<path d="M67.141 278.118C68.8819 278.118 70.2932 276.707 70.2932 274.966C70.2932 273.225 68.8819 271.813 67.141 271.813C65.4 271.813 63.9887 273.225 63.9887 274.966C63.9887 276.707 65.4 278.118 67.141 278.118Z" stroke="#868686" stroke-linecap="round" stroke-linejoin="round"/>
<path d="M136.117 288.878C138.588 288.878 140.591 286.874 140.591 284.403C140.591 281.932 138.588 279.929 136.117 279.929C133.645 279.929 131.642 281.932 131.642 284.403C131.642 286.874 133.645 288.878 136.117 288.878Z" stroke="#868686" stroke-linecap="round" stroke-linejoin="round"/>
<path d="M112.585 285.783C112.585 285.783 112.115 287.785 106.731 287.565C101.346 287.345 109.299 277.026 109.299 277.026C102.256 280.37 104.508 287.364 100.369 286.846C96.2297 286.329 102.611 277.744 102.611 277.744C97.5615 278.607 97.5423 286.032 93.2116 286.664C88.8808 287.297 95.6356 279.124 95.6356 279.124L89.4653 285.16C83.7165 287.45 84.6746 284.202 84.6746 284.202L91.257 279.775C82.8159 281.855 74.9113 283.915 66.2115 282.267C64.1994 281.883 50.8814 279.622 52.3857 275.799C53.8899 271.976 63.9982 274.046 63.9982 274.046C62.7431 274.199 61.4879 274.41 60.2519 274.678C59.1692 274.908 55.4038 275.694 57.0901 277.553C57.8183 278.348 59.2555 278.683 60.2519 278.99C62.4438 279.59 64.691 279.965 66.9588 280.111C70.1684 280.467 73.4016 280.56 76.6263 280.389C78.5426 280.255 80.4589 280.082 82.3751 279.9C86.5334 279.507 90.6821 279.057 94.8308 278.597L106.386 277.246L112.135 276.547H112.202C112.202 276.547 117.634 274.63 120.26 281.261" stroke="#868686" stroke-linecap="round" stroke-linejoin="round"/>
<path d="M69.6416 276.92C69.6416 276.92 79.4528 279.919 107.967 274.458C107.967 274.458 123.46 272.34 122.818 280.839C122.176 289.338 116.647 288.504 116.647 288.504" stroke="#868686" stroke-linecap="round" stroke-linejoin="round"/>
<path d="M98.6346 278.146C98.6346 278.146 91.5732 284.978 95.2907 285.17" stroke="#868686" stroke-linecap="round" stroke-linejoin="round"/>
<path d="M104.92 277.409C104.92 277.409 98.8262 285.074 102.908 285.313" stroke="#868686" stroke-linecap="round" stroke-linejoin="round"/>
<path d="M116.005 279.622C116.005 279.622 111.263 279.689 109.212 282.132C107.162 284.575 112.24 283.953 112.24 283.953C112.24 283.953 108.407 286.827 107.162 284.575C105.916 282.324 110.86 275.799 114.951 278.012C119.043 280.226 116.801 279.564 116.801 279.564" stroke="#868686" stroke-linecap="round" stroke-linejoin="round"/>
<path d="M186.418 279.957C188.159 279.957 189.571 278.546 189.571 276.805C189.571 275.064 188.159 273.653 186.418 273.653C184.677 273.653 183.266 275.064 183.266 276.805C183.266 278.546 184.677 279.957 186.418 279.957Z" stroke="#868686" stroke-linecap="round" stroke-linejoin="round"/>
<path d="M140.581 285.888C140.581 285.888 140.974 287.91 146.33 287.891C151.686 287.872 144.203 277.303 144.203 277.303C151.111 280.916 148.649 287.843 152.759 287.45C156.87 287.057 150.843 278.271 150.843 278.271C155.854 279.325 155.634 286.751 159.888 287.546C164.142 288.341 157.761 279.881 157.761 279.881L163.691 286.147C169.335 288.648 168.559 285.4 168.559 285.4L162.168 280.753C174.135 284.183 185.211 286.31 197.293 281.711C201.863 279.967 202.208 277.073 197.427 275.885C194.965 275.263 192.071 275.617 189.59 276C189.59 276 199.391 277.629 195.655 278.875C191.918 280.12 186.888 282.803 177.354 281.893C167.821 280.983 141.329 276.652 141.329 276.652C141.329 276.652 135.982 274.534 133.098 281.059" stroke="#868686" stroke-linecap="round" stroke-linejoin="round"/>
<path d="M183.841 278.625C183.841 278.625 173.924 281.251 145.66 274.716C145.66 274.716 130.262 272.014 130.579 280.523C130.895 289.031 136.452 288.456 136.452 288.456" stroke="#868686" stroke-linecap="round" stroke-linejoin="round"/>
<path d="M154.829 278.836C154.829 278.836 161.622 285.927 157.904 285.984" stroke="#868686" stroke-linecap="round" stroke-linejoin="round"/>
<path d="M148.534 277.811C148.534 277.811 154.283 285.725 150.249 285.783" stroke="#868686" stroke-linecap="round" stroke-linejoin="round"/>
<path d="M137.42 279.603C137.42 279.603 142.153 279.852 144.127 282.372C146.1 284.892 141.032 284.077 141.032 284.077C141.032 284.077 144.788 287.057 146.081 284.892C147.375 282.726 142.718 275.981 138.55 278.041C134.382 280.101 136.634 279.517 136.634 279.517" stroke="#868686" stroke-linecap="round" stroke-linejoin="round"/>
<path d="M128.662 281.395C126.085 283.771 131.642 284.317 130.406 287.048C129.17 289.778 124.552 289.817 123.766 286.923C122.981 284.029 129.055 285.706 124.82 281.328C120.585 276.949 127.081 276.106 127.081 276.106C127.081 276.106 133.463 276.968 128.662 281.395Z" stroke="#868686" stroke-linecap="round" stroke-linejoin="round"/>
<path d="M26.018 255.18C26.018 255.18 18.4871 268.594 27.2252 269.849C35.9634 271.104 353.075 271.986 353.075 271.986" stroke="#868686" stroke-linecap="round" stroke-linejoin="round"/>
<path d="M27.5222 260.335L24.7341 268.901" stroke="#868686" stroke-linecap="round" stroke-linejoin="round"/>
<path d="M29.9847 264.465L28.0014 269.916" stroke="#868686" stroke-linecap="round" stroke-linejoin="round"/>
<path d="M34.8999 264.618L33.2806 270.108" stroke="#868686" stroke-linecap="round" stroke-linejoin="round"/>
<path d="M38.7323 264.465L38.1287 269.916" stroke="#868686" stroke-linecap="round" stroke-linejoin="round"/>
<path d="M43.3409 265.058V270.299" stroke="#868686" stroke-linecap="round" stroke-linejoin="round"/>
<path d="M48.007 265.135L48.237 270.376" stroke="#868686" stroke-linecap="round" stroke-linejoin="round"/>
<path d="M53.2768 265.03C53.5163 265.298 53.2768 270.299 53.2768 270.299" stroke="#868686" stroke-linecap="round" stroke-linejoin="round"/>
<path d="M62.0819 265.241L62.561 270.376" stroke="#868686" stroke-linecap="round" stroke-linejoin="round"/>
<path d="M66.5756 265.346L67.0355 270.376" stroke="#868686" stroke-linecap="round" stroke-linejoin="round"/>
<path d="M71.0021 265.48L71.3087 270.625" stroke="#868686" stroke-linecap="round" stroke-linejoin="round"/>
<path d="M75.6491 265.241L76.1281 270.376" stroke="#868686" stroke-linecap="round" stroke-linejoin="round"/>
<path d="M80.2001 266.026L80.6026 270.376" stroke="#868686" stroke-linecap="round" stroke-linejoin="round"/>
<path d="M84.6171 266.275L84.8662 270.625" stroke="#868686" stroke-linecap="round" stroke-linejoin="round"/>
<path d="M90.1264 265.93L90.6055 270.405" stroke="#868686" stroke-linecap="round" stroke-linejoin="round"/>
<path d="M94.6104 266.026L95.0799 270.405" stroke="#868686" stroke-linecap="round" stroke-linejoin="round"/>
<path d="M99.0466 266.132L99.3436 270.625" stroke="#868686" stroke-linecap="round" stroke-linejoin="round"/>
<path d="M104.594 265.93L105.073 270.405" stroke="#868686" stroke-linecap="round" stroke-linejoin="round"/>
<path d="M109.327 266.764L109.711 270.405" stroke="#868686" stroke-linecap="round" stroke-linejoin="round"/>
<path d="M113.543 266.496L113.821 270.625" stroke="#868686" stroke-linecap="round" stroke-linejoin="round"/>
<path d="M118.698 266.889L119.1 270.625" stroke="#868686" stroke-linecap="round" stroke-linejoin="round"/>
<path d="M123.191 266.984L123.661 271.363" stroke="#868686" stroke-linecap="round" stroke-linejoin="round"/>
<path d="M127.618 267.09L127.925 271.142" stroke="#868686" stroke-linecap="round" stroke-linejoin="round"/>
<path d="M131.776 266.764L132.246 271.143" stroke="#868686" stroke-linecap="round" stroke-linejoin="round"/>
<path d="M135.982 267.09L136.279 271.095" stroke="#868686" stroke-linecap="round" stroke-linejoin="round"/>
<path d="M141.156 266.889L141.635 271.363" stroke="#868686" stroke-linecap="round" stroke-linejoin="round"/>
<path d="M145.65 266.984L146.11 271.363" stroke="#868686" stroke-linecap="round" stroke-linejoin="round"/>
<path d="M150.077 267.09L150.383 271.142" stroke="#868686" stroke-linecap="round" stroke-linejoin="round"/>
<path d="M155.212 266.707L155.509 271.2" stroke="#868686" stroke-linecap="round" stroke-linejoin="round"/>
<path d="M160.386 266.889L160.865 271.363" stroke="#868686" stroke-linecap="round" stroke-linejoin="round"/>
<path d="M164.88 266.984L165.349 271.363" stroke="#868686" stroke-linecap="round" stroke-linejoin="round"/>
<path d="M169.306 267.09L169.613 271.142" stroke="#868686" stroke-linecap="round" stroke-linejoin="round"/>
<path d="M173.464 266.764L173.934 271.143" stroke="#868686" stroke-linecap="round" stroke-linejoin="round"/>
<path d="M177.671 267.09L177.968 271.095" stroke="#868686" stroke-linecap="round" stroke-linejoin="round"/>
<path d="M182.844 266.889L183.324 271.363" stroke="#868686" stroke-linecap="round" stroke-linejoin="round"/>
<path d="M187.338 266.984L187.798 271.363" stroke="#868686" stroke-linecap="round" stroke-linejoin="round"/>
<path d="M191.765 267.09L192.071 271.142" stroke="#868686" stroke-linecap="round" stroke-linejoin="round"/>
<path d="M196.431 267.09L196.737 271.142" stroke="#868686" stroke-linecap="round" stroke-linejoin="round"/>
<path d="M200.589 266.764L201.059 271.143" stroke="#868686" stroke-linecap="round" stroke-linejoin="round"/>
<path d="M204.795 267.09L205.092 271.095" stroke="#868686" stroke-linecap="round" stroke-linejoin="round"/>
<path d="M209.969 266.889L210.448 271.363" stroke="#868686" stroke-linecap="round" stroke-linejoin="round"/>
<path d="M214.463 266.984L214.923 271.363" stroke="#868686" stroke-linecap="round" stroke-linejoin="round"/>
<path d="M218.889 267.09L219.196 271.142" stroke="#868686" stroke-linecap="round" stroke-linejoin="round"/>
<path d="M223.383 267.09L223.69 271.142" stroke="#868686" stroke-linecap="round" stroke-linejoin="round"/>
<path d="M227.541 266.764L228.011 271.143" stroke="#868686" stroke-linecap="round" stroke-linejoin="round"/>
<path d="M231.738 267.09L232.044 271.095" stroke="#868686" stroke-linecap="round" stroke-linejoin="round"/>
<path d="M236.921 266.889L237.4 271.363" stroke="#868686" stroke-linecap="round" stroke-linejoin="round"/>
<path d="M241.415 266.984L241.875 271.363" stroke="#868686" stroke-linecap="round" stroke-linejoin="round"/>
<path d="M245.841 267.09L246.138 271.142" stroke="#868686" stroke-linecap="round" stroke-linejoin="round"/>
<path d="M251.082 267.109L251.389 271.363" stroke="#868686" stroke-linecap="round" stroke-linejoin="round"/>
<path d="M255.241 266.764L255.71 271.363" stroke="#868686" stroke-linecap="round" stroke-linejoin="round"/>
<path d="M259.447 267.109L259.744 271.315" stroke="#868686" stroke-linecap="round" stroke-linejoin="round"/>
<path d="M264.621 266.889L265.1 271.363" stroke="#868686" stroke-linecap="round" stroke-linejoin="round"/>
<path d="M269.115 266.984L269.574 271.363" stroke="#868686" stroke-linecap="round" stroke-linejoin="round"/>
<path d="M273.541 267.109L273.848 271.363" stroke="#868686" stroke-linecap="round" stroke-linejoin="round"/>
<path d="M278.562 267.109L278.868 271.363" stroke="#868686" stroke-linecap="round" stroke-linejoin="round"/>
<path d="M282.72 266.764L283.189 271.363" stroke="#868686" stroke-linecap="round" stroke-linejoin="round"/>
<path d="M286.926 267.109L287.223 271.315" stroke="#868686" stroke-linecap="round" stroke-linejoin="round"/>
<path d="M292.1 266.889L292.579 271.363" stroke="#868686" stroke-linecap="round" stroke-linejoin="round"/>
<path d="M296.594 266.984L297.053 271.363" stroke="#868686" stroke-linecap="round" stroke-linejoin="round"/>
<path d="M301.02 267.109L301.317 271.363" stroke="#868686" stroke-linecap="round" stroke-linejoin="round"/>
<path d="M27.5222 230.585C28.3079 230.25 31.4985 228.803 31.4985 228.803" stroke="#868686" stroke-linecap="round" stroke-linejoin="round"/>
<path d="M27.8194 226.781L31.4986 225.296" stroke="#868686" stroke-linecap="round" stroke-linejoin="round"/>
<path d="M28.0014 223.217L31.7956 222.029" stroke="#868686" stroke-linecap="round" stroke-linejoin="round"/>
<path d="M28.3463 219.538L31.9584 218.11" stroke="#868686" stroke-linecap="round" stroke-linejoin="round"/>
<path d="M28.8445 215.562L32.0829 214.709" stroke="#868686" stroke-linecap="round" stroke-linejoin="round"/>
<path d="M28.8445 211.777L31.7955 211.183" stroke="#868686" stroke-linecap="round" stroke-linejoin="round"/>
<path d="M4.42184 159.885L6.39559 161.082" stroke="#868686" stroke-linecap="round" stroke-linejoin="round"/>
<path d="M6.24231 156.071L7.94778 158.17" stroke="#868686" stroke-linecap="round" stroke-linejoin="round"/>
<path d="M8.78116 153.532L10.0267 156.522" stroke="#868686" stroke-linecap="round" stroke-linejoin="round"/>
<path d="M12.815 151.97L13.457 155.027" stroke="#868686" stroke-linecap="round" stroke-linejoin="round"/>
<path d="M16.6475 151.97V155.238" stroke="#868686" stroke-linecap="round" stroke-linejoin="round"/>
<path d="M21.3903 152.718L20.001 155.238" stroke="#868686" stroke-linecap="round" stroke-linejoin="round"/>
<path d="M24.7342 155.027L22.9999 157.212" stroke="#868686" stroke-linecap="round" stroke-linejoin="round"/>
<path d="M27.8194 157.921L25.539 159.243" stroke="#868686" stroke-linecap="round" stroke-linejoin="round"/>
<path d="M29.9846 161.303H27.5222" stroke="#868686" stroke-linecap="round" stroke-linejoin="round"/>
<path d="M31.3452 164.829H28.7582" stroke="#868686" stroke-linecap="round" stroke-linejoin="round"/>
<path d="M31.7955 168.642L28.7582 168.086" stroke="#868686" stroke-linecap="round" stroke-linejoin="round"/>
<path d="M31.9584 172.906H29.4481" stroke="#868686" stroke-linecap="round" stroke-linejoin="round"/>
<path d="M158.134 266.85V237.704C158.134 237.704 162.609 218.11 171.788 214.201L175.084 208.452" stroke="#868686" stroke-linecap="round" stroke-linejoin="round"/>
<path d="M161.727 266.85V237.771C161.727 237.771 169.603 214.776 175.227 214.354" stroke="#868686" stroke-linecap="round" stroke-linejoin="round"/>
<path d="M172.344 266.85V237.704C172.344 237.704 176.895 217.823 185.202 214.201C186.16 213.78 186.859 213.607 187.309 212.649L189.293 208.414" stroke="#868686" stroke-linecap="round" stroke-linejoin="round"/>
<path d="M175.936 266.85V237.771C176.602 233.489 177.792 229.306 179.482 225.315C182.231 219.298 186.687 214.412 189.293 213.894" stroke="#868686" stroke-linecap="round" stroke-linejoin="round"/>
<path d="M193.211 266.85V237.704C193.211 237.704 199.161 214.307 208.321 212.333L210.161 208.414" stroke="#868686" stroke-linecap="round" stroke-linejoin="round"/>
<path d="M196.804 266.85V237.771C198.247 232.249 200.254 226.891 202.793 221.78C205.667 216.223 210.017 211.681 212.46 211.509" stroke="#868686" stroke-linecap="round" stroke-linejoin="round"/>
<path d="M116.705 286.913C118.118 286.913 119.263 285.768 119.263 284.355C119.263 282.942 118.118 281.797 116.705 281.797C115.292 281.797 114.147 282.942 114.147 284.355C114.147 285.768 115.292 286.913 116.705 286.913Z" stroke="#868686" stroke-linecap="round" stroke-linejoin="round"/>
<path d="M136.117 286.798C137.439 286.798 138.512 285.726 138.512 284.403C138.512 283.08 137.439 282.008 136.117 282.008C134.794 282.008 133.721 283.08 133.721 284.403C133.721 285.726 134.794 286.798 136.117 286.798Z" stroke="#868686" stroke-linecap="round" stroke-linejoin="round"/>
<path d="M126.229 283.234L128.059 282.994" stroke="#868686" stroke-linecap="round" stroke-linejoin="round"/>
<path d="M123.393 278.194L130.08 278.319" stroke="#868686" stroke-linecap="round" stroke-linejoin="round"/>
<path d="M123.766 286.923L130.579 286.693" stroke="#868686" stroke-linecap="round" stroke-linejoin="round"/>
<path d="M123.9 279.699L130.023 279.814" stroke="#868686" stroke-linecap="round" stroke-linejoin="round"/>
<path d="M124.178 285.466L130.329 285.409" stroke="#868686" stroke-linecap="round" stroke-linejoin="round"/>
<path d="M298.165 280.206C299.906 280.206 301.317 278.795 301.317 277.054C301.317 275.313 299.906 273.902 298.165 273.902C296.424 273.902 295.013 275.313 295.013 277.054C295.013 278.795 296.424 280.206 298.165 280.206Z" stroke="#868686" stroke-linecap="round" stroke-linejoin="round"/>
<path d="M343.82 287C343.82 287 343.398 289.012 338.004 288.916C332.61 288.82 340.371 278.377 340.371 278.377C333.395 281.845 335.733 288.791 331.632 288.36C327.532 287.929 333.692 279.21 333.692 279.21C328.662 280.168 328.787 287.594 324.475 288.312C320.164 289.031 326.746 280.724 326.746 280.724L320.7 286.875C315.009 289.27 315.852 286.042 315.852 286.042L322.348 281.49C322.348 281.49 308.427 285.198 303.99 285.198C299.554 285.198 281.953 282.209 283.4 278.252C284.847 274.295 295.013 276.221 295.013 276.221C295.013 276.221 285.192 277.658 288.9 278.971C292.608 280.283 297.59 283.062 307.104 282.334C316.619 281.605 343.245 277.773 343.245 277.773C343.245 277.773 348.639 275.761 351.389 282.334" stroke="#868686" stroke-linecap="round" stroke-linejoin="round"/>
<path d="M300.714 278.913C300.714 278.913 310.582 281.74 338.962 275.732C338.962 275.732 354.417 273.327 353.938 281.826C353.458 290.324 347.901 289.654 347.901 289.654" stroke="#868686" stroke-linecap="round" stroke-linejoin="round"/>
<path d="M329.716 279.641C329.716 279.641 322.789 286.597 326.506 286.722" stroke="#868686" stroke-linecap="round" stroke-linejoin="round"/>
<path d="M336.03 278.779C336.03 278.779 330.08 286.578 334.162 286.722" stroke="#868686" stroke-linecap="round" stroke-linejoin="round"/>
<path d="M90.7013 54.6533L88.7083 88.1495" stroke="#868686" stroke-linecap="round" stroke-linejoin="round"/>
<path d="M110.017 43.8169C110.017 43.8169 103.243 97.8745 102.745 124.463" stroke="#868686" stroke-linecap="round" stroke-linejoin="round"/>
<path d="M115.948 43.8168C115.948 43.8168 112.192 42.3797 110.017 71.4014C107.842 100.423 105.734 124.463 105.734 124.463" stroke="#868686" stroke-linecap="round" stroke-linejoin="round"/>
<path d="M123.939 44.6025C123.939 44.6025 121.697 41.8144 119.713 60.0188C117.73 78.2233 114.789 124.108 114.789 124.108V129.704" stroke="#868686" stroke-linecap="round" stroke-linejoin="round"/>
<path d="M127.302 44.9858C127.302 44.9858 124.705 47.8602 123.939 56.8283C123.172 65.7964 118.851 124.319 118.851 124.319L118.43 129.962" stroke="#868686" stroke-linecap="round" stroke-linejoin="round"/>
<path d="M139.566 46.5286C139.566 46.5286 136.26 53.1492 134.421 76.9492C132.581 100.749 131.68 125.871 131.68 125.871L130.646 129.004" stroke="#868686" stroke-linecap="round" stroke-linejoin="round"/>
<path d="M143.82 47.1033C143.82 47.1033 141.77 52.3155 138.857 80.2066C135.944 108.098 135.111 126.494 135.111 126.494" stroke="#868686" stroke-linecap="round" stroke-linejoin="round"/>
<path d="M151.437 48.1575C151.437 48.1575 146.014 82.9471 145.133 105.53C144.251 128.113 143.82 126.877 143.82 126.877L144.242 128.113" stroke="#868686" stroke-linecap="round" stroke-linejoin="round"/>
<path d="M154.465 48.6843C152.041 60.3256 151.312 72.1297 150.488 83.9626C149.454 98.6028 148.432 113.243 147.422 127.883" stroke="#868686" stroke-linecap="round" stroke-linejoin="round"/>
<path d="M29.4481 175.742H32.1979" stroke="#868686" stroke-linecap="round" stroke-linejoin="round"/>
<path d="M29.8983 179.459H32.629" stroke="#868686" stroke-linecap="round" stroke-linejoin="round"/>
<path d="M29.6877 183.119H32.6291" stroke="#868686" stroke-linecap="round" stroke-linejoin="round"/>
<path d="M29.6877 186.099H32.6866" stroke="#868686" stroke-linecap="round" stroke-linejoin="round"/>
<path d="M29.6685 189.127H33.0219" stroke="#868686" stroke-linecap="round" stroke-linejoin="round"/>
<path d="M29.6205 192.327H32.629" stroke="#868686" stroke-linecap="round" stroke-linejoin="round"/>
<path d="M29.6685 195.518H33.0219" stroke="#868686" stroke-linecap="round" stroke-linejoin="round"/>
<path d="M29.4769 198.057H32.6866" stroke="#868686" stroke-linecap="round" stroke-linejoin="round"/>
<path d="M29.3715 200.873L32.6866 200.49" stroke="#868686" stroke-linecap="round" stroke-linejoin="round"/>
<path d="M29.4481 203.144H32.6291" stroke="#868686" stroke-linecap="round" stroke-linejoin="round"/>
<path d="M29.3715 207.015L31.9584 206.613" stroke="#868686" stroke-linecap="round" stroke-linejoin="round"/>
<path d="M88.0473 98.3154L91.5444 97.0698C90.3372 90.7653 95.8081 48.6843 95.8081 48.6843" stroke="#868686" stroke-linecap="round" stroke-linejoin="round"/>
<path d="M86.3802 93.9558L90.3373 92.0396" stroke="#868686" stroke-linecap="round" stroke-linejoin="round"/>
<path d="M85.2112 89.1461L88.5167 87.479" stroke="#868686" stroke-linecap="round" stroke-linejoin="round"/>
<path d="M83.9753 84.4897L87.4437 82.928" stroke="#868686" stroke-linecap="round" stroke-linejoin="round"/>
<path d="M82.6626 78.0798L86.5718 77.1121" stroke="#868686" stroke-linecap="round" stroke-linejoin="round"/>
<path d="M81.8768 72.2349L86.4184 71.4014" stroke="#868686" stroke-linecap="round" stroke-linejoin="round"/>
<path d="M81.9248 66.2468H86.5334" stroke="#868686" stroke-linecap="round" stroke-linejoin="round"/>
<path d="M83.1225 58.6201L88.0472 60.9484" stroke="#868686" stroke-linecap="round" stroke-linejoin="round"/>
<path d="M85.7094 51.7983L90.0689 55.8129" stroke="#868686" stroke-linecap="round" stroke-linejoin="round"/>
<path d="M89.954 46.1643C90.4235 46.3655 93.1446 51.2041 93.1446 51.2041" stroke="#868686" stroke-linecap="round" stroke-linejoin="round"/>
<path d="M94.965 42.7437L97.0346 47.8026" stroke="#868686" stroke-linecap="round" stroke-linejoin="round"/>
<path d="M100.12 40.9138L101.365 45.2733" stroke="#868686" stroke-linecap="round" stroke-linejoin="round"/>
<path d="M105.734 40.0515L106.079 43.817" stroke="#868686" stroke-linecap="round" stroke-linejoin="round"/>
<path d="M112.23 40.0515L111.349 43.7403" stroke="#868686" stroke-linecap="round" stroke-linejoin="round"/>
<path d="M118.774 40.6743L117.251 43.7403" stroke="#868686" stroke-linecap="round" stroke-linejoin="round"/>
<path d="M123.939 41.2493L122.53 44.4494" stroke="#868686" stroke-linecap="round" stroke-linejoin="round"/>
<path d="M129.678 41.9294L128.356 45.2733" stroke="#868686" stroke-linecap="round" stroke-linejoin="round"/>
<path d="M135.695 42.696L134.258 45.8387" stroke="#868686" stroke-linecap="round" stroke-linejoin="round"/>
<path d="M140.907 43.386L139.46 46.1646" stroke="#868686" stroke-linecap="round" stroke-linejoin="round"/>
<path d="M145.842 44.4492L145.123 47.1032" stroke="#868686" stroke-linecap="round" stroke-linejoin="round"/>
<path d="M150.939 44.9858L150.306 47.8027" stroke="#868686" stroke-linecap="round" stroke-linejoin="round"/>
<path d="M156.381 45.7812L155.241 48.6844" stroke="#868686" stroke-linecap="round" stroke-linejoin="round"/>
<path d="M168.061 50.4377C168.061 50.4377 165.282 51.5204 165.282 67.3296C165.282 83.1387 161.929 123.495 161.929 123.495" stroke="#868686" stroke-linecap="round" stroke-linejoin="round"/>
<path d="M171.615 50.8976C171.615 50.8976 169.584 50.6772 168.645 68.5272C167.706 86.3771 164.985 122.46 164.985 122.46" stroke="#868686" stroke-linecap="round" stroke-linejoin="round"/>
<path d="M179.002 51.7983L173.225 120.812" stroke="#868686" stroke-linecap="round" stroke-linejoin="round"/>
<path d="M182.231 52.1621L176.53 120.228L175.381 124.692" stroke="#868686" stroke-linecap="round" stroke-linejoin="round"/>
<path d="M160.587 45.7812L159.217 49.2401" stroke="#868686" stroke-linecap="round" stroke-linejoin="round"/>
<path d="M165.713 46.7202L164.132 49.9108" stroke="#868686" stroke-linecap="round" stroke-linejoin="round"/>
<path d="M171.031 47.3906L169.804 50.4375" stroke="#868686" stroke-linecap="round" stroke-linejoin="round"/>
<path d="M176.109 47.8027L174.787 51.7981" stroke="#868686" stroke-linecap="round" stroke-linejoin="round"/>
<path d="M181.666 48.5979L180.123 51.9322" stroke="#868686" stroke-linecap="round" stroke-linejoin="round"/>
<path d="M187.041 49.24L185.441 52.5072" stroke="#868686" stroke-linecap="round" stroke-linejoin="round"/>
<path d="M192.531 49.8052L191.305 53.0724" stroke="#868686" stroke-linecap="round" stroke-linejoin="round"/>
<path d="M198.663 50.0161L197.034 53.542" stroke="#868686" stroke-linecap="round" stroke-linejoin="round"/>
<path d="M205.092 50.8689L203.837 53.8008" stroke="#868686" stroke-linecap="round" stroke-linejoin="round"/>
<path d="M211.675 50.8689L211.071 54.5002" stroke="#868686" stroke-linecap="round" stroke-linejoin="round"/>
<path d="M79.4049 144.334C83.9713 149.286 86.7006 155.654 87.137 162.376C87.137 162.826 96.3734 157.394 96.3734 157.394" stroke="#868686" stroke-linecap="round" stroke-linejoin="round"/>
<path d="M23.6322 260.929C16.2834 261.715 20.0776 236.018 20.4225 231.227C21.7064 213.205 23.2969 195.182 23.843 177.112V176.355C24.5424 153.235 12.7862 159.281 12.7862 159.281C11.0371 159.911 9.55469 161.118 8.58292 162.702C7.61115 164.287 7.208 166.156 7.43984 168" stroke="#868686" stroke-linecap="round" stroke-linejoin="round"/>
<path d="M223.383 209.008C223.383 209.008 207.248 216.673 206.529 237.752C205.811 258.831 206.347 267.157 206.347 267.157" stroke="#868686" stroke-linecap="round" stroke-linejoin="round"/>
<path d="M227.81 209.008C227.81 209.008 211.675 216.673 210.947 237.752C210.218 258.831 210.774 267.157 210.774 267.157" stroke="#868686" stroke-linecap="round" stroke-linejoin="round"/>
<path d="M239.479 209.008C239.479 209.008 228.135 216.673 227.417 237.752C226.698 258.831 227.235 267.157 227.235 267.157" stroke="#868686" stroke-linecap="round" stroke-linejoin="round"/>
<path d="M243.906 209.008C243.906 209.008 232.562 216.673 231.834 237.752C231.105 258.831 231.661 267.157 231.661 267.157" stroke="#868686" stroke-linecap="round" stroke-linejoin="round"/>
<path d="M254.666 209.008C254.666 209.008 243.331 216.673 242.603 237.752C241.875 258.831 242.421 267.157 242.421 267.157" stroke="#868686" stroke-linecap="round" stroke-linejoin="round"/>
<path d="M259.092 209.008C259.092 209.008 247.748 216.673 247.03 237.752C246.311 258.831 246.847 267.157 246.847 267.157" stroke="#868686" stroke-linecap="round" stroke-linejoin="round"/>
<path d="M268.559 209.966C268.559 209.966 262.015 216.673 261.287 237.752C260.558 258.831 261.105 267.157 261.105 267.157" stroke="#868686" stroke-linecap="round" stroke-linejoin="round"/>
<path d="M272.985 209.966C272.985 209.966 266.432 216.673 265.713 237.752C264.994 258.831 265.531 267.157 265.531 267.157" stroke="#868686" stroke-linecap="round" stroke-linejoin="round"/>
<path d="M282.988 209.966C282.988 209.966 276.435 216.673 275.716 237.618C274.997 258.562 275.534 266.85 275.534 266.85" stroke="#868686" stroke-linecap="round" stroke-linejoin="round"/>
<path d="M287.415 209.966C287.415 209.966 280.861 216.673 280.133 237.618C279.405 258.562 279.96 266.85 279.96 266.85" stroke="#868686" stroke-linecap="round" stroke-linejoin="round"/>
<path d="M305.063 212.725C305.063 212.725 298.519 219.154 297.791 239.198C297.063 259.243 297.609 267.185 297.609 267.185" stroke="#868686" stroke-linecap="round" stroke-linejoin="round"/>
<path d="M308.532 212.725C308.532 212.725 301.978 219.154 301.26 239.198C300.541 259.243 301.078 267.185 301.078 267.185" stroke="#868686" stroke-linecap="round" stroke-linejoin="round"/>
<path d="M316.666 213.214C316.666 213.214 312.029 219.557 311.31 239.294C310.592 259.032 311.128 266.869 311.128 266.869" stroke="#868686" stroke-linecap="round" stroke-linejoin="round"/>
<path d="M320.087 213.214C320.087 213.214 315.45 219.557 314.721 239.294C313.993 259.032 314.549 266.869 314.549 266.869" stroke="#868686" stroke-linecap="round" stroke-linejoin="round"/>
<path d="M333.913 213.214C333.913 213.214 329.275 219.557 328.557 239.294C327.838 259.032 328.375 266.869 328.375 266.869" stroke="#868686" stroke-linecap="round" stroke-linejoin="round"/>
<path d="M337.333 213.214C337.333 213.214 332.696 219.557 331.968 239.294C331.24 259.032 331.795 266.869 331.795 266.869" stroke="#868686" stroke-linecap="round" stroke-linejoin="round"/>
<path d="M70.2883 274.174L63.985 274.054L63.952 275.788L70.2553 275.908L70.2883 274.174Z" stroke="#868686" stroke-linecap="round" stroke-linejoin="round"/>
<path d="M189.575 276.089L183.272 275.969L183.242 277.53L189.545 277.65L189.575 276.089Z" stroke="#868686" stroke-linecap="round" stroke-linejoin="round"/>
</svg>
