<svg width="71" height="168" viewBox="0 0 71 168" fill="none" xmlns="http://www.w3.org/2000/svg">
<path d="M59.9471 165.755L68.7607 165.755L68.7607 59.8217L59.9471 59.8217L59.9471 165.755Z" fill="#EEEEEE"/>
<path d="M37.6254 51.9832L51.5068 51.9832L51.5068 3.02782L37.6254 3.02782L37.6254 51.9832Z" fill="#EEEEEE"/>
<path d="M19.1166 51.9832L32.998 51.9832L32.998 3.02782L19.1166 3.02782L19.1166 51.9832Z" fill="#EEEEEE"/>
<path d="M1.99791 165.755L10.8115 165.755L10.8115 59.8217L1.99791 59.8217L1.99791 165.755Z" fill="#EEEEEE"/>
<path d="M35.4255 100.845L51.3605 87.6642L35.4255 74.4829L19.4111 87.6642L35.4255 100.845Z" fill="#EEEEEE"/>
<path d="M53.3522 0.746582H17.5073H0.170898V58.3752V168H70.6798V58.3752V0.746582H53.3522ZM69.7984 1.62534V57.4965H54.2248V1.62534H69.7984ZM17.5073 58.3752V55.5193H34.1386L13.3208 72.1804V58.3752H17.5073ZM53.3522 54.6405H35.8748V41.6789H53.3522V54.6405ZM35.3813 101.689L17.8598 87.6816L35.3813 73.6567L52.8939 87.6728L35.3813 101.689ZM34.9847 72.8483L17.0402 87.2247H13.312V73.3052L34.9758 55.9674V72.8483H34.9847ZM13.3208 88.1034H16.9873L17.1547 88.2352L34.9847 102.497V122.955L13.3208 105.617V88.1034V88.1034ZM35.866 102.427L53.7577 88.1034H57.1597V105.854L35.8572 122.902V102.427H35.866ZM57.1685 87.2247H53.74L35.8748 72.9274V56.0289L57.1773 73.0768V87.2247H57.1685ZM34.9847 54.6405H17.5073V41.6789H34.9847V54.6405ZM13.3208 106.751L34.9847 124.088V167.13H13.3208V106.751V106.751ZM35.866 124.027L57.1685 106.979V167.121H35.866V124.027V124.027ZM57.1685 71.9432L36.6416 55.5193H53.3434V58.3752H57.1597V71.9432H57.1685ZM53.3522 40.8002H35.8748V1.62534H53.3522V40.8002ZM34.9847 1.62534V40.8002H17.5073V1.62534H34.9847ZM1.05226 1.62534H16.6259V57.4965H1.05226V1.62534ZM1.05226 58.3752H12.4395V167.121H1.05226V58.3752ZM69.7984 167.121H58.0499V58.3752H69.7984V167.121Z" fill="#231F20"/>
</svg>
