<svg width="335" height="453" viewBox="0 0 335 453" fill="none" xmlns="http://www.w3.org/2000/svg">
<path d="M481.76 394.271C481.76 394.271 105.92 394.271 104.599 394.271C72.7893 394.271 73.7496 313.245 82.0322 313.125L481.76 304.002V394.271V394.271Z" stroke="#231F20" stroke-width="0.25" stroke-miterlimit="10"/>
<path d="M80.4707 310.243L147.692 242.062C147.692 242.062 173.38 218.894 192.106 217.334C210.832 215.773 392.33 220.455 407.215 220.095C422.1 219.734 478.518 215.293 481.759 215.293C485 215.293 481.759 300.88 481.759 300.88L80.4707 310.243Z" stroke="#231F20" stroke-width="0.25" stroke-miterlimit="10" stroke-linecap="round" stroke-linejoin="round"/>
<path d="M152.854 237.742C156.695 230.419 157.776 19.7522 157.776 19.7522C157.776 19.7522 170.86 1.74648 189.586 0.786178C208.312 -0.174129 485 0.786178 485 0.786178L481.759 214.935" stroke="#231F20" stroke-width="0.25" stroke-miterlimit="10"/>
<path d="M276.494 215.173C276.494 215.173 274.813 149.872 281.895 142.07C281.895 142.07 272.292 134.748 273.253 128.986C274.213 123.224 279.254 118.302 279.615 112.54C279.975 106.659 276.374 16.2698 281.895 10.9881C281.895 10.9881 286.697 6.3066 281.895 0.304688" stroke="#231F20" stroke-width="0.25" stroke-miterlimit="10"/>
<path d="M273.012 131.027C249.244 137.389 155.854 131.868 155.854 131.868" stroke="#231F20" stroke-width="0.25" stroke-miterlimit="10"/>
<path d="M481.76 132.827C481.76 132.827 421.741 136.908 411.657 131.146C411.657 131.146 315.507 136.908 276.494 131.146" stroke="#231F20" stroke-width="0.25" stroke-miterlimit="10"/>
<path d="M156.814 80.7305H127.285C127.285 80.7305 29.5738 137.149 18.2902 140.029C8.08696 144.231 13.6088 142.19 4.966 145.071C-2.11629 150.233 2.44518 188.525 2.44518 188.525L13.6088 370.743C13.6088 370.743 16.4897 388.149 28.1334 389.709C39.7771 391.27 70.2668 389.709 70.2668 389.709C70.2668 389.709 79.7499 391.39 85.2716 379.986" stroke="#231F20" stroke-width="0.25" stroke-miterlimit="10"/>
<path d="M77.7109 324.769L67.0275 154.674C67.0275 154.674 66.4273 143.511 54.4235 142.07C42.4197 140.63 5.68796 144.831 5.68796 144.831" stroke="#231F20" stroke-width="0.25" stroke-miterlimit="10"/>
<path d="M156.695 90.4531L65.3462 149.032" stroke="#231F20" stroke-width="0.25" stroke-miterlimit="10"/>
<path d="M391.73 255.386C391.73 255.386 339.154 223.815 269.171 260.187" stroke="#231F20" stroke-width="0.25" stroke-miterlimit="10"/>
<path d="M250.205 263.667C250.205 263.667 185.624 238.099 135.328 257.065" stroke="#231F20" stroke-width="0.25" stroke-miterlimit="10"/>
<path d="M266.172 229.338C266.172 229.338 246.125 246.383 255.609 261.268C252.367 262.949 233.762 229.818 187.067 234.019" stroke="#231F20" stroke-width="0.25" stroke-miterlimit="10"/>
<path d="M253.447 268.711C253.447 268.711 229.2 293.439 239.883 298.6C250.446 303.762 239.283 306.283 239.283 306.283" stroke="#231F20" stroke-width="0.25" stroke-miterlimit="10"/>
<path d="M258.728 260.429C258.728 260.429 254.887 245.784 264.01 242.543" stroke="#231F20" stroke-width="0.25" stroke-miterlimit="10"/>
<path d="M483.293 404.259H46.9375V452.721H20.6336V386.139" stroke="#231F20" stroke-width="0.25" stroke-miterlimit="10"/>
<path d="M258.848 262.709C263.05 260.788 268.811 261.508 264.97 263.309C261.129 265.109 252.126 269.071 253.687 265.589C254.887 262.709 258.848 262.709 258.848 262.709Z" stroke="#231F20" stroke-width="0.25" stroke-miterlimit="10"/>
<path d="M279.975 142.67C279.975 142.67 270.972 137.029 272.052 132.947" stroke="#231F20" stroke-width="0.25" stroke-miterlimit="10"/>
<path d="M171.34 14.1098C240.602 13.2695 279.974 8.82812 279.974 8.82812C279.974 8.82812 399.893 20.5919 413.697 9.66839C413.697 9.66839 470.955 16.8707 481.879 12.3092" stroke="#231F20" stroke-width="0.25" stroke-miterlimit="10"/>
<path d="M273.012 128.986C273.012 128.986 265.69 129.826 276.613 111.82" stroke="#231F20" stroke-width="0.25" stroke-miterlimit="10"/>
<path d="M270.611 131.025C270.611 131.025 266.29 126.944 262.449 131.025" stroke="#231F20" stroke-width="0.25" stroke-miterlimit="10"/>
<path d="M270.611 134.148C270.611 134.148 264.129 137.63 266.53 142.671" stroke="#231F20" stroke-width="0.25" stroke-miterlimit="10"/>
</svg>
