<svg width="283" height="486" viewBox="0 0 283 486" fill="none" xmlns="http://www.w3.org/2000/svg">
<path d="M316.857 228.392C316.91 228.671 316.97 228.95 317.031 229.229C318.087 234.072 319.422 238.9 320.802 243.675C322.183 248.451 323.926 253.377 326.694 257.646C330.021 262.784 334.698 266.88 339.315 270.901C339.043 270.682 335 273.164 334.509 273.451L331.334 275.118L324.084 278.89L314.858 283.74C305.051 296.565 270.35 305.368 260.286 304.863C250.223 304.357 228.105 311.177 228.105 311.177C219.301 315.982 214.526 310.423 214.526 310.423C201.702 313.689 197.673 305.64 197.673 305.64C191.14 293.072 203.708 288.04 203.708 288.04C206.428 285.489 209.722 283.631 213.313 282.624C216.903 281.617 220.683 281.49 224.333 282.254C235.392 273.202 236.652 261.637 236.652 261.637C223.42 257.284 196.889 236.856 196.889 236.856C187.082 233.65 176.521 222.802 176.521 222.802C163.04 217.431 157.473 211.675 157.473 211.675C153.987 211.486 148.707 209.223 148.707 209.223C138.425 204.984 137.67 197.251 139.368 193.193C141.065 189.134 152.758 191.639 152.758 191.639C157.571 189.609 158.416 190.273 162.474 190.175C166.533 190.077 178.972 195.742 178.972 195.742C192.083 195.365 193.592 201.114 193.592 201.114C204.055 208.846 219.241 208.28 219.241 208.28" stroke="#231F20" stroke-width="0.754376" stroke-miterlimit="10"/>
<path d="M173.669 193.517C179.214 186.079 180.858 187.663 183.121 185.649C185.385 183.635 190.665 179.176 190.665 179.176C200.849 172.764 209.774 181.56 209.774 181.56C209.653 179.802 213.923 176.785 213.923 176.785C220.84 170.878 245.357 184.457 245.357 184.457C247.749 178.543 254.915 180.557 254.915 180.557L271.255 187.474C273.401 187.769 275.413 188.687 277.041 190.115L283.453 190.235C289.866 190.364 310.362 200.548 313.379 202.056C315.27 202.978 317.318 203.534 319.414 203.693C318.758 203.693 317.461 207.465 317.31 207.873C315.371 213.259 315.356 218.819 316.163 224.333C316.163 224.333 314.526 227.23 317.061 229.229" stroke="#231F20" stroke-width="0.754376" stroke-miterlimit="10"/>
<path d="M253.874 186.841L245.327 184.457" stroke="#231F20" stroke-width="0.754376" stroke-miterlimit="10"/>
<path d="M236.652 191.495C236.652 191.495 233.416 192.755 222.771 188.478C212.127 184.2 209.743 181.56 209.743 181.56" stroke="#231F20" stroke-width="0.754376" stroke-miterlimit="10"/>
<path d="M209.743 291.827C209.743 291.827 206.017 299.371 211.252 305.655L216.487 311.946" stroke="#231F20" stroke-width="0.754376" stroke-miterlimit="10"/>
<path d="M199.439 306.1C199.439 306.1 195.41 299.937 197.862 296.731C200.314 293.524 206.228 300.223 206.228 300.223L212.761 309.404C212.761 309.404 202.871 311.184 199.439 306.1Z" stroke="#231F20" stroke-width="0.754376" stroke-miterlimit="10"/>
<path d="M213.96 294.943C213.96 294.943 221.187 302.358 224.393 310.03C224.727 310.608 225.25 311.054 225.874 311.291C226.498 311.529 227.184 311.545 227.818 311.335" stroke="#231F20" stroke-width="0.754376" stroke-miterlimit="10"/>
<path d="M180.391 226.747C179.397 228.349 177.958 229.626 176.25 230.422C174.541 231.218 172.638 231.498 170.772 231.228C163.983 230.474 163.983 222.266 163.983 222.266L177.275 223.579" stroke="#231F20" stroke-width="0.754376" stroke-miterlimit="10"/>
<path d="M193.939 235.709C193.939 235.709 192.355 241.126 197.07 243.389C200.046 244.723 203.408 244.924 206.522 243.954" stroke="#231F20" stroke-width="0.754376" stroke-miterlimit="10"/>
<path d="M225.2 256.138L235.852 265.205" stroke="#231F20" stroke-width="0.754376" stroke-miterlimit="10"/>
<path d="M140.326 192.076C140.326 192.076 139.088 196.338 144.648 196.527C150.208 196.715 145.787 193.147 152.758 191.669" stroke="#231F20" stroke-width="0.754376" stroke-miterlimit="10"/>
<path d="M185.483 189.639C185.483 189.639 188.591 196.052 194.814 199.258C194.814 199.258 197.145 199.476 196.119 202.811" stroke="#231F20" stroke-width="0.754376" stroke-miterlimit="10"/>
<path d="M224.333 282.269C224.333 282.269 243.381 273.729 244.89 265.205L236.652 261.652" stroke="#231F20" stroke-width="0.754376" stroke-miterlimit="10"/>
<path d="M168.23 191.669C167.503 188.492 166.364 185.423 164.843 182.541C161.048 175.95 155.797 170.313 149.491 166.062C143.184 161.811 135.99 159.057 128.456 158.012C120.923 156.966 113.251 157.657 106.025 160.03C98.7991 162.403 92.2115 166.397 86.7653 171.705C81.319 177.014 77.1582 183.497 74.6008 190.66C72.0433 197.822 71.1569 205.475 72.0092 213.032C72.8615 220.59 75.4299 227.853 79.5184 234.266C83.6068 240.679 89.107 246.072 95.5988 250.035L145.757 251.098C146.625 250.616 147.477 250.11 148.315 249.59C154.45 245.63 159.642 240.371 163.523 234.185L165.477 231.123L166.555 229.214" stroke="#231F20" stroke-width="0.754376" stroke-miterlimit="10"/>
<path d="M154.357 191.035C151.421 185.283 147.005 180.417 141.564 176.939C136.123 173.461 129.853 171.495 123.399 171.245C116.946 170.995 110.543 172.469 104.849 175.515C99.1544 178.562 94.3749 183.071 91.0023 188.578C87.6296 194.086 85.7856 200.393 85.66 206.849C85.5345 213.306 87.1319 219.68 90.288 225.314C93.444 230.949 98.0446 235.64 103.616 238.906C109.188 242.171 115.529 243.893 121.987 243.894C136.229 243.894 148.858 235.015 154.817 223.088L155.428 221.308" stroke="#231F20" stroke-width="0.754376" stroke-miterlimit="10"/>
<path d="M146.217 190.794C142.747 185.361 137.604 181.206 131.564 178.956C125.524 176.706 118.915 176.483 112.737 178.321C106.559 180.159 101.147 183.958 97.3187 189.143C93.4905 194.329 91.4543 200.62 91.5176 207.065C91.581 213.511 93.7405 219.76 97.6699 224.87C101.599 229.979 107.085 233.671 113.298 235.387C119.511 237.103 126.114 236.75 132.109 234.381C138.103 232.013 143.164 227.758 146.527 222.259L147.492 220.403" stroke="#231F20" stroke-width="0.754376" stroke-miterlimit="10"/>
<path d="M120.621 275.223H118.864C107.127 275.223 97.613 284.738 97.613 296.474V322.251C97.613 333.988 107.127 343.502 118.864 343.502H120.621C132.358 343.502 141.872 333.988 141.872 322.251V296.474C141.872 284.738 132.358 275.223 120.621 275.223Z" stroke="#231F20" stroke-width="0.754376" stroke-miterlimit="10"/>
<path d="M127.305 265.53H112.172C100.436 265.53 90.9217 275.044 90.9217 286.78V331.047C90.9217 342.784 100.436 352.298 112.172 352.298H127.305C139.042 352.298 148.556 342.784 148.556 331.047V286.78C148.556 275.044 139.042 265.53 127.305 265.53Z" stroke="#231F20" stroke-width="0.754376" stroke-miterlimit="10"/>
<path d="M113.183 260.505H123.993C131.672 260.505 139.037 263.556 144.466 268.985C149.896 274.415 152.946 281.78 152.946 289.458V327.871C152.944 331.672 152.194 335.436 150.737 338.947C149.281 342.458 147.147 345.648 144.458 348.334C141.769 351.021 138.577 353.151 135.064 354.604C131.551 356.057 127.787 356.803 123.986 356.801H115.492C107.813 356.801 100.449 353.751 95.0188 348.321C89.5891 342.892 86.5387 335.527 86.5387 327.848V287.112C86.5467 280.052 89.3576 273.283 94.3538 268.294C99.35 263.305 106.123 260.503 113.183 260.505V260.505Z" stroke="#231F20" stroke-width="0.754376" stroke-miterlimit="10"/>
<path d="M145.757 251.128C145.757 251.128 169.188 259.721 169.188 286.886V323.375C169.15 336.2 164.039 348.489 154.97 357.558C145.901 366.626 133.612 371.738 120.787 371.776H118.69C105.866 371.738 93.5776 366.626 84.5101 357.557C75.4426 348.488 70.3328 336.199 70.297 323.375V286.886C70.297 261.418 95.5987 250.065 95.5987 250.065" stroke="#231F20" stroke-width="0.754376" stroke-miterlimit="10"/>
<path d="M163.983 222.266C163.983 222.266 111.931 216.518 105.896 214.881C99.861 213.244 101.49 210.354 101.49 210.354" stroke="#231F20" stroke-width="0.754376" stroke-miterlimit="10"/>
<path d="M146.217 208.008C146.112 208.008 146.021 207.963 145.916 207.948L144.875 207.805C139.843 207.096 134.698 206.832 129.636 206.334C124.446 205.828 119.264 205.345 114.058 205.059C109.306 204.802 104.327 206.371 101.475 210.339C103.18 208.242 106.341 207.677 108.861 207.375C115.59 206.568 122.832 207.993 129.561 208.68C138.87 209.638 148.149 210.807 157.473 211.697" stroke="#231F20" stroke-width="0.754376" stroke-miterlimit="10"/>
<path d="M160.943 214.549C160.943 214.549 106.394 209.095 103.61 211.237C100.827 213.38 170.101 219.995 170.101 219.995" stroke="#231F20" stroke-width="0.754376" stroke-miterlimit="10"/>
<path d="M119.739 330.172C129.996 330.172 138.312 321.08 138.312 309.864C138.312 298.649 129.996 289.556 119.739 289.556C109.481 289.556 101.166 298.649 101.166 309.864C101.166 321.08 109.481 330.172 119.739 330.172Z" stroke="#231F20" stroke-width="0.754376" stroke-miterlimit="10"/>
<path d="M131.884 305.157H128.708C128.393 304.688 127.967 304.305 127.468 304.04C126.97 303.774 126.414 303.636 125.849 303.636C125.284 303.636 124.728 303.774 124.23 304.04C123.731 304.305 123.306 304.688 122.99 305.157C122.675 304.688 122.249 304.305 121.75 304.04C121.252 303.774 120.696 303.636 120.131 303.636C119.566 303.636 119.01 303.774 118.512 304.04C118.013 304.305 117.587 304.688 117.272 305.157H116.797C116.483 304.685 116.057 304.299 115.557 304.031C115.058 303.764 114.5 303.624 113.934 303.624C113.367 303.624 112.81 303.764 112.31 304.031C111.811 304.299 111.385 304.685 111.071 305.157H107.586C106.501 305.167 105.465 305.606 104.703 306.377C103.941 307.149 103.516 308.191 103.52 309.276C103.524 310.359 103.956 311.397 104.722 312.162C105.488 312.928 106.525 313.36 107.608 313.364H111.705C112.318 313.939 113.127 314.258 113.968 314.258C114.808 314.258 115.617 313.939 116.231 313.364H117.891C118.504 313.939 119.313 314.258 120.154 314.258C120.994 314.258 121.803 313.939 122.417 313.364H123.586C124.199 313.94 125.008 314.261 125.849 314.261C126.69 314.261 127.5 313.94 128.112 313.364H131.884C132.965 313.356 133.999 312.923 134.761 312.157C135.524 311.392 135.954 310.356 135.958 309.276C135.962 308.19 135.535 307.147 134.772 306.375C134.008 305.603 132.97 305.165 131.884 305.157V305.157Z" stroke="#231F20" stroke-width="0.754376" stroke-miterlimit="10"/>
<path d="M132.216 307.299H107.269C106.19 307.299 105.315 308.174 105.315 309.253V309.261C105.315 310.34 106.19 311.215 107.269 311.215H132.216C133.295 311.215 134.17 310.34 134.17 309.261V309.253C134.17 308.174 133.295 307.299 132.216 307.299Z" stroke="#231F20" stroke-width="0.754376" stroke-miterlimit="10"/>
<path d="M105.368 309.864H134.11" stroke="#231F20" stroke-width="0.754376" stroke-miterlimit="10"/>
<path d="M31.2806 21.2476V439.926" stroke="#231F20" stroke-width="0.754376" stroke-miterlimit="10"/>
<path d="M14.8805 21.2476V439.926" stroke="#231F20" stroke-width="0.754376" stroke-miterlimit="10"/>
<path d="M1 21.2476V439.926" stroke="#231F20" stroke-width="0.754376" stroke-miterlimit="10"/>
<path d="M350.714 105.104H127.728V0.736084" stroke="#231F20" stroke-width="0.754376" stroke-miterlimit="10"/>
<path d="M336.727 119.128H113.741V14.7599" stroke="#231F20" stroke-width="0.754376" stroke-miterlimit="10"/>
<path d="M350.714 419.633H127.728V485.528" stroke="#231F20" stroke-width="0.754376" stroke-miterlimit="10"/>
<path d="M336.727 405.61H113.741V471.504" stroke="#231F20" stroke-width="0.754376" stroke-miterlimit="10"/>
<path d="M110.43 205.323C112.104 202.516 115.499 200.91 118.637 200.449C122.153 199.929 126.181 201.038 128.444 203.822C129.051 204.573 129.559 205.399 129.953 206.281" stroke="#231F20" stroke-width="0.754376" stroke-miterlimit="10"/>
<path d="M134.223 219.007C132.325 221.108 129.939 222.709 127.276 223.669C124.613 224.628 121.754 224.917 118.953 224.51C116.151 224.103 113.493 223.012 111.213 221.334C108.934 219.656 107.102 217.442 105.881 214.888" stroke="#231F20" stroke-width="0.754376" stroke-miterlimit="10"/>
<path d="M104.191 207.435C104.191 202.863 106.007 198.479 109.24 195.246C112.472 192.014 116.857 190.198 121.429 190.198C126 190.198 130.385 192.014 133.617 195.246C136.85 198.479 138.666 202.863 138.666 207.435" stroke="#231F20" stroke-width="0.754376" stroke-miterlimit="10"/>
</svg>
