<svg width="36" height="36" viewBox="0 0 36 36" fill="none" xmlns="http://www.w3.org/2000/svg">
<path fill-rule="evenodd" clip-rule="evenodd" d="M15.9578 35.6713L8.97852 28.7515L17.7783 20.0261L27.7812 29.9438L26.021 31.6887L17.7783 23.5167L12.499 28.7508L15.9585 32.1807L19.7711 28.4007L21.5314 30.1464L15.9578 35.6713Z" fill="#F5A83A"/>
<path fill-rule="evenodd" clip-rule="evenodd" d="M29.9645 27.7795L19.9617 17.8619L28.7608 9.13928L35.7401 16.059L30.168 21.584L28.4077 19.839L32.2196 16.059L28.7601 12.6292L23.4815 17.8633L31.7241 26.0346L29.9645 27.7795Z" fill="#527EBF"/>
<path fill-rule="evenodd" clip-rule="evenodd" d="M7.13384 26.5676L0.153809 19.6478L5.72592 14.1229L7.48617 15.8678L3.67431 19.6478L7.13384 23.0777L12.4125 17.8436L4.16984 9.67091L5.93009 7.92596L15.933 17.8436L7.13384 26.5676Z" fill="#6AC184"/>
<mask id="mask0" mask-type="alpha" maskUnits="userSpaceOnUse" x="8" y="0" width="19" height="16">
<path d="M8.11353 0.0348511H26.9162V15.6786H8.11353V0.0348511Z" fill="white"/>
</mask>
<g mask="url(#mask0)">
<path fill-rule="evenodd" clip-rule="evenodd" d="M18.1168 15.6786L8.11255 5.76097L9.8728 4.01603L18.1161 12.1887L23.3954 6.95462L19.9359 3.52473L16.1241 7.30473L14.3631 5.55979L19.9359 0.0348511L26.9159 6.95462L18.1168 15.6786Z" fill="#EE4941"/>
</g>
</svg>
