<svg width="151" height="151" viewBox="0 0 151 151" fill="none" xmlns="http://www.w3.org/2000/svg">
<circle cx="75.1314" cy="75.1314" r="54" transform="rotate(-30 75.1314 75.1314)" stroke="#CBA576" stroke-width="2"/>
<path d="M55.7138 61.249L50.8086 64.081L51.1446 64.663C52.6476 63.9061 53.2816 63.9003 53.9255 64.7756C54.3447 65.3096 54.959 66.2297 56.063 68.1418L59.003 73.2341L58.9407 73.2701L44.2407 67.873L41.1854 69.637L41.5214 70.219C42.5462 69.7381 43.0787 69.6524 43.8152 69.92C44.4773 70.2028 44.5669 70.262 45.4429 71.7792L48.0829 76.3518C49.1749 78.2432 49.7005 79.2977 50.0102 79.978C50.4943 81.0565 50.0979 81.6179 48.9611 82.385L49.2971 82.967L54.2231 80.123L53.8871 79.541C52.4257 80.2739 51.8037 80.3005 51.0878 79.3004C50.6774 78.7337 50.0391 77.772 48.9351 75.8598L45.9231 70.6429L45.9646 70.6189L61.1069 76.398L61.7512 76.026L56.9152 67.6498C55.7992 65.7169 55.3008 64.7576 55.0119 64.0652C54.579 63.1235 54.9219 62.5653 56.0498 61.831L55.7138 61.249ZM72.8177 64.8979C73.0067 65.8973 73.0198 66.832 72.9065 67.4517C72.7612 68.2561 72.2752 68.7583 70.6956 69.6703C69.6564 70.2703 68.9289 70.6903 68.378 70.6481C67.8599 70.6147 67.4712 70.2295 66.9072 69.2526L64.6392 65.3243L66.6137 64.1843C68.422 63.1403 68.6395 63.181 69.7617 64.5007L70.3644 64.1527L68.0724 60.1828L67.4697 60.5308C68.0242 62.0674 68.0163 62.2937 66.1249 63.3857L64.1712 64.5137L61.4352 59.7748C61.0872 59.172 61.0927 59.0857 61.7371 58.7137L63.3167 57.8017C64.8132 56.9377 65.4584 56.7592 66.0134 57.0484C66.5356 57.3289 67.0074 57.6662 67.6985 58.4311L68.2532 58C67.5669 56.9552 66.6469 55.6018 66.3589 55.103L57.089 60.455L57.413 61.0162C59.1182 60.2257 59.3325 60.2128 60.4005 62.0627L65.1765 70.3349C66.1605 72.0393 66.0902 72.3016 64.2828 73.539L64.6188 74.121L74.637 68.337C74.452 67.5847 73.7397 65.3909 73.4684 64.633L72.8177 64.8979ZM87.676 42.7956L83.1034 45.4356L83.4394 46.0176C85.1686 45.2686 85.3837 45.4493 85.8127 46.8643C86.353 48.5201 87.541 53.2658 88.2761 56.555L88.2345 56.579C84.8906 53.7152 81.7411 51.0441 78.5972 48.2867L77.9944 48.6347C78.8904 52.6346 79.6977 56.7688 80.6153 60.9502L80.5738 60.9742C77.9552 58.5508 75.5246 56.2129 73.094 53.8749C72.1703 52.9949 72.1158 52.8046 73.5251 51.7416L73.1891 51.1596L68.1385 54.0756L68.4745 54.6576C69.8263 54.0711 70.2461 54.0781 71.7497 55.4825C75.0289 58.5221 78.3048 61.5082 81.5784 64.6342L82.2227 64.2622C81.3387 60.2831 80.5827 56.2856 79.6226 51.9347L79.6642 51.9107C82.4642 54.3125 86.2143 57.4959 89.2895 60.1822L89.9338 59.8102C88.2781 53.0065 87.278 48.3463 86.9673 46.752C86.5948 44.6669 86.6859 44.3926 88.012 43.3776L87.676 42.7956Z" fill="#CBA576"/>
<path d="M76.051 105.21C76.1835 106.879 75.9613 107.118 74.8389 107.766L70.973 109.998L72.1156 105.21C72.8518 102.069 72.9752 100.362 71.9192 98.5333C70.6712 96.3717 68.2404 96.0015 66.4114 97.0575C65.2266 97.7415 64.5618 98.8459 64.3134 99.9038L64.1007 102.271L64.798 102.423C64.8704 101.3 65.1161 99.6621 66.5295 98.8461C68.0467 97.9701 69.5493 98.4605 70.5573 100.206C71.5893 101.994 71.2518 104.433 70.8632 106.736C70.5407 108.53 70.04 110.399 69.5569 112.202L69.8329 112.68L77.5855 108.204C77.2949 107.124 76.9748 106.09 76.741 105.061L76.051 105.21ZM76.5224 91.2199C73.3839 93.0319 74.3856 97.3588 76.1376 100.393C78.0336 103.677 81.1479 106.48 84.2864 104.668C87.4041 102.868 86.3697 98.5319 84.6177 95.4973C82.7697 92.2965 79.6401 89.4199 76.5432 91.2079L76.5224 91.2199ZM76.8976 91.9178C78.7682 90.8378 81.0639 93.6139 82.7679 96.5653C84.4359 99.4544 85.749 102.881 83.8784 103.961C82.0494 105.017 79.6434 102.194 77.9754 99.3045C76.2954 96.3947 75.0062 93.0098 76.8768 91.9298L76.8976 91.9178ZM97.1218 96.9245L96.7978 96.3633C94.8224 97.3098 94.6016 97.2155 93.7376 95.719L87.4856 84.8903C86.6065 86.0075 85.5874 87.1224 84.41 88.1071L84.698 88.6059L85.7196 88.0715C86.6582 87.585 86.8013 87.641 87.4133 88.701L92.0333 96.703C92.8973 98.1995 92.8686 98.4378 91.082 99.6633L91.406 100.224L97.1218 96.9245ZM96.5575 79.6526C93.8763 81.2006 93.6886 84.5237 94.8526 86.5398C96.1126 88.7221 98.5539 89.4466 100.757 88.1746C101.152 87.9466 101.499 87.6354 101.812 87.122L102.794 85.5578C103.911 89.125 102.878 92.5203 100.173 94.7471L100.637 95.3106C101.157 95.0106 102.305 94.0708 103.163 92.9655C105.309 90.2024 105.848 86.2884 103.64 82.464C102.02 79.6581 99.1556 78.1526 96.5783 79.6406L96.5575 79.6526ZM96.6625 80.5065C98.6786 79.3425 100.695 81.587 101.763 83.4369C102.003 83.8526 102.258 84.3426 102.472 84.8567C102.227 85.4412 101.665 86.0986 100.937 86.5186C99.1913 87.5266 97.2761 86.6093 96.2081 84.7595C95.5001 83.5332 95.0621 81.4305 96.6417 80.5185L96.6625 80.5065Z" fill="#CBA576"/>
<line x1="49.4895" y1="94.9801" x2="101.451" y2="64.9801" stroke="#CBA576"/>
</svg>
