<svg width="388" height="28" viewBox="0 0 388 28" fill="none" xmlns="http://www.w3.org/2000/svg">
<path d="M121.6 1.90039H123.1" stroke="#221F1F" stroke-width="1.3" stroke-linejoin="round"/>
<path d="M125.9 1.90039H176.2" stroke="#221F1F" stroke-width="1.3" stroke-linejoin="round" stroke-dasharray="2.87 2.87"/>
<path d="M177.6 1.90039H179.1" stroke="#221F1F" stroke-width="1.3" stroke-linejoin="round"/>
<path d="M121.6 11.5996H123.1" stroke="#221F1F" stroke-width="1.3" stroke-linejoin="round"/>
<path d="M125.9 11.5996H176.2" stroke="#221F1F" stroke-width="1.3" stroke-linejoin="round" stroke-dasharray="2.87 2.87"/>
<path d="M177.6 11.5996H179.1" stroke="#221F1F" stroke-width="1.3" stroke-linejoin="round"/>
<path d="M174.5 22.5H130.5" stroke="#221F1F" stroke-width="1.3" stroke-miterlimit="10" stroke-linejoin="round"/>
<path d="M137.099 17.6992L129.199 22.4992L137.099 27.4992V17.6992Z" fill="#221F1F"/>
<path d="M121.599 1.90039H44.6992V11.6004H121.599V1.90039Z" stroke="#221F1F" stroke-width="1.3" stroke-miterlimit="10" stroke-linejoin="round"/>
<path d="M190.3 4.19922H113.4V9.39922H190.3V4.19922Z" stroke="#221F1F" stroke-width="1.3" stroke-miterlimit="10" stroke-linejoin="round"/>
<path d="M190.2 1.69922H179.1V4.09922H190.2V1.69922Z" stroke="#221F1F" stroke-width="1.3" stroke-miterlimit="10" stroke-linejoin="round"/>
<path d="M190.2 9.30078H179.1V11.7008H190.2V9.30078Z" stroke="#221F1F" stroke-width="1.3" stroke-miterlimit="10" stroke-linejoin="round"/>
<path d="M44.5 1H1V12.5H44.5V1Z" stroke="#221F1F" stroke-width="1.3" stroke-miterlimit="10" stroke-linejoin="round"/>
<path d="M35.3008 1L44.3008 10" stroke="#221F1F" stroke-width="1.3" stroke-miterlimit="10" stroke-linejoin="round"/>
<path d="M1.19922 3.5L10.1992 12.5" stroke="#221F1F" stroke-width="1.3" stroke-miterlimit="10" stroke-linejoin="round"/>
<path d="M28.3008 1L39.8008 12.5" stroke="#221F1F" stroke-width="1.3" stroke-miterlimit="10" stroke-linejoin="round"/>
<path d="M20.4004 1L31.9004 12.5" stroke="#221F1F" stroke-width="1.3" stroke-miterlimit="10" stroke-linejoin="round"/>
<path d="M13.4004 1L24.9004 12.5" stroke="#221F1F" stroke-width="1.3" stroke-miterlimit="10" stroke-linejoin="round"/>
<path d="M5.69922 1L17.1992 12.5" stroke="#221F1F" stroke-width="1.3" stroke-miterlimit="10" stroke-linejoin="round"/>
<path d="M266.4 1.90039H264.9" stroke="#221F1F" stroke-width="1.3" stroke-linejoin="round"/>
<path d="M262.001 1.90039H211.701" stroke="#221F1F" stroke-width="1.3" stroke-linejoin="round" stroke-dasharray="2.87 2.87"/>
<path d="M210.301 1.90039H208.801" stroke="#221F1F" stroke-width="1.3" stroke-linejoin="round"/>
<path d="M266.4 11.5996H264.9" stroke="#221F1F" stroke-width="1.3" stroke-linejoin="round"/>
<path d="M262.001 11.5996H211.701" stroke="#221F1F" stroke-width="1.3" stroke-linejoin="round" stroke-dasharray="2.87 2.87"/>
<path d="M210.301 11.5996H208.801" stroke="#221F1F" stroke-width="1.3" stroke-linejoin="round"/>
<path d="M213.4 22.5H257.4" stroke="#221F1F" stroke-width="1.3" stroke-miterlimit="10" stroke-linejoin="round"/>
<path d="M250.801 17.6992L258.801 22.4992L250.801 27.4992V17.6992Z" fill="#221F1F"/>
<path d="M266.301 11.5996L343.201 11.5996L343.201 1.89961L266.301 1.89961L266.301 11.5996Z" stroke="#221F1F" stroke-width="1.3" stroke-miterlimit="10" stroke-linejoin="round"/>
<path d="M197.69 9.30078L274.59 9.30078L274.59 4.10078L197.69 4.10078L197.69 9.30078Z" stroke="#221F1F" stroke-width="1.3" stroke-miterlimit="10" stroke-linejoin="round"/>
<path d="M197.707 4.17773L208.807 4.17773L208.807 1.77773L197.707 1.77773L197.707 4.17773Z" stroke="#221F1F" stroke-width="1.3" stroke-miterlimit="10" stroke-linejoin="round"/>
<path d="M197.707 11.8223L208.807 11.8223L208.807 9.42227L197.707 9.42227L197.707 11.8223Z" stroke="#221F1F" stroke-width="1.3" stroke-miterlimit="10" stroke-linejoin="round"/>
<path d="M343.455 12.5L386.955 12.5L386.955 1L343.455 1L343.455 12.5Z" stroke="#221F1F" stroke-width="1.3" stroke-miterlimit="10" stroke-linejoin="round"/>
<path d="M352.6 1L343.6 10" stroke="#221F1F" stroke-width="1.3" stroke-miterlimit="10" stroke-linejoin="round"/>
<path d="M386.801 3.5L377.801 12.5" stroke="#221F1F" stroke-width="1.3" stroke-miterlimit="10" stroke-linejoin="round"/>
<path d="M359.6 1L348.1 12.5" stroke="#221F1F" stroke-width="1.3" stroke-miterlimit="10" stroke-linejoin="round"/>
<path d="M367.6 1L356.1 12.5" stroke="#221F1F" stroke-width="1.3" stroke-miterlimit="10" stroke-linejoin="round"/>
<path d="M374.6 1L363.1 12.5" stroke="#221F1F" stroke-width="1.3" stroke-miterlimit="10" stroke-linejoin="round"/>
<path d="M382.301 1L370.801 12.5" stroke="#221F1F" stroke-width="1.3" stroke-miterlimit="10" stroke-linejoin="round"/>
</svg>
