<svg width="1700" height="856" viewBox="0 0 1700 856" fill="none" xmlns="http://www.w3.org/2000/svg">
<path d="M903 739L1196.5 739L1196.71 770L903 770" stroke="#231F20" stroke-width="0.75" stroke-miterlimit="10"/>
<path d="M903.001 749.483L1196.5 749.483" stroke="#231F20" stroke-width="0.75" stroke-miterlimit="10"/>
<path d="M903.001 742.444L1196.5 742.444" stroke="#231F20" stroke-width="0.75" stroke-miterlimit="10"/>
<path d="M1525 739L1700 739M1700 770L1525 770" stroke="#231F20" stroke-width="0.75" stroke-miterlimit="10"/>
<path d="M1525 749.483L1700 749.483" stroke="#231F20" stroke-width="0.75" stroke-miterlimit="10"/>
<path d="M1525 742.444L1700 742.444" stroke="#231F20" stroke-width="0.75" stroke-miterlimit="10"/>
<path d="M577 739L8.02138e-06 739M8.00801e-06 770L577 770" stroke="#231F20" stroke-width="0.75" stroke-miterlimit="10"/>
<path d="M0.00116768 749.483L576.596 749.483" stroke="#231F20" stroke-width="0.75" stroke-miterlimit="10"/>
<path d="M0.00116768 742.444L576.596 742.444" stroke="#231F20" stroke-width="0.75" stroke-miterlimit="10"/>
<path d="M1396.99 382.575L1438.12 391.604V385.961L1396.43 376.933L1396.99 382.575Z" stroke="#231F20" stroke-width="0.75" stroke-miterlimit="10" stroke-linejoin="round"/>
<path d="M1438.12 385.396L1442.63 389.346V396.682L1438.12 391.603" stroke="#231F20" stroke-width="0.75" stroke-miterlimit="10" stroke-linejoin="round"/>
<path d="M1442.62 396.683L1434.17 394.99L1429.1 389.348" stroke="#231F20" stroke-width="0.75" stroke-miterlimit="10" stroke-linejoin="round"/>
<path d="M1425.72 388.784V398.376L1448.25 404.583V384.834L1425.72 378.627V383.141" stroke="#231F20" stroke-width="0.75" stroke-miterlimit="10" stroke-linejoin="round"/>
<path d="M1426.85 427.153L1447.13 434.488V417.56L1426.85 410.789V427.153Z" stroke="#231F20" stroke-width="0.75" stroke-miterlimit="10" stroke-linejoin="round"/>
<path d="M1435.87 427.153L1438.12 427.717V416.996L1435.87 416.432V427.153Z" stroke="#231F20" stroke-width="0.75" stroke-miterlimit="10" stroke-linejoin="round"/>
<path d="M1204.32 0.56543H1517.55" stroke="#231F20" stroke-width="0.75" stroke-miterlimit="10" stroke-linejoin="round"/>
<path d="M1218.97 0.56543H1197.56V770.232H1218.97V0.56543Z" stroke="#231F20" stroke-width="0.75" stroke-miterlimit="10" stroke-linejoin="round"/>
<path d="M1524.88 0.56543H1503.47V770.232H1524.88V0.56543Z" stroke="#231F20" stroke-width="0.75" stroke-miterlimit="10" stroke-linejoin="round"/>
<path d="M1484.31 820.45V91.9756L1470.23 104.39L1469.5 837.5" stroke="#231F20" stroke-width="0.75" stroke-miterlimit="10" stroke-linejoin="round"/>
<path d="M1218.97 746L1477 829.5L1473 850.5L1218.97 763.5V746Z" fill="#E4CEB2"/>
<path d="M1469.5 837.5L1218.97 752.738V19.7495L1470.23 104.39L1469.5 837.5Z" stroke="#231F20" stroke-width="0.75" stroke-miterlimit="10" stroke-linejoin="round"/>
<path d="M1413.89 190.724L1268.55 139.939V44.5771L1413.89 95.3616V190.724Z" stroke="#231F20" stroke-width="0.75" stroke-miterlimit="10" stroke-linejoin="round"/>
<path d="M1413.89 295.113L1268.55 244.329V148.402L1413.89 199.187V295.113Z" stroke="#231F20" stroke-width="0.75" stroke-miterlimit="10" stroke-linejoin="round"/>
<path d="M1413.89 385.962V398.376L1268.55 347.592V251.666L1413.89 302.45V380.32" stroke="#231F20" stroke-width="0.75" stroke-miterlimit="10" stroke-linejoin="round"/>
<path d="M1413.89 502.202L1268.55 451.417V355.491L1413.89 406.276V502.202Z" stroke="#231F20" stroke-width="0.75" stroke-miterlimit="10" stroke-linejoin="round"/>
<path d="M1413.89 606.027L1268.55 555.243V459.316L1413.89 510.101V606.027Z" stroke="#231F20" stroke-width="0.75" stroke-miterlimit="10" stroke-linejoin="round"/>
<path d="M1413.89 709.29L1268.55 658.506V562.58L1413.89 613.364V709.29Z" stroke="#231F20" stroke-width="0.75" stroke-miterlimit="10" stroke-linejoin="round"/>
<path d="M1413.89 811.422L1268.55 760.638V665.276L1413.89 716.06V811.422Z" stroke="#231F20" stroke-width="0.75" stroke-miterlimit="10" stroke-linejoin="round"/>
<path d="M1469.67 854.871L1218.97 770.23V752.738L1469.67 837.379V854.871Z" stroke="#231F20" stroke-width="0.75" stroke-miterlimit="10" stroke-linejoin="round"/>
<path d="M1502.9 0.56543H1218.41V19.7507H1502.9V0.56543Z" stroke="#231F20" stroke-width="0.75" stroke-miterlimit="10" stroke-linejoin="round"/>
<path d="M1473 850.5L1469.67 854.871V837.378L1484.31 820.45V837.943L1483 839.5" stroke="#231F20" stroke-width="0.75" stroke-miterlimit="10" stroke-linecap="round" stroke-linejoin="bevel"/>
<path d="M1255.02 19.7495L1484.31 91.9763" stroke="#231F20" stroke-width="0.75" stroke-miterlimit="10" stroke-linejoin="round"/>
<path d="M1483 839L1477 829.5L1473 850.5L1483 839Z" fill="#CBA576"/>
<path d="M600 770H881V765H600V770Z" fill="#E4CEB2"/>
<path d="M884 20H598V765H884V20Z" stroke="#231F20" stroke-width="0.75" stroke-miterlimit="10" stroke-linejoin="round"/>
<path d="M837 364.538V20M656 20V370.993V376.155V514.373V521.828V765H837V370.03" stroke="#231F20" stroke-width="0.75" stroke-miterlimit="10" stroke-linejoin="round"/>
<path d="M832.84 131H660.021V232.522H832.84V131Z" stroke="#231F20" stroke-width="0.75" stroke-miterlimit="10" stroke-linejoin="round"/>
<path d="M832.84 240H660.021V335.317H832.84V240Z" stroke="#231F20" stroke-width="0.75" stroke-miterlimit="10" stroke-linejoin="round"/>
<path d="M832.84 27.6357H660.021V122.953H832.84V27.6357Z" stroke="#231F20" stroke-width="0.75" stroke-miterlimit="10" stroke-linejoin="round"/>
<path d="M833.405 365V343H660.021V370.636V376.841V442.266H833.405V370.5" stroke="#231F20" stroke-width="0.75" stroke-miterlimit="10" stroke-linejoin="round"/>
<path d="M832.84 450H660.021V549.266H832.84V450Z" stroke="#231F20" stroke-width="0.75" stroke-miterlimit="10" stroke-linejoin="round"/>
<path d="M832.84 557H660.021V652.881H832.84V557Z" stroke="#231F20" stroke-width="0.75" stroke-miterlimit="10" stroke-linejoin="round"/>
<path d="M832.84 661H660.021V758.574H832.84V661Z" stroke="#231F20" stroke-width="0.75" stroke-miterlimit="10" stroke-linejoin="round"/>
<path d="M815.824 370.417L859.312 370.417L859.312 364.777L815.824 364.777L815.824 370.417Z" stroke="#231F20" stroke-width="0.75" stroke-miterlimit="10" stroke-linejoin="round"/>
<path d="M859.384 365L865.031 368.299V374.503L859.384 370.555" stroke="#231F20" stroke-width="0.75" stroke-miterlimit="10" stroke-linejoin="round"/>
<path d="M865.033 374.503H856.561L850.349 370.555" stroke="#231F20" stroke-width="0.75" stroke-miterlimit="10" stroke-linejoin="round"/>
<path d="M846.395 370.554V380.142H868.985V360.401H846.395V364.913" stroke="#231F20" stroke-width="0.75" stroke-miterlimit="10" stroke-linejoin="round"/>
<path d="M848.21 410.49L869.106 410.49L869.106 393.57L848.21 393.57L848.21 410.49Z" stroke="#231F20" stroke-width="0.75" stroke-miterlimit="10" stroke-linejoin="round"/>
<path d="M856.667 407.386L858.926 407.386L858.926 396.67L856.667 396.67L856.667 407.386Z" stroke="#231F20" stroke-width="0.75" stroke-miterlimit="10" stroke-linejoin="round"/>
<path d="M583.778 0.564453H897.789" stroke="#231F20" stroke-width="0.75" stroke-miterlimit="10" stroke-linejoin="round"/>
<path d="M597.894 0.564453H577.562V769.872H597.894V0.564453Z" stroke="#231F20" stroke-width="0.75" stroke-miterlimit="10" stroke-linejoin="round"/>
<path d="M902.87 0.564453H883.668V769.872H902.87V0.564453Z" stroke="#231F20" stroke-width="0.75" stroke-miterlimit="10" stroke-linejoin="round"/>
<path d="M881 765H600V770H881V767.5V765Z" stroke="#231F20" stroke-width="0.75" stroke-miterlimit="10" stroke-linejoin="round"/>
</svg>
