<svg width="18" height="18" viewBox="0 0 18 18" fill="none" xmlns="http://www.w3.org/2000/svg">
<path d="M10.9111 5.63299C10.5061 5.29299 9.95309 5.12299 9.25309 5.12299C8.94109 5.12299 8.60909 5.15799 8.25909 5.22799C7.90909 5.29799 7.62009 5.37699 7.39209 5.46499V6.46099H7.44109C7.62309 6.34699 7.87109 6.23499 8.18609 6.12399C8.50009 6.01399 8.83309 5.95799 9.18509 5.95799C9.57909 5.95799 9.90009 6.04799 10.1491 6.22899C10.3981 6.40999 10.5221 6.68399 10.5221 7.05199C10.5221 7.33199 10.4701 7.56199 10.3661 7.74299C10.2621 7.92399 10.1151 8.09899 9.92709 8.26799C9.77109 8.41399 9.57009 8.55899 9.32409 8.70199C9.07809 8.84599 8.84909 8.97699 8.63809 9.09799V10.587H9.51209V9.48799C9.77909 9.33499 10.0311 9.17699 10.2691 9.01399C10.5071 8.85099 10.7171 8.67699 10.8991 8.49099C11.0851 8.29899 11.2341 8.07799 11.3481 7.82899C11.4621 7.57999 11.5191 7.29599 11.5191 6.97699C11.5191 6.42199 11.3161 5.97399 10.9111 5.63299Z" fill="#505050"/>
<path d="M9.58999 11.51H8.59399V12.54H9.58999V11.51Z" fill="#505050"/>
<path d="M9 18C4.038 18 0 13.963 0 9C0 4.038 4.038 0 9 0C13.963 0 18 4.038 18 9C18 13.963 13.963 18 9 18ZM9 1C4.589 1 1 4.589 1 9C1 13.411 4.589 17 9 17C13.411 17 17 13.411 17 9C17 4.589 13.411 1 9 1Z" fill="#505050"/>
</svg>
